<svg width="528" height="505" viewBox="0 0 528 505" fill="none" xmlns="http://www.w3.org/2000/svg">
<path fill-rule="evenodd" clip-rule="evenodd" d="M312.159 33.026C411.036 34.5835 482.233 117.354 512.537 211.465C542.542 304.644 532.037 412.586 452.973 470.327C373.392 528.445 265.783 507.999 186.349 449.679C108.323 392.393 63.3794 297.483 91.3562 204.83C121.155 106.142 209.061 31.4019 312.159 33.026Z" fill="#9046A4"/>
<path fill-rule="evenodd" clip-rule="evenodd" d="M229.159 28.026C328.036 29.5835 399.233 112.354 429.537 206.465C459.542 299.644 449.037 407.586 369.973 465.327C290.392 523.445 182.783 502.999 103.349 444.679C25.3229 387.393 -19.6206 292.483 8.35624 199.83C38.1554 101.142 126.061 26.4019 229.159 28.026Z" fill="#FD983A"/>
<path fill-rule="evenodd" clip-rule="evenodd" d="M274.943 12.027C378.043 13.6473 452.279 99.75 483.877 197.649C515.163 294.579 504.21 406.866 421.77 466.931C338.791 527.388 226.587 506.12 143.761 445.452C62.4041 385.86 15.5417 287.13 44.713 190.747C75.7845 88.0867 167.443 10.3376 274.943 12.027Z" fill="#EDEDED"/>
<g clip-path="url(#clip0_29_93)">
<path d="M274.463 35.5298C274.996 36.0628 275.529 36.5957 276.078 37.1448C279.002 36.7913 281.792 35.8881 284.611 35.0504C285.454 34.8016 286.298 34.5528 287.167 34.2965C288.039 34.0373 288.912 33.7781 289.811 33.5111C291.544 32.9964 293.277 32.4832 295.011 31.9718C296.159 31.6306 296.159 31.6306 297.331 31.2826C303.99 29.4518 312.138 28.2283 318.59 31.24C321.698 33.1097 323.734 35.5192 325.355 38.7598C326.108 43.3568 325.368 45.7105 322.73 49.5601C316.407 57.5741 308.45 62.9029 299.707 67.9022C296.613 69.672 296.613 69.672 293.85 71.8671C293.499 73.683 293.499 73.683 293.767 75.7221C293.861 76.9036 293.861 76.9036 293.956 78.1091C294.041 78.9659 294.126 79.8227 294.213 80.7054C294.324 82.0451 294.324 82.0451 294.438 83.4119C294.599 85.3309 294.767 87.2493 294.942 89.1671C295.394 94.1462 295.788 99.1299 296.188 104.113C296.309 105.588 296.309 105.588 296.432 107.093C297.073 115.047 297.539 122.99 297.788 130.966C297.847 132.505 297.847 132.505 297.907 134.075C298.175 144.119 297.09 152.629 290.366 160.439C289.65 161.056 288.934 161.672 288.195 162.307C287.74 162.704 287.285 163.102 286.816 163.512C282.555 166.999 278.073 168.749 272.847 170.382C273.651 175.217 274.998 179.41 278.532 182.977C285.034 187.621 294.926 188.264 302.585 189.762C305.679 190.403 308.77 191.056 311.861 191.713C313.777 192.116 315.696 192.509 317.617 192.889C333.151 196.027 333.151 196.027 338.179 201.167C341.111 203.996 344.119 206.587 347.368 209.04C348.264 209.72 349.16 210.399 350.057 211.078C350.51 211.421 350.964 211.765 351.431 212.118C353.8 213.926 356.136 215.774 358.476 217.62C362.442 220.745 366.429 223.842 370.438 226.911C373.087 228.941 375.724 230.986 378.352 233.041C378.998 233.546 379.644 234.05 380.31 234.57C381.578 235.562 382.845 236.554 384.11 237.548C387.335 240.067 390.578 242.458 394.02 244.671C393.513 247.036 392.738 249 391.596 251.131C392.023 251.308 392.45 251.485 392.89 251.667C395.539 253.142 397.71 255.097 399.977 257.086C400.989 257.965 402.001 258.842 403.013 259.72C403.53 260.17 404.046 260.62 404.579 261.084C406.562 262.805 408.561 264.509 410.561 266.212C415.013 270.006 419.409 273.853 423.742 277.785C425.311 279.201 426.901 280.588 428.503 281.967C461.432 310.686 461.432 310.686 462.684 324.613C462.79 327.103 462.797 329.588 462.791 332.079C462.792 332.786 462.794 333.493 462.795 334.221C462.797 336.52 462.792 338.818 462.785 341.116C462.783 342.306 462.783 342.306 462.78 343.519C462.637 407.569 462.637 407.569 457.534 433.373C457.25 434.852 457.25 434.852 456.96 436.36C454.206 447.24 445.543 453.694 437.137 460.474C436.588 460.937 436.039 461.4 435.473 461.877C431.015 465.349 427.819 465.678 422.293 465.118C421.362 465.051 420.431 464.985 419.472 464.916C400.885 463.367 400.885 463.367 396.417 459.752C393.96 456.465 393.168 452.94 392.404 448.968C391.892 447.878 391.359 446.798 390.788 445.738C390.336 445.768 389.884 445.798 389.418 445.83C384.66 446.148 379.902 446.462 375.144 446.773C373.374 446.889 371.604 447.006 369.835 447.125C367.274 447.297 364.713 447.464 362.152 447.63C361.375 447.683 360.599 447.736 359.799 447.791C353.935 448.165 348.229 448.16 342.319 448.16C342.586 456.687 342.852 465.214 343.127 474C282.347 474 221.567 474 158.945 474C159.853 462.19 159.853 462.19 160.437 458.234C160.567 457.346 160.696 456.457 160.829 455.542C160.966 454.625 161.104 453.707 161.245 452.762C161.387 451.791 161.53 450.82 161.676 449.82C162.126 446.76 162.58 443.7 163.034 440.64C163.342 438.549 163.65 436.457 163.957 434.365C164.706 429.273 165.459 424.181 166.215 419.09C165.513 419.372 164.811 419.654 164.088 419.945C163.157 420.313 162.226 420.68 161.267 421.059C160.349 421.424 159.43 421.789 158.484 422.166C148.771 425.538 138.438 424.625 129.055 420.705C119.157 415.65 111.117 407.916 107.244 397.288C102.876 383.476 103.962 371.626 106.664 357.651C106.936 356.201 107.208 354.751 107.479 353.3C108.187 349.521 108.907 345.743 109.63 341.967C110.369 338.097 111.095 334.226 111.823 330.354C113.247 322.786 114.686 315.22 116.13 307.656C112.132 306.324 108.133 304.991 104.013 303.618C105.577 298.804 107.277 294.098 109.194 289.415C109.591 288.438 109.591 288.438 109.996 287.441C110.86 285.313 111.728 283.186 112.596 281.059C113.201 279.571 113.806 278.084 114.41 276.596C115.676 273.482 116.943 270.368 118.21 267.254C121.141 260.051 124.057 252.842 126.973 245.634C128.442 242.005 129.912 238.376 131.381 234.748C131.874 233.531 132.367 232.314 132.86 231.096C133.204 230.247 133.548 229.397 133.902 228.521C133.397 228.434 132.891 228.347 132.37 228.257C119.791 226.077 107.252 223.727 94.7263 221.263C94.0079 221.122 93.2896 220.981 92.5495 220.836C85.8341 219.516 79.1195 218.191 72.4058 216.862C68.6877 216.126 64.9689 215.395 61.2496 214.665C59.848 214.389 58.4466 214.112 57.0456 213.833C55.1053 213.447 53.1641 213.066 51.2226 212.686C50.3686 212.514 50.3686 212.514 49.4973 212.339C46.6128 211.779 43.9351 211.518 41.0032 211.564C41.4503 206.346 42.1372 201.257 43.1634 196.123C43.2975 195.437 43.4315 194.751 43.5696 194.043C44.0076 191.806 44.4507 189.569 44.894 187.333C45.2011 185.769 45.5078 184.206 45.8142 182.642C46.6171 178.55 47.4243 174.459 48.2326 170.368C49.0584 166.184 49.8799 162 50.7018 157.815C52.3117 149.621 53.9263 141.429 55.544 133.237C58.4043 132.267 60.4875 132.585 63.4266 133.16C64.8505 133.433 64.8505 133.433 66.3031 133.712C67.3415 133.919 68.3798 134.126 69.4496 134.339C70.5562 134.554 71.663 134.769 72.7698 134.983C75.7734 135.566 78.7752 136.157 81.7768 136.75C84.9143 137.368 88.0533 137.978 91.1921 138.59C97.1353 139.748 103.077 140.914 109.018 142.082C115.783 143.411 122.548 144.733 129.314 146.053C143.232 148.771 157.148 151.498 171.062 154.232C172.214 157.686 171.123 160.527 170.305 163.972C168.079 173.719 166.203 183.523 164.347 193.345C164.2 194.123 164.052 194.902 163.9 195.704C163.053 200.182 162.209 204.662 161.368 209.141C161.797 208.967 162.226 208.793 162.668 208.614C163.298 208.36 163.928 208.106 164.577 207.845C165.317 207.547 166.056 207.249 166.818 206.942C168.693 206.207 170.577 205.499 172.469 204.809C189.296 199.135 189.296 199.135 201.139 186.785C206.376 174.971 204.975 164.015 203.949 151.413C203.458 145.07 203.279 138.791 203.375 132.429C202.525 132.379 201.675 132.329 200.8 132.278C196.637 131.391 194.909 129.455 192.62 125.969C191.95 124.021 192.028 122.365 192.065 120.317C191.488 120.414 190.911 120.511 190.316 120.612C182.227 121.92 174.112 122.77 165.963 123.597C163.91 123.808 161.857 124.019 159.805 124.231C158.54 124.361 157.275 124.491 156.009 124.619C152.133 125.016 148.269 125.474 144.404 125.969C142.659 114.198 141.155 102.414 139.809 90.5909C139.626 88.9954 139.443 87.3998 139.259 85.8043C138.817 81.9664 138.378 78.1281 137.941 74.2896C149.09 72.8355 160.247 71.5133 171.426 70.3207C172.792 70.1748 174.157 70.0278 175.522 69.8796C177.468 69.669 179.415 69.4631 181.362 69.2585C181.938 69.1956 182.515 69.1326 183.109 69.0677C186.921 68.6746 190.656 68.5843 194.489 68.6372C194.561 67.8367 194.634 67.0362 194.709 66.2115C195.223 62.6567 196.592 59.7474 198.225 56.5752C198.515 56.0058 198.806 55.4364 199.105 54.8498C201.372 50.5404 203.858 46.9614 207.414 43.6048C207.951 43.0614 208.488 42.5181 209.042 41.9583C226.059 25.6206 254.604 23.7505 274.463 35.5298ZM381.094 311.693C381.094 315.424 381.094 319.155 381.094 322.998C385.89 324.951 390.537 326.148 395.635 327.036C395.684 327.775 395.733 328.514 395.783 329.275C395.885 330.715 395.885 330.715 395.989 332.184C396.054 333.139 396.12 334.095 396.187 335.079C396.29 337.465 396.29 337.465 397.251 339.148C399.517 339.887 399.517 339.887 402.148 340.46C403.041 340.671 403.933 340.881 404.852 341.098C405.543 341.254 406.233 341.41 406.945 341.571C406.984 342.402 407.024 343.234 407.065 344.091C407.494 352.463 408.319 360.708 409.368 369.026C413.633 370.091 417.899 371.157 422.293 372.256C421.582 368.589 420.862 364.954 420.068 361.31C419.278 357.527 418.79 353.784 418.383 349.942C416.959 337.443 416.959 337.443 409.759 327.63C404.731 324.015 399.225 321.287 393.618 318.696C389.276 316.624 385.222 314.168 381.094 311.693ZM167.831 322.191C166.42 326.124 165.493 330.056 164.644 334.136C164.502 334.805 164.361 335.473 164.216 336.162C163.92 337.567 163.625 338.972 163.332 340.378C162.882 342.532 162.427 344.684 161.971 346.837C161.683 348.205 161.396 349.574 161.109 350.942C160.973 351.586 160.837 352.229 160.696 352.892C160.186 355.352 159.752 357.623 159.752 360.143C162.575 359.317 165.07 358.33 167.6 356.85C168.476 356.338 169.352 355.826 170.254 355.298C170.158 351.492 170.058 347.685 169.953 343.879C169.918 342.586 169.885 341.293 169.852 340C169.805 338.133 169.754 336.267 169.702 334.401C169.688 333.83 169.675 333.258 169.661 332.67C169.557 329.11 169.202 325.699 168.638 322.191C168.372 322.191 168.105 322.191 167.831 322.191ZM426.332 394.865C426.658 399.93 427.058 404.858 428.263 409.795C428.919 412.495 429.49 415.211 430.068 417.93C430.279 418.913 430.489 419.897 430.706 420.91C430.862 421.642 431.018 422.374 431.179 423.128C431.712 423.128 432.245 423.128 432.795 423.128C432.267 417.74 431.417 412.49 430.371 407.18C430.228 406.438 430.084 405.695 429.936 404.931C429.285 401.573 428.62 398.219 427.948 394.865C427.415 394.865 426.882 394.865 426.332 394.865ZM407.752 444.123C407.752 444.656 407.752 445.189 407.752 445.738C410.005 446.572 410.877 446.582 413.205 445.788C413.805 445.505 414.405 445.222 415.023 444.93C415.023 444.664 415.023 444.397 415.023 444.123C412.624 444.123 410.224 444.123 407.752 444.123Z" fill="#FC973A"/>
<path d="M274.463 35.5298C275.262 36.3292 275.262 36.3292 276.078 37.1448C279.002 36.7913 281.792 35.8881 284.611 35.0504C285.454 34.8016 286.298 34.5528 287.167 34.2965C288.476 33.9077 288.476 33.9077 289.811 33.5111C291.544 32.9964 293.277 32.4832 295.011 31.9718C295.777 31.7444 296.542 31.5169 297.331 31.2826C303.99 29.4518 312.138 28.2283 318.59 31.24C321.698 33.1097 323.734 35.5192 325.355 38.7598C326.108 43.3568 325.368 45.7105 322.73 49.5601C316.407 57.5741 308.45 62.9029 299.707 67.9022C296.613 69.672 296.613 69.672 293.85 71.8671C293.499 73.683 293.499 73.683 293.767 75.7221C293.861 76.9036 293.861 76.9036 293.956 78.109C294.083 79.3943 294.083 79.3943 294.213 80.7054C294.287 81.5986 294.362 82.4917 294.438 83.4119C294.599 85.3309 294.767 87.2493 294.942 89.1671C295.394 94.1462 295.788 99.1299 296.188 104.113C296.309 105.588 296.309 105.588 296.432 107.093C297.073 115.047 297.539 122.99 297.788 130.966C297.847 132.505 297.847 132.505 297.907 134.075C298.175 144.119 297.09 152.629 290.366 160.439C289.292 161.364 289.292 161.364 288.195 162.307C287.74 162.704 287.285 163.102 286.816 163.512C283.606 166.139 281.077 167.376 277.037 168.363C274.717 169.023 274.717 169.023 272.847 170.382C271.747 173.108 271.363 175.666 270.941 178.573C269.127 189.484 262.311 200.126 253.459 206.719C261.561 214.575 268.057 216.409 279.309 216.409C279.843 206.283 280.376 196.157 280.925 185.724C281.192 185.724 281.458 185.724 281.733 185.724C283.596 195.732 283.368 208.277 280.117 218.024C271.745 218.426 264.423 218.697 257.776 212.933C256.394 211.628 255.039 210.293 253.721 208.924C251.959 207.333 251.959 207.333 249.789 207.466C246.987 208.691 246.136 209.703 244.573 212.371C244.221 215.477 244.425 218.525 244.611 221.639C244.652 222.544 244.692 223.449 244.734 224.382C244.866 227.277 245.022 230.17 245.179 233.063C245.32 235.94 245.455 238.817 245.59 241.693C245.676 243.481 245.765 245.269 245.86 247.056C246.139 252.458 246.245 257.835 246.189 263.244C246.735 263.235 247.281 263.227 247.843 263.219C252.483 263.157 256.936 263.458 261.537 264.051C261.537 264.318 261.537 264.584 261.537 264.859C258.862 264.882 256.186 264.896 253.51 264.909C252.746 264.916 251.982 264.923 251.195 264.93C250.469 264.932 249.743 264.935 248.994 264.937C247.985 264.944 247.985 264.944 246.956 264.95C245.381 264.859 245.381 264.859 244.573 264.051C244.455 262.836 244.389 261.615 244.346 260.394C244.302 259.225 244.302 259.225 244.256 258.032C244.228 257.181 244.199 256.329 244.169 255.453C244.137 254.579 244.104 253.705 244.07 252.804C243.965 249.992 243.865 247.18 243.765 244.368C243.666 241.585 243.565 238.802 243.461 236.019C243.396 234.285 243.334 232.552 243.275 230.818C243.077 225.455 242.691 220.133 242.15 214.794C241.72 215.248 241.29 215.703 240.847 216.172C235.824 221.442 230.624 226.056 223.065 226.452C217.091 226.348 213.676 223.48 209.582 219.38C204.608 213.744 200.982 207.364 198.528 200.259C198.206 199.329 198.206 199.329 197.878 198.381C196.477 193.339 197.214 190.486 199.642 185.92C200.24 184.873 200.24 184.873 200.85 183.806C204.475 177.425 205.552 172.865 204.99 165.537C204.907 164.192 204.907 164.192 204.823 162.82C204.571 159.014 204.258 155.215 203.949 151.413C203.458 145.07 203.279 138.791 203.375 132.429C202.525 132.379 201.675 132.329 200.8 132.278C196.637 131.391 194.909 129.455 192.621 125.969C191.95 124.021 192.028 122.365 192.065 120.317C191.488 120.414 190.911 120.511 190.316 120.612C182.227 121.92 174.112 122.77 165.963 123.597C163.91 123.808 161.857 124.019 159.805 124.231C158.54 124.361 157.275 124.491 156.009 124.619C152.133 125.016 148.269 125.474 144.404 125.969C142.659 114.198 141.155 102.414 139.809 90.5909C139.626 88.9954 139.443 87.3998 139.259 85.8043C138.817 81.9664 138.378 78.1281 137.941 74.2896C149.09 72.8355 160.247 71.5133 171.426 70.3206C172.792 70.1748 174.157 70.0278 175.522 69.8796C177.468 69.669 179.415 69.4631 181.362 69.2585C181.938 69.1956 182.515 69.1326 183.109 69.0677C186.921 68.6746 190.656 68.5843 194.489 68.6371C194.561 67.8367 194.634 67.0362 194.709 66.2115C195.223 62.6567 196.592 59.7474 198.225 56.5752C198.661 55.7211 198.661 55.7211 199.105 54.8498C201.372 50.5404 203.858 46.9614 207.414 43.6048C207.951 43.0614 208.488 42.5181 209.042 41.9582C226.059 25.6206 254.604 23.7505 274.463 35.5298Z" fill="#C68875"/>
<path d="M386.749 240.634C389.544 241.642 391.715 242.794 394.02 244.671C393.513 247.036 392.738 249 391.596 251.131C392.023 251.308 392.45 251.485 392.89 251.667C395.539 253.142 397.71 255.097 399.977 257.086C400.989 257.965 402.001 258.842 403.013 259.72C403.53 260.17 404.046 260.62 404.579 261.084C406.562 262.805 408.561 264.509 410.561 266.212C415.014 270.006 419.409 273.853 423.742 277.785C425.311 279.201 426.901 280.588 428.503 281.967C461.432 310.685 461.432 310.685 462.684 324.613C462.79 327.103 462.797 329.588 462.791 332.079C462.793 332.786 462.794 333.493 462.795 334.221C462.797 336.52 462.792 338.818 462.785 341.116C462.784 341.909 462.782 342.702 462.78 343.519C462.637 407.569 462.637 407.569 457.534 433.373C457.345 434.359 457.155 435.344 456.96 436.36C454.206 447.24 445.543 453.694 437.137 460.474C436.588 460.937 436.039 461.4 435.473 461.877C431.015 465.349 427.819 465.678 422.293 465.118C421.362 465.051 420.431 464.985 419.472 464.916C400.916 463.37 400.916 463.37 396.417 459.765C393.937 456.48 393.15 452.954 392.404 448.968C391.896 447.61 391.371 446.258 390.788 444.93C397.194 443.637 403.466 443.051 409.988 442.926C413.72 442.798 415.921 442.286 419.062 440.085C419.595 440.085 420.128 440.085 420.678 440.085C421.511 438.547 422.234 437.039 422.77 435.373C423.804 432.179 424.657 430.262 427.292 428.124C429.149 426.479 429.531 425.786 429.876 423.276C429.867 421.054 429.776 418.879 429.564 416.668C431.302 419.274 431.341 420.127 431.179 423.128C431.712 423.128 432.245 423.128 432.795 423.128C432.648 422.597 432.501 422.066 432.35 421.519C430.976 416.321 429.9 411.116 429.008 405.817C428.902 405.196 428.796 404.576 428.687 403.936C428.188 400.879 427.818 397.975 427.948 394.865C427.415 394.599 426.882 394.332 426.332 394.058C425.829 392.157 425.829 392.157 425.405 389.636C425.242 388.709 425.08 387.783 424.912 386.828C424.665 385.361 424.665 385.361 424.414 383.863C423.411 377.944 422.312 372.155 420.668 366.376C419.43 361.935 418.685 357.658 418.156 353.084C416.66 338.722 416.66 338.722 408.713 327.35C403.483 323.679 397.729 321.05 391.865 318.564C388.22 316.915 385.143 314.834 381.902 312.501C381.636 315.965 381.369 319.429 381.094 322.998C376.14 322.554 371.619 321.733 366.857 320.323C365.589 319.959 364.322 319.595 363.054 319.232C362.426 319.051 361.797 318.869 361.15 318.682C357.351 317.605 353.523 316.634 349.7 315.646C347.426 314.997 345.312 314.203 343.127 313.308C343.224 313.801 343.32 314.293 343.42 314.8C344.848 322.637 345.545 330.526 346.245 338.456C346.457 340.843 346.681 343.229 346.904 345.614C347.763 355.061 348.174 364.386 347.974 373.871C346.908 373.871 345.841 373.871 344.743 373.871C344.747 374.527 344.751 375.183 344.756 375.859C344.772 378.813 344.783 381.767 344.793 384.721C344.8 385.754 344.807 386.787 344.814 387.852C344.816 388.833 344.819 389.814 344.822 390.825C344.826 391.734 344.83 392.643 344.834 393.58C344.743 395.673 344.743 395.673 343.935 396.48C342.746 396.675 341.549 396.817 340.35 396.935C339.701 397.002 339.053 397.07 338.384 397.14C334.848 397.347 331.32 397.315 327.779 397.288C327.506 394.428 327.238 391.568 326.971 388.708C326.894 387.902 326.817 387.095 326.737 386.264C326.664 385.478 326.591 384.692 326.516 383.882C326.449 383.163 326.381 382.444 326.311 381.704C326.152 379.356 326.139 377.031 326.163 374.678C325.57 374.727 324.977 374.776 324.366 374.826C313.374 375.721 302.461 376.597 291.427 376.293C290.672 372.309 290.373 368.391 290.156 364.352C290.117 363.656 290.077 362.959 290.037 362.242C289.907 359.95 289.782 357.659 289.656 355.368C289.567 353.771 289.478 352.174 289.388 350.578C289.201 347.237 289.016 343.896 288.832 340.555C288.597 336.272 288.358 331.989 288.118 327.706C287.933 324.412 287.75 321.117 287.567 317.822C287.479 316.243 287.391 314.663 287.303 313.084C287.18 310.879 287.059 308.673 286.938 306.468C286.901 305.815 286.865 305.162 286.827 304.49C286.679 301.77 286.58 299.075 286.58 296.351C292.718 296.032 298.856 295.716 304.994 295.403C307.846 295.258 310.697 295.112 313.548 294.963C316.839 294.792 320.13 294.625 323.421 294.458C324.427 294.405 325.433 294.352 326.469 294.298C332.836 293.979 339.176 293.866 345.551 293.928C345.781 293.444 346.012 292.959 346.25 292.459C347.551 289.959 349.3 287.844 351.054 285.652C351.443 285.161 351.832 284.67 352.232 284.165C355.683 279.823 359.193 275.528 362.702 271.233C366.055 267.117 369.294 262.93 372.511 258.708C375.481 254.849 378.578 251.091 381.669 247.329C382.096 246.808 382.523 246.287 382.963 245.75C383.533 245.057 383.533 245.057 384.114 244.351C385.054 243.157 385.907 241.897 386.749 240.634ZM407.752 444.123C407.752 444.656 407.752 445.189 407.752 445.738C410.005 446.572 410.877 446.582 413.205 445.788C413.805 445.505 414.405 445.222 415.023 444.93C415.023 444.664 415.023 444.397 415.023 444.123C412.624 444.123 410.224 444.123 407.752 444.123Z" fill="#C88A76"/>
<path d="M343.127 313.308C346.325 313.913 349.462 314.68 352.613 315.494C353.395 315.696 353.395 315.696 354.193 315.902C355.297 316.187 356.401 316.473 357.504 316.759C359.149 317.186 360.794 317.611 362.439 318.035C373.543 320.904 384.616 323.856 395.635 327.036C396.435 333.031 396.435 333.031 397.251 339.148C398.55 339.398 399.85 339.648 401.189 339.905C405.127 340.662 405.127 340.662 406.945 341.571C407.351 343.4 407.351 343.4 407.633 345.81C407.789 347.123 407.789 347.123 407.948 348.463C408.05 349.386 408.152 350.309 408.257 351.261C408.366 352.159 408.474 353.057 408.586 353.983C409.169 359.033 409.487 363.943 409.368 369.026C410.224 369.191 411.08 369.357 411.962 369.527C413.083 369.747 414.205 369.966 415.326 370.186C416.172 370.349 416.172 370.349 417.036 370.516C421.302 371.357 421.302 371.357 423.101 372.256C423.555 373.747 423.555 373.747 423.909 375.709C424.041 376.434 424.174 377.159 424.31 377.906C424.444 378.689 424.578 379.473 424.717 380.28C424.858 381.079 425 381.877 425.145 382.7C426.123 388.374 426.855 394.046 427.422 399.775C427.713 402.66 428.072 405.433 428.806 408.24C430.183 414.022 432.117 422.262 429.245 427.673C427.746 429.285 427.746 429.285 426.149 430.695C424.627 432.092 424.097 433.068 423.404 434.988C421.974 438.431 420.011 440.519 416.926 442.593C414.127 443.655 411.316 443.633 408.358 443.719C403.939 443.856 399.627 444.224 395.246 444.838C385.311 446.138 375.299 446.688 365.307 447.369C362.423 447.566 359.54 447.767 356.656 447.967C351.824 448.302 346.991 448.634 342.158 448.964C336.591 449.345 331.023 449.73 325.457 450.118C320.067 450.493 314.677 450.865 309.287 451.235C307.007 451.392 304.728 451.55 302.448 451.709C299.263 451.93 296.078 452.147 292.893 452.364C291.96 452.429 291.028 452.494 290.067 452.562C278.921 453.31 278.921 453.31 274.463 453.005C272.916 451.459 273.2 448.726 272.983 446.659C272.921 446.08 272.859 445.501 272.795 444.904C272.661 443.643 272.528 442.382 272.397 441.12C272.19 439.124 271.978 437.129 271.765 435.134C271.314 430.897 270.869 426.659 270.423 422.421C269.908 417.517 269.389 412.614 268.867 407.71C268.659 405.743 268.453 403.775 268.248 401.807C268.12 400.602 267.992 399.396 267.864 398.19C267.754 397.137 267.643 396.083 267.529 394.997C267.272 392.428 267.272 392.428 266.384 390.02C266.328 387.943 266.309 385.889 266.334 383.813C266.338 383.246 266.341 382.679 266.345 382.095C266.354 380.7 266.369 379.304 266.384 377.908C272.747 377.483 279.11 377.062 285.473 376.645C288.428 376.451 291.384 376.256 294.339 376.058C297.199 375.867 300.059 375.679 302.919 375.493C304.524 375.387 306.129 375.279 307.735 375.17C313.888 374.773 319.997 374.588 326.163 374.678C326.438 376.932 326.706 379.186 326.971 381.441C327.048 382.066 327.125 382.692 327.204 383.337C327.753 388.081 327.779 392.441 327.779 397.288C335.776 396.488 335.776 396.488 343.935 395.673C344.201 388.478 344.468 381.283 344.743 373.871C345.809 373.871 346.875 373.871 347.974 373.871C347.127 362.003 346.226 350.141 345.256 338.283C345.149 336.976 345.044 335.67 344.94 334.363C344.792 332.518 344.64 330.673 344.487 328.827C344.422 327.996 344.422 327.996 344.355 327.148C344.156 324.804 343.875 322.82 343.127 320.576C343.073 319.315 343.058 318.052 343.077 316.791C343.084 316.138 343.091 315.485 343.099 314.813C343.108 314.316 343.117 313.82 343.127 313.308Z" fill="#FD8413"/>
<path d="M302.736 205.104C303.536 205.504 303.536 205.504 304.352 205.911C297.586 226.357 290.445 246.692 280.117 265.666C279.618 266.585 279.618 266.585 279.108 267.522C271.986 280.492 263.342 296.17 249.42 302.811C248.887 302.811 248.354 302.811 247.805 302.811C247.918 304.275 248.037 305.738 248.158 307.202C248.224 308.017 248.289 308.832 248.357 309.671C248.396 311.642 248.396 311.642 249.42 312.501C251.363 312.625 253.139 312.62 255.075 312.501C255.698 312.465 256.32 312.43 256.962 312.394C263.437 311.597 266.75 308.084 271.231 303.618C272.555 302.434 273.884 301.256 275.22 300.086C279.716 296.049 283.96 291.775 288.195 287.468C288.195 289.891 288.195 289.891 286.789 291.584C286.143 292.223 285.497 292.861 284.832 293.518C284.125 294.221 283.417 294.924 282.689 295.648C281.94 296.379 281.192 297.111 280.42 297.865C279.69 298.59 278.96 299.316 278.208 300.064C274.658 303.571 271.102 306.975 267.192 310.078C268.467 310.353 268.467 310.353 269.767 310.634C273.004 311.566 274.777 313.064 276.886 315.731C277.65 317.966 277.908 319.145 277.138 321.383C277.013 322.183 277.013 322.183 276.886 322.998C277.686 323.898 277.686 323.898 278.502 324.815C280.117 327.036 280.117 327.036 280.07 328.644C279.969 329.213 279.868 329.781 279.764 330.367C279.614 331.399 279.464 332.432 279.309 333.496C280.454 334.774 280.454 334.774 281.733 335.918C282.036 338.744 282.036 338.744 281.733 341.571C280.925 342.378 280.117 343.186 279.309 343.993C279.493 344.709 279.676 345.425 279.865 346.163C280.2 349.712 279.212 350.949 277.058 353.684C273.412 356.977 268.668 358.127 264.062 359.588C262.061 360.258 260.061 360.927 258.06 361.597C257.177 361.882 256.294 362.166 255.385 362.459C254.483 362.761 253.581 363.062 252.651 363.373C252.148 363.534 251.645 363.694 251.127 363.86C246.626 365.397 242.964 367.722 239.067 370.417C238.39 370.876 237.713 371.336 237.016 371.809C234.802 373.315 232.594 374.829 230.386 376.343C228.054 377.931 225.721 379.517 223.388 381.102C221.792 382.187 220.196 383.272 218.601 384.358C210.532 389.85 202.414 395.266 194.287 400.669C192.393 401.929 190.499 403.19 188.606 404.45C187.419 405.239 186.232 406.028 185.044 406.816C182.203 408.702 179.369 410.597 176.546 412.509C176.001 412.877 175.456 413.244 174.895 413.623C173.882 414.307 172.87 414.994 171.861 415.685C161.973 422.347 151.386 424.955 139.557 423.935C126.6 421.345 117.693 414.548 110.476 403.748C101.33 389.738 103.682 373.079 106.664 357.651C106.936 356.201 107.208 354.751 107.479 353.3C108.187 349.521 108.907 345.743 109.63 341.967C110.369 338.097 111.095 334.225 111.823 330.354C113.247 322.786 114.686 315.22 116.13 307.656C112.132 306.324 108.133 304.991 104.013 303.618C104.813 301.22 105.612 298.822 106.436 296.351C115.612 298.453 124.715 300.744 133.795 303.224C135.037 303.562 136.28 303.899 137.522 304.236C140.092 304.935 142.662 305.634 145.232 306.335C148.524 307.233 151.817 308.129 155.111 309.023C158.272 309.882 161.432 310.742 164.593 311.602C165.192 311.765 165.791 311.928 166.408 312.095C168.095 312.554 169.782 313.014 171.469 313.475C172.426 313.736 173.384 313.997 174.371 314.266C175.972 314.715 177.562 315.205 179.14 315.731C178.34 318.662 177.541 321.593 176.717 324.613C172.318 323.814 172.318 323.814 167.831 322.998C167.615 324.037 167.399 325.077 167.176 326.147C166.375 329.999 165.572 333.849 164.769 337.7C164.421 339.368 164.074 341.035 163.727 342.703C163.229 345.098 162.73 347.493 162.23 349.889C162.075 350.636 161.92 351.383 161.76 352.152C161.615 352.847 161.469 353.542 161.319 354.258C161.192 354.87 161.065 355.481 160.933 356.111C160.56 357.721 160.56 357.721 159.752 360.143C160.498 359.77 161.244 359.398 162.012 359.014C162.511 358.764 163.011 358.514 163.526 358.257C164.668 357.686 165.81 357.115 166.952 356.544C170.164 354.937 173.377 353.335 176.594 351.74C187.198 346.486 187.198 346.486 197.649 340.934C201.4 338.894 205.185 337.079 209.114 335.416C223.692 329.914 223.692 329.914 233.658 318.895C236.551 309.539 235.677 300.49 234.021 291.001C233.807 289.762 233.807 289.762 233.589 288.497C233.482 287.891 233.374 287.285 233.264 286.661C239.057 286.17 239.057 286.17 241.998 288.326C245.205 292.631 246.455 296.696 246.997 302.003C262.443 293.028 270.379 279.4 278.502 264.051C278.788 263.511 279.074 262.971 279.369 262.414C288.966 244.147 296.28 224.676 302.736 205.104Z" fill="#C78875"/>
<path d="M274.463 35.5298C275.262 36.3292 275.262 36.3292 276.078 37.1448C279.002 36.7913 281.792 35.8881 284.611 35.0504C285.454 34.8016 286.298 34.5528 287.167 34.2965C288.476 33.9077 288.476 33.9077 289.811 33.5111C291.544 32.9964 293.277 32.4832 295.011 31.9718C295.777 31.7444 296.542 31.5169 297.331 31.2826C303.99 29.4518 312.138 28.2283 318.59 31.24C321.698 33.1097 323.734 35.5192 325.355 38.7598C326.108 43.3568 325.368 45.7105 322.73 49.5601C315.368 58.8903 304.284 66.9656 293.042 71.0596C292.884 70.5912 292.726 70.1228 292.563 69.6402C290.308 63.7537 287.274 60.9785 281.739 58.1145C271.388 53.8975 260.221 56.8475 250.329 60.7641C240.525 65.0162 231.376 70.4743 222.6 76.551C221.147 77.5196 221.147 77.5196 218.695 78.7687C216.302 81.7548 216.923 84.3585 217.248 88.0628C217.403 89.4641 217.403 89.4641 217.562 90.8938C217.644 91.8061 217.725 92.7185 217.81 93.6585C218.292 98.7401 219.042 103.713 220.002 108.725C220.402 110.986 220.581 113.176 220.591 115.472C220.605 116.188 220.618 116.904 220.632 117.642C220.339 119.509 220.339 119.509 219.285 120.945C216.91 122.656 215.068 122.375 212.261 121.932C209.839 119.31 208.884 116.708 207.919 113.352C207.026 110.441 206.661 109.865 204.182 107.801C201.807 106.542 201.807 106.542 199.335 105.782C198.569 104.404 198.569 104.404 197.972 102.703C197.769 102.149 197.566 101.594 197.357 101.022C196.912 99.322 196.912 99.322 196.912 96.092C196.446 95.8755 195.979 95.659 195.498 95.4359C193.653 94.4625 192.102 93.3212 190.449 92.0545C189.134 93.3474 187.822 94.6433 186.511 95.9406C185.78 96.662 185.049 97.3833 184.296 98.1265C182.292 100.094 182.292 100.094 180.756 102.552C176.325 101.503 173.237 99.1528 169.664 96.4642C167.854 95.066 167.854 95.066 165.407 95.2845C163.979 97.344 162.716 99.3758 161.469 101.543C160.683 102.866 159.895 104.189 159.106 105.511C158.481 106.559 158.481 106.559 157.845 107.628C155.569 111.396 153.201 115.103 150.816 118.803C150.364 119.516 149.911 120.228 149.445 120.963C149.022 121.618 148.598 122.273 148.162 122.948C147.6 123.824 147.6 123.824 147.026 124.717C146.694 125.131 146.362 125.544 146.02 125.969C145.486 125.969 144.953 125.969 144.404 125.969C142.659 114.198 141.155 102.414 139.809 90.5909C139.626 88.9954 139.443 87.3998 139.259 85.8043C138.817 81.9664 138.378 78.1281 137.941 74.2896C149.09 72.8355 160.247 71.5133 171.426 70.3207C172.792 70.1748 174.157 70.0278 175.522 69.8796C177.468 69.669 179.415 69.4631 181.362 69.2585C181.938 69.1956 182.515 69.1326 183.109 69.0677C186.921 68.6746 190.656 68.5843 194.489 68.6372C194.561 67.8367 194.634 67.0362 194.709 66.2115C195.223 62.6567 196.592 59.7474 198.225 56.5752C198.661 55.7211 198.661 55.7211 199.105 54.8498C201.372 50.5404 203.858 46.9614 207.414 43.6048C207.951 43.0614 208.488 42.5181 209.042 41.9583C226.059 25.6206 254.604 23.7505 274.463 35.5298Z" fill="#C55D04"/>
<path d="M420.677 56.5247C429.367 62.7594 435.412 72.5483 438.011 82.8661C440.04 95.4881 438.503 108.623 431.001 119.297C429.908 120.687 428.785 122.044 427.645 123.395C423.844 128.021 420.219 132.742 416.689 137.577C412.901 142.749 409.098 147.909 405.228 153.02C404.798 153.595 404.368 154.17 403.925 154.763C399.076 161.137 399.076 161.137 395.487 161.849C394.886 161.85 394.285 161.851 393.666 161.852C393.067 161.868 392.469 161.884 391.852 161.9C386.607 160.777 383.756 155.544 380.842 151.456C379.841 150.073 378.838 148.692 377.835 147.311C377.313 146.593 376.791 145.874 376.253 145.134C373.545 141.447 370.753 137.824 367.967 134.196C352.595 114.077 352.595 114.077 350.397 107.397C350.218 106.878 350.039 106.358 349.855 105.823C346.605 94.2991 348.521 81.5995 353.932 71.1605C360.443 59.7803 369.972 52.899 382.568 49.1437C395.915 46.0152 409.326 49.1552 420.677 56.5247ZM379.479 79.9421C375.306 85.4177 374.092 90.0597 374.632 96.8995C375.661 102.184 378.479 105.774 382.71 109.012C387.373 111.895 391.804 113.036 397.251 112.242C402.513 110.989 406.645 108.53 409.756 104.066C412.769 98.8025 413.469 94.0057 412.599 88.017C411.136 82.6825 407.497 78.8553 402.905 75.9046C394.196 72.3151 386.343 73.1109 379.479 79.9421Z" fill="#F0525F"/>
<path d="M359.355 292.399C362.425 292.051 364.334 292.218 367.362 293.121C371.363 296.412 374.167 300.794 376.834 305.185C377.941 307.032 377.941 307.032 379.753 309.347C381.44 312.299 381.424 314.276 381.296 317.649C381.267 318.654 381.238 319.66 381.208 320.696C381.171 321.456 381.133 322.215 381.094 322.998C376.14 322.554 371.619 321.733 366.857 320.323C365.589 319.959 364.322 319.595 363.054 319.232C362.426 319.051 361.797 318.869 361.15 318.682C357.351 317.605 353.523 316.634 349.7 315.646C347.426 314.997 345.312 314.203 343.127 313.308C343.224 313.801 343.32 314.293 343.42 314.8C344.848 322.637 345.545 330.526 346.245 338.456C346.457 340.843 346.681 343.229 346.904 345.615C347.763 355.062 348.174 364.386 347.974 373.871C346.908 373.871 345.841 373.871 344.743 373.871C344.747 374.527 344.751 375.183 344.756 375.859C344.772 378.813 344.783 381.767 344.793 384.721C344.8 385.754 344.807 386.787 344.814 387.852C344.816 388.833 344.819 389.814 344.822 390.825C344.826 391.734 344.83 392.643 344.834 393.58C344.743 395.673 344.743 395.673 343.935 396.48C342.746 396.675 341.549 396.817 340.35 396.935C339.701 397.002 339.053 397.07 338.384 397.14C334.848 397.347 331.32 397.315 327.779 397.288C327.506 394.428 327.238 391.568 326.971 388.708C326.894 387.902 326.817 387.095 326.737 386.264C326.628 385.085 326.628 385.085 326.516 383.882C326.449 383.163 326.381 382.444 326.311 381.704C326.152 379.356 326.139 377.031 326.163 374.678C325.57 374.727 324.977 374.776 324.366 374.826C313.374 375.721 302.461 376.597 291.427 376.293C290.672 372.309 290.373 368.391 290.156 364.352C290.117 363.656 290.077 362.959 290.037 362.242C289.907 359.95 289.782 357.659 289.656 355.368C289.567 353.771 289.478 352.174 289.388 350.578C289.201 347.237 289.016 343.896 288.832 340.555C288.597 336.272 288.358 331.989 288.118 327.706C287.933 324.412 287.75 321.117 287.567 317.822C287.479 316.243 287.391 314.663 287.303 313.084C287.18 310.879 287.059 308.673 286.938 306.468C286.901 305.815 286.865 305.162 286.827 304.49C286.679 301.77 286.58 299.076 286.58 296.351C292.578 296.048 298.577 295.746 304.576 295.445C307.364 295.305 310.151 295.165 312.939 295.024C316.17 294.861 319.401 294.699 322.632 294.537C323.691 294.484 324.75 294.431 325.841 294.376C330.734 294.132 335.628 293.899 340.523 293.701C341.363 293.667 342.204 293.633 343.069 293.598C344.602 293.537 346.134 293.479 347.667 293.424C351.6 293.268 355.456 292.949 359.355 292.399Z" fill="#8F46A3"/>
<path d="M56.3518 132.429C63.7738 133.122 71.1309 134.638 78.437 136.081C79.4472 136.278 80.4574 136.475 81.4982 136.678C84.2285 137.211 86.9581 137.747 89.6876 138.284C92.5549 138.848 95.423 139.408 98.2909 139.969C103.704 141.028 109.116 142.089 114.529 143.152C120.698 144.363 126.868 145.571 133.038 146.778C145.713 149.259 158.388 151.744 171.062 154.232C172.214 157.685 171.124 160.528 170.305 163.972C168.779 170.586 167.442 177.21 166.234 183.888C166.026 185.026 166.026 185.026 165.814 186.186C164.967 190.821 164.967 190.821 164.144 195.46C163.759 197.662 163.359 199.861 162.955 202.06C162.788 203.06 162.788 203.06 162.616 204.079C161.922 207.778 161.29 210.014 158.137 212.371C155.701 213.57 155.701 213.57 153.088 214.592C152.217 214.938 151.347 215.283 150.45 215.639C149.788 215.893 149.125 216.147 148.443 216.409C146.175 212.116 143.913 207.82 141.655 203.521C140.755 201.808 139.854 200.096 138.952 198.385C137.501 195.63 136.055 192.872 134.609 190.115C134.14 189.226 133.672 188.338 133.189 187.423C132.539 186.181 132.539 186.181 131.876 184.913C131.488 184.174 131.099 183.434 130.699 182.672C129.863 180.879 129.863 180.879 129.863 179.264C130.362 178.997 130.86 178.73 131.374 178.454C143.088 172.165 154.706 165.735 166.215 159.077C151.41 166.269 136.922 174.136 122.542 182.141C121.968 182.46 121.394 182.779 120.802 183.108C118.312 184.496 115.831 185.897 113.36 187.32C112.558 187.776 111.756 188.232 110.93 188.702C110.265 189.088 109.599 189.474 108.914 189.872C107.244 190.569 107.244 190.569 104.821 189.761C103.659 188.477 102.556 187.138 101.489 185.774C99.0444 182.711 96.5618 179.733 93.9153 176.842C90.7496 173.369 87.7826 169.769 84.8274 166.117C82.4889 163.293 80.0242 160.596 77.5539 157.887C75.6894 155.79 73.9173 153.639 72.1547 151.456C67.9421 146.252 63.5129 141.203 58.7753 136.467C62.6028 141.181 66.4607 145.865 70.3876 150.497C70.7568 150.933 71.1259 151.368 71.5063 151.817C73.4337 154.088 75.3657 156.355 77.3014 158.619C81.2446 163.241 85.0939 167.884 88.6645 172.804C88.0564 173.265 87.4482 173.726 86.8217 174.201C79.9962 179.401 73.3265 184.776 66.6807 190.202C64.7789 191.75 62.8641 193.281 60.9463 194.808C54.4511 199.991 48.017 205.228 41.8111 210.756C41.0892 208.392 40.977 206.742 41.4527 204.323C41.6328 203.381 41.6328 203.381 41.8166 202.419C41.9542 201.737 42.0918 201.055 42.2335 200.353C42.3739 199.629 42.5144 198.905 42.659 198.16C43.1249 195.768 43.6006 193.378 44.0768 190.989C44.4025 189.33 44.7277 187.671 45.0524 186.011C45.7342 182.536 46.4205 179.061 47.1104 175.587C47.9966 171.124 48.8739 166.66 49.7482 162.194C50.4192 158.77 51.0935 155.346 51.769 151.922C52.0937 150.275 52.4177 148.629 52.741 146.982C53.1924 144.686 53.6479 142.391 54.1047 140.097C54.239 139.41 54.3733 138.723 54.5117 138.016C55.4515 133.329 55.4515 133.329 56.3518 132.429Z" fill="#CDCDCD"/>
<path d="M88.6645 173.612C91.9053 176.19 94.5635 178.724 97.1466 181.989C99.9129 185.447 102.728 188.838 105.629 192.184C112.428 188.824 119.195 185.458 125.793 181.712C127.44 180.879 127.44 180.879 129.055 180.879C131.476 185.677 133.891 190.478 136.303 195.28C137.125 196.915 137.948 198.549 138.772 200.182C139.954 202.526 141.132 204.871 142.309 207.217C142.68 207.951 143.051 208.684 143.433 209.44C143.773 210.119 144.112 210.798 144.462 211.497C144.764 212.096 145.065 212.695 145.376 213.312C146.02 214.794 146.02 214.794 146.02 216.409C146.553 216.675 147.086 216.942 147.635 217.216C146.973 217.491 146.311 217.766 145.628 218.049C139.61 220.608 139.61 220.608 135.72 225.594C135.387 226.56 135.053 227.526 134.71 228.521C125.051 227.168 115.496 225.295 105.922 223.449C104.629 223.201 104.629 223.201 103.311 222.947C98.7672 222.073 94.2242 221.197 89.6815 220.318C84.9877 219.411 80.2925 218.512 75.5969 217.614C71.9807 216.921 68.3657 216.223 64.751 215.523C63.0189 215.189 61.2863 214.857 59.5534 214.527C57.1432 214.067 54.7346 213.599 52.3263 213.13C51.6083 212.995 50.8904 212.86 50.1507 212.721C45.2267 211.748 45.2267 211.748 43.4267 209.949C44.0931 209.429 44.7596 208.91 45.4462 208.375C51.2942 203.805 57.0858 199.174 62.8356 194.482C66.3658 191.606 69.9272 188.776 73.5179 185.976C78.6615 181.965 83.6799 177.819 88.6645 173.612Z" fill="#CECECE"/>
<path d="M343.127 313.308C346.325 313.913 349.462 314.68 352.613 315.494C353.395 315.696 353.395 315.696 354.193 315.902C355.297 316.187 356.401 316.473 357.504 316.759C359.149 317.186 360.794 317.611 362.439 318.035C373.543 320.904 384.616 323.856 395.635 327.036C396.435 333.031 396.435 333.031 397.251 339.148C398.55 339.398 399.85 339.648 401.189 339.905C405.127 340.662 405.127 340.662 406.945 341.571C407.35 343.4 407.35 343.4 407.632 345.81C407.789 347.123 407.789 347.123 407.948 348.463C408.05 349.386 408.152 350.309 408.257 351.261C408.366 352.159 408.474 353.057 408.585 353.983C409.169 359.033 409.487 363.943 409.368 369.026C408.422 369.08 408.422 369.08 407.457 369.135C404.391 369.314 401.326 369.496 398.261 369.682C397.693 369.716 397.126 369.75 396.541 369.786C385.691 370.45 374.864 371.322 364.036 372.283C363.443 372.335 362.85 372.387 362.238 372.44C360.635 372.58 359.032 372.723 357.429 372.866C354.261 373.075 351.148 373.096 347.974 373.063C347.909 372.178 347.844 371.292 347.777 370.38C346.314 350.188 346.314 350.188 344.642 330.013C344.55 328.962 344.55 328.962 344.457 327.89C344.22 325.318 343.947 323.036 343.127 320.576C343.073 319.315 343.058 318.052 343.077 316.791C343.084 316.138 343.091 315.485 343.099 314.813C343.108 314.316 343.117 313.82 343.127 313.308Z" fill="#DD4F5B"/>
<path d="M320.063 32.1263C323.371 34.7169 325.14 37.443 325.809 41.5356C325.688 47.637 320.858 52.1865 316.731 56.2093C309.824 62.2263 301.7 67.9068 293.042 71.0596C292.805 70.357 292.805 70.357 292.563 69.6402C290.308 63.7537 287.274 60.9784 281.739 58.1145C271.388 53.8975 260.221 56.8475 250.329 60.7641C234.412 67.6676 219.864 77.7404 206.426 88.6227C204.99 89.632 204.99 89.632 203.375 89.632C204.782 86.4338 206.724 83.3785 209.029 80.7496C209.563 80.7496 210.096 80.7496 210.645 80.7496C210.828 80.3041 211.012 79.8586 211.2 79.3995C212.573 76.9649 214.319 75.2487 216.3 73.2802C217.016 72.5599 217.733 71.8396 218.471 71.0975C220.339 69.4446 220.339 69.4446 221.954 69.4446C221.954 68.9117 221.954 68.3787 221.954 67.8296C223.789 66.2696 225.626 64.8192 227.559 63.3884C228.142 62.9561 228.725 62.5238 229.327 62.0784C243.895 51.4677 260.128 44.3754 276.886 37.9523C277.624 37.665 278.363 37.3777 279.123 37.0817C309.333 25.6726 309.333 25.6726 320.063 32.1263Z" fill="#FE7C21"/>
<path d="M463.643 149.841C468.691 153.91 471.948 159.741 473.037 166.117C473.865 176.395 469.302 183.566 463.189 191.427C462.666 192.11 462.143 192.794 461.605 193.498C460.576 194.843 459.543 196.185 458.507 197.525C456.694 199.889 454.933 202.29 453.184 204.702C451.663 206.538 450.642 206.709 448.27 207.012C445.72 206.719 445.72 206.719 443.877 205.139C442.99 203.997 442.99 203.997 442.085 202.833C441.754 202.412 441.424 201.991 441.084 201.557C440.342 200.603 439.608 199.641 438.881 198.675C437.502 196.844 436.096 195.036 434.691 193.225C433.67 191.887 432.651 190.547 431.634 189.206C431.146 188.574 430.659 187.942 430.157 187.291C424.906 180.233 422.895 173.542 423.909 164.729C425.502 158.161 429.046 152.739 434.663 148.926C443.977 143.566 454.643 143.837 463.643 149.841ZM439.409 164.073C438.154 167.043 437.907 169.659 438.449 172.804C440.012 176.116 441.225 177.387 444.407 179.214C447.595 180.148 449.054 180.329 452.182 179.264C456.376 176.353 456.376 176.353 458.645 171.997C458.56 166.733 457.505 164.397 453.798 160.692C448.632 158.11 442.942 159.81 439.409 164.073Z" fill="#F0525F"/>
<path d="M373.824 332.688C375.701 333.073 377.527 333.512 379.378 334C379.945 334.147 380.513 334.293 381.097 334.443C382.328 334.761 383.558 335.082 384.788 335.404C386.808 335.934 388.83 336.456 390.851 336.978C392.21 337.331 393.569 337.684 394.928 338.038C395.569 338.204 396.209 338.37 396.869 338.541C400.273 339.436 403.617 340.412 406.945 341.571C407.356 344.783 407.757 347.996 408.156 351.21C408.272 352.112 408.388 353.014 408.507 353.943C409.132 359.016 409.498 363.915 409.368 369.026C405.82 369.259 402.272 369.488 398.723 369.716C397.519 369.793 396.315 369.871 395.111 369.951C388.819 370.364 382.557 370.754 376.248 370.641C376.248 370.108 376.248 369.575 376.248 369.026C376.781 369.026 377.314 369.026 377.863 369.026C378.13 367.693 378.396 366.361 378.671 364.988C377.871 366.054 377.072 367.12 376.248 368.218C375.011 360.334 374.198 352.512 373.673 344.548C373.596 343.489 373.52 342.43 373.441 341.339C373.373 340.336 373.304 339.333 373.234 338.3C373.172 337.395 373.111 336.49 373.047 335.558C373.037 334.877 373.027 334.197 373.016 333.496C373.283 333.229 373.549 332.963 373.824 332.688Z" fill="#F3939E"/>
<path d="M406.945 369.026C412.564 369.486 417.7 370.651 423.101 372.255C424.871 381.403 426.505 390.499 427.422 399.774C427.713 402.66 428.072 405.433 428.806 408.24C430.183 414.022 432.116 422.262 429.245 427.673C427.746 429.285 427.746 429.285 426.149 430.695C424.627 432.092 424.097 433.068 423.404 434.988C422.15 438.007 420.731 439.595 418.254 441.7C417.054 442.1 417.054 442.1 415.831 442.508C414.67 433.404 413.511 424.3 412.355 415.196C411.818 410.968 411.28 406.741 410.741 402.514C410.221 398.436 409.703 394.357 409.186 390.278C408.988 388.721 408.789 387.164 408.59 385.607C408.312 383.429 408.036 381.25 407.76 379.071C407.677 378.426 407.594 377.781 407.509 377.116C407.166 374.386 406.945 371.782 406.945 369.026Z" fill="#6B2C01"/>
<path d="M205.798 174.419C207.466 176.919 208.655 179.424 209.938 182.141C214.858 192.11 221.32 199.612 231.954 203.741C234.531 204.553 237.104 205.264 239.726 205.911C240.419 206.093 241.111 206.274 241.825 206.46C243.275 206.834 244.731 207.184 246.189 207.526C243.461 214.125 235.835 220.317 229.667 223.705C226.053 225.073 222.49 225.342 218.723 224.484C207.641 218.121 202.093 207.073 197.972 195.464C197.214 190.463 199.634 186.193 201.759 181.838C202.057 181.212 202.355 180.586 202.661 179.941C204.86 175.357 204.86 175.357 205.798 174.419Z" fill="#FE7C21"/>
<path d="M190.45 91.247C194.533 93.6323 197.134 95.6402 198.528 100.281C199.075 102.506 199.335 104.288 199.335 106.589C198.586 106.839 197.836 107.089 197.064 107.346C193.472 109.669 192.996 112.249 192.065 116.279C191.794 117.625 191.524 118.971 191.257 120.317C183.539 121.757 175.788 122.629 167.983 123.434C165.899 123.649 163.815 123.871 161.731 124.093C160.392 124.233 159.053 124.373 157.714 124.512C156.79 124.61 156.79 124.61 155.847 124.711C152.556 125.046 149.327 125.229 146.02 125.162C146.325 124.689 146.63 124.217 146.944 123.73C150.087 118.83 153.144 113.885 156.168 108.911C159.14 104.025 162.147 99.1791 165.407 94.477C168.713 94.9897 171.237 96.7867 173.99 98.5649C177.133 100.852 177.133 100.852 180.756 101.744C182.078 100.438 182.078 100.438 183.432 98.7668C185.671 96.1299 187.966 93.654 190.45 91.247Z" fill="#B1B2B2"/>
<path d="M193.681 68.6371C195.154 71.5834 194.707 75.0325 194.741 78.2766C194.776 79.3906 194.776 79.3906 194.812 80.5272C194.819 81.2407 194.826 81.9543 194.833 82.6894C194.844 83.3431 194.856 83.9967 194.868 84.6701C194.489 86.402 194.489 86.402 192.952 87.8453C191.257 88.8245 191.257 88.8245 189.642 88.8245C189.46 89.2617 189.279 89.6989 189.093 90.1493C187.694 92.6483 185.832 94.6217 183.886 96.6976C183.319 97.3112 183.319 97.3112 182.741 97.9372C181.813 98.9402 180.881 99.939 179.948 100.937C174.898 98.3379 170.184 95.2937 165.479 92.1253C161.46 89.4185 157.411 86.7607 153.34 84.131C152.787 83.7727 152.233 83.4145 151.663 83.0455C148.39 80.9324 145.097 78.8523 141.786 76.7982C140.491 75.9837 139.215 75.1382 137.941 74.2896C149.102 72.8199 160.277 71.512 171.471 70.3206C172.842 70.1746 174.213 70.0276 175.583 69.8796C177.535 69.6694 179.488 69.4633 181.44 69.2585C182.312 69.1641 182.312 69.1641 183.201 69.0677C186.721 68.7048 190.149 68.5803 193.681 68.6371Z" fill="#B1B1B2"/>
<path d="M403.713 407.785C404.061 410.931 404.406 414.077 404.749 417.224C404.923 418.817 405.099 420.41 405.275 422.003C405.439 423.514 405.439 423.514 405.607 425.055C405.708 425.981 405.81 426.907 405.914 427.861C406.108 430.071 406.18 432.217 406.137 434.433C402.519 434.843 398.901 435.244 395.282 435.644C394.264 435.759 393.246 435.875 392.197 435.994C386.844 436.581 381.633 436.996 376.248 436.855C375.969 434.686 375.702 432.516 375.44 430.345C375.363 429.753 375.286 429.161 375.206 428.552C374.484 422.44 374.558 416.352 374.632 410.208C378.514 409.862 382.396 409.517 386.278 409.173C387.599 409.056 388.92 408.938 390.241 408.82C392.138 408.651 394.035 408.483 395.932 408.315C396.524 408.262 397.117 408.209 397.727 408.155C401.914 407.785 401.914 407.785 403.713 407.785Z" fill="#E5E8EA"/>
<path d="M138.749 75.9046C144.825 79.0924 150.483 82.8217 156.168 86.6544C157.068 87.2587 157.969 87.8627 158.87 88.4665C161.051 89.9291 163.23 91.3943 165.407 92.862C165.066 93.3972 164.725 93.9325 164.374 94.4839C161.861 98.4308 159.349 102.378 156.84 106.328C155.875 107.845 154.911 109.362 153.946 110.879C153.459 111.646 152.973 112.413 152.471 113.202C150.09 116.947 147.695 120.677 145.212 124.354C143.247 122.39 143.282 121.576 142.968 118.865C142.871 118.059 142.774 117.253 142.674 116.422C142.528 115.11 142.528 115.11 142.378 113.772C142.273 112.873 142.167 111.975 142.059 111.049C141.837 109.144 141.619 107.239 141.403 105.333C141.074 102.426 140.735 99.5199 140.393 96.614C140.179 94.7631 139.965 92.912 139.753 91.0609C139.601 89.7611 139.601 89.7611 139.447 88.4349C138.975 84.2287 138.63 80.1372 138.749 75.9046Z" fill="#B0B1B1"/>
<path d="M106.437 296.351C115.612 298.453 124.715 300.744 133.795 303.224C135.037 303.562 136.28 303.899 137.522 304.236C140.092 304.935 142.662 305.634 145.232 306.335C148.524 307.233 151.817 308.129 155.111 309.023C158.272 309.882 161.432 310.742 164.593 311.602C165.192 311.765 165.791 311.928 166.408 312.095C168.095 312.554 169.782 313.014 171.469 313.475C172.905 313.866 172.905 313.866 174.371 314.266C175.972 314.715 177.562 315.205 179.14 315.731C178.34 318.662 177.541 321.593 176.717 324.613C169.305 323.294 169.305 323.294 166.19 321.912C162.428 320.277 158.537 319.144 154.609 317.98C153.807 317.74 153.005 317.5 152.178 317.253C150.483 316.747 148.787 316.243 147.09 315.741C144.54 314.984 141.991 314.22 139.443 313.455C131.025 310.943 122.62 308.583 114.041 306.685C110.6 305.881 107.332 304.825 104.013 303.618C104.813 301.22 105.613 298.822 106.437 296.351Z" fill="#C55C07"/>
<path d="M386.749 240.634C389.544 241.642 391.715 242.794 394.02 244.671C393.546 247.501 392.576 248.798 390.586 250.828C387.388 254.309 384.636 257.986 381.902 261.83C376.361 269.613 370.587 277.208 364.756 284.776C363.804 286.028 362.866 287.291 361.942 288.565C361.518 289.151 361.093 289.736 360.656 290.339C360.287 290.857 359.918 291.375 359.538 291.909C358.476 293.121 358.476 293.121 356.254 293.928C355.388 293.928 354.521 293.928 353.629 293.928C352.935 293.938 352.242 293.947 351.527 293.957C349.533 293.976 347.544 293.964 345.551 293.928C346.906 290.81 348.946 288.287 351.054 285.652C351.443 285.161 351.832 284.67 352.232 284.165C355.683 279.823 359.193 275.528 362.702 271.233C366.055 267.117 369.294 262.93 372.511 258.708C375.481 254.849 378.578 251.091 381.669 247.329C382.096 246.808 382.523 246.287 382.963 245.75C383.343 245.288 383.723 244.826 384.114 244.351C385.054 243.157 385.907 241.897 386.749 240.634Z" fill="#C55C06"/>
<path d="M286.586 59.8619C287.943 60.8145 287.943 60.8145 289.811 62.9847C290.255 65.8465 290.342 67.6093 289.003 70.2017C286.339 71.6167 283.813 71.6318 280.925 71.0596C278.603 69.9248 276.533 68.5634 274.463 67.0221C274.232 67.5249 274.002 68.0277 273.765 68.5457C272.485 70.9254 271.289 71.6273 268.808 72.6746C264.506 72.5978 262.231 71.5645 259.114 68.6371C258.531 68.8703 257.948 69.1035 257.347 69.3437C256.597 69.6435 255.847 69.9433 255.075 70.2521C254.458 70.5519 253.842 70.8517 253.207 71.1606C249.122 72.4899 245.794 72.3191 241.847 70.8577C239.625 69.377 239.154 68.5726 238.111 66.2146C243.621 63.0733 249.081 60.2363 255.075 58.1397C255.753 57.8972 256.431 57.6546 257.129 57.4047C267.202 54.207 277.341 54.6477 286.586 59.8619Z" fill="#203137"/>
<path d="M347.166 314.923C352.263 315.517 357.143 316.735 362.111 318.002C362.973 318.22 363.835 318.438 364.723 318.662C375.076 321.288 385.373 324.075 395.635 327.036C396.168 331.033 396.702 335.03 397.251 339.148C392.227 338.075 387.295 336.827 382.357 335.414C378.154 334.054 378.154 334.054 373.824 333.496C373.824 336.96 373.824 340.424 373.824 343.993C367.007 338.248 367.007 338.248 364.13 335.111C364.13 334.578 364.13 334.045 364.13 333.496C363.597 333.496 363.064 333.496 362.515 333.496C361.461 332.423 361.461 332.423 360.192 330.871C357.126 327.234 353.78 323.944 350.327 320.678C349.228 319.611 348.192 318.482 347.166 317.346C347.166 316.546 347.166 315.747 347.166 314.923Z" fill="#EB525F"/>
<path d="M366.554 339.148C367.124 339.645 367.124 339.645 367.705 340.151C368.208 340.586 368.711 341.021 369.23 341.47C369.975 342.116 369.975 342.116 370.735 342.776C372.317 344.126 372.317 344.126 374.632 345.608C375.043 347.197 375.043 347.197 375.194 349.128C375.255 349.83 375.316 350.531 375.38 351.254C375.459 352.357 375.459 352.357 375.541 353.481C375.659 354.924 375.779 356.366 375.9 357.809C375.956 358.489 376.011 359.169 376.068 359.87C376.284 362.137 376.633 364.366 377.055 366.603C377.855 365.271 378.655 363.938 379.479 362.566C379.879 363.365 379.879 363.365 380.287 364.181C379.532 365.821 378.726 367.439 377.863 369.026C377.33 369.026 376.797 369.026 376.248 369.026C376.248 369.825 376.248 370.624 376.248 371.448C372.73 371.721 369.213 371.989 365.695 372.256C364.703 372.333 363.71 372.41 362.687 372.489C358.041 372.839 353.442 373.174 348.782 373.063C349.327 370.406 350.306 368.251 351.562 365.852C351.964 365.082 352.366 364.311 352.78 363.517C353.425 362.297 353.425 362.297 354.083 361.052C354.519 360.222 354.954 359.393 355.403 358.539C364.617 341.085 364.617 341.085 366.554 339.148Z" fill="#ED525F"/>
<path d="M217.107 80.7496C217.148 81.3391 217.188 81.9285 217.23 82.5359C217.42 85.2549 217.617 87.9734 217.814 90.6919C217.878 91.6188 217.941 92.5457 218.007 93.5008C218.387 98.6602 219.002 103.655 219.993 108.732C220.405 110.991 220.581 113.176 220.591 115.472C220.605 116.188 220.618 116.904 220.632 117.642C220.339 119.509 220.339 119.509 219.285 120.945C216.91 122.656 215.068 122.375 212.261 121.932C209.839 119.31 208.884 116.708 207.919 113.352C207.026 110.441 206.661 109.865 204.182 107.801C201.807 106.542 201.807 106.542 199.335 105.782C197.657 102.762 197.637 100.984 198.528 97.707C201.387 92.1087 210.133 80.7496 217.107 80.7496Z" fill="#1C3037"/>
<path d="M298.262 277.412C299.412 277.412 300.561 277.431 301.711 277.463C302.317 277.468 302.923 277.472 303.548 277.477C305.482 277.495 307.416 277.536 309.35 277.577C310.662 277.593 311.974 277.608 313.287 277.621C316.502 277.656 319.717 277.712 322.932 277.779C322.932 281.509 322.932 285.24 322.932 289.083C311.084 289.083 299.236 289.083 287.388 289.083C286.925 289.612 286.463 290.141 285.987 290.686C283.584 292.822 282.268 292.653 279.107 292.515C278.237 292.486 277.366 292.457 276.469 292.427C275.476 292.371 275.476 292.371 274.463 292.313C275.369 290.865 276.278 289.419 277.189 287.973C277.695 287.168 278.201 286.362 278.722 285.532C280.117 283.431 280.117 283.431 281.733 281.816C284.62 281.566 287.491 281.51 290.389 281.444C291.264 281.3 292.14 281.157 293.042 281.009C293.368 280.473 293.694 279.938 294.03 279.386C295.466 277.779 295.466 277.779 298.262 277.412Z" fill="#FAFBFC"/>
<path d="M347.974 373.063C346.908 373.329 345.841 373.596 344.743 373.871C344.749 374.855 344.749 374.855 344.755 375.859C344.772 378.813 344.783 381.767 344.793 384.721C344.8 385.754 344.807 386.787 344.814 387.852C344.818 389.323 344.818 389.323 344.822 390.825C344.828 392.189 344.828 392.189 344.834 393.58C344.743 395.673 344.743 395.673 343.935 396.48C342.746 396.675 341.549 396.817 340.35 396.935C339.377 397.036 339.377 397.036 338.384 397.14C334.848 397.347 331.32 397.315 327.779 397.288C327.505 394.445 327.237 391.602 326.971 388.759C326.894 387.959 326.817 387.159 326.737 386.335C326.349 382.159 326.069 378.064 326.163 373.871C333.451 373.193 340.655 372.964 347.974 373.063Z" fill="#6A2C00"/>
<path d="M56.3518 134.044C59.7915 135.314 61.7151 137.913 63.9755 140.656C64.8408 141.685 65.7065 142.715 66.5726 143.744C67.2409 144.542 67.2409 144.542 67.9227 145.357C70.0957 147.936 72.3124 150.477 74.5277 153.02C78.726 157.854 82.9022 162.706 87.0646 167.571C88.7073 169.491 90.355 171.406 92.0062 173.318C96.6609 178.715 101.232 184.151 105.629 189.762C110.041 188.503 113.776 186.447 117.746 184.21C119.199 183.401 120.653 182.593 122.107 181.784C122.855 181.367 123.604 180.949 124.375 180.519C130.207 177.276 136.076 174.099 141.939 170.914C144.17 169.701 146.399 168.486 148.627 167.27C150.551 166.222 152.476 165.177 154.402 164.133C155.789 163.38 157.174 162.624 158.558 161.867C159.404 161.41 160.25 160.952 161.122 160.48C161.872 160.073 162.622 159.665 163.394 159.245C165.166 158.386 166.715 157.841 168.638 157.462C166.605 159.757 164.34 161.048 161.662 162.515C160.75 163.017 159.839 163.519 158.9 164.037C157.922 164.57 156.944 165.104 155.966 165.638C154.479 166.454 152.992 167.271 151.506 168.089C150.522 168.63 149.537 169.171 148.553 169.711C144.042 172.187 139.564 174.719 135.11 177.295C131.655 179.264 131.655 179.264 129.863 179.264C135.995 191.255 142.126 203.247 148.443 215.601C147.643 215.868 146.843 216.134 146.02 216.409C143.599 211.611 141.184 206.81 138.772 202.008C137.95 200.373 137.127 198.739 136.303 197.106C135.121 194.762 133.943 192.417 132.766 190.071C132.395 189.337 132.024 188.604 131.642 187.848C131.302 187.169 130.963 186.49 130.613 185.791C130.311 185.192 130.01 184.593 129.699 183.976C129.055 182.494 129.055 182.494 129.055 180.879C128.633 181.103 128.21 181.326 127.775 181.556C112.265 189.751 112.265 189.751 105.629 192.991C100.785 187.766 96.1752 182.502 91.8232 176.857C91.314 176.319 90.8047 175.781 90.2801 175.227C87.0604 175.227 86.2494 176.339 83.8176 178.406C83.021 179.075 82.2243 179.745 81.4036 180.434C80.1993 181.454 80.1993 181.454 78.9707 182.494C77.5764 183.641 76.1796 184.785 74.7801 185.926C74.0501 186.522 73.3202 187.119 72.5681 187.733C71.7486 188.403 70.929 189.072 70.0847 189.762C69.5959 190.162 69.1071 190.562 68.6035 190.974C62.1075 196.289 55.5753 201.538 48.8952 206.621C46.7795 208.241 44.6935 209.892 42.6189 211.564C42.0857 211.297 41.5526 211.031 41.0032 210.756C46.0374 206.053 51.0836 201.446 56.5127 197.196C58.2466 195.83 59.962 194.45 61.6688 193.051C68.0171 187.85 74.4339 182.765 80.9936 177.831C81.5391 177.419 82.0847 177.007 82.6469 176.583C83.1272 176.223 83.6076 175.862 84.1026 175.491C85.4515 174.404 86.6551 173.243 87.8567 171.997C87.3579 171.458 86.8591 170.92 86.3452 170.366C82.2323 165.892 78.2808 161.347 74.4614 156.616C72.2213 153.882 69.9212 151.204 67.6107 148.529C56.3518 135.465 56.3518 135.465 56.3518 134.044Z" fill="#2E2E2E"/>
<path d="M199.336 202.681C201.207 205.035 202.579 207.418 203.93 210.1C207.396 216.515 211.782 222.54 218.723 225.291C224.253 226.154 228.708 225.302 233.264 222.061C235.453 220.215 237.564 218.316 239.644 216.349C241.342 214.794 241.342 214.794 242.958 213.986C243.792 223.387 243.792 223.387 240.938 226.856C236.225 231.411 230.728 234.528 224.176 235.284C216.509 234.518 211.175 231.026 206.151 225.392C201.804 218.979 199.737 210.306 199.336 202.681Z" fill="#FE7C21"/>
<path d="M318.703 294.644C319.308 294.649 319.913 294.653 320.537 294.657C321.419 294.66 321.419 294.66 322.32 294.663C323.071 294.671 323.823 294.678 324.598 294.685C328.172 294.71 328.172 294.71 331.818 294.736C331.818 303.263 331.818 311.79 331.818 320.576C330.218 320.043 328.619 319.51 326.971 318.961C325.083 319.565 325.083 319.565 323.739 320.576C322.94 320.043 322.14 319.51 321.316 318.961C319.158 319.608 319.158 319.608 317.277 320.576C316.719 314.293 316.384 308.057 316.368 301.751C316.364 301.148 316.361 300.545 316.357 299.923C316.371 294.794 316.371 294.794 318.703 294.644Z" fill="#4D0062"/>
<path d="M373.824 332.688C375.446 332.92 377.062 333.188 378.671 333.496C377.871 333.762 377.072 334.029 376.248 334.303C379.815 338.512 383.562 342.454 387.494 346.324C388.916 347.77 390.222 349.231 391.495 350.806C393.149 353.001 393.149 353.001 395.635 354.491C392.404 354.491 392.404 354.491 390.182 352.472C389.583 351.806 388.983 351.14 388.365 350.453C386.373 353.595 384.406 356.733 382.609 359.992C381.372 362.094 380.427 363.385 378.671 364.988C377.854 366.058 377.045 367.134 376.248 368.218C375.011 360.334 374.198 352.512 373.673 344.548C373.596 343.489 373.52 342.43 373.441 341.339C373.373 340.336 373.304 339.333 373.234 338.3C373.172 337.395 373.111 336.49 373.047 335.558C373.037 334.877 373.027 334.197 373.016 333.496C373.283 333.229 373.549 332.963 373.824 332.688Z" fill="#D98691"/>
<path d="M367.362 293.928C380.853 307.414 380.853 307.414 381.779 315.163C381.754 317.856 381.592 320.354 381.094 322.998C380.017 322.926 378.94 322.839 377.863 322.746C376.963 322.676 376.963 322.676 376.046 322.604C373.824 322.191 373.824 322.191 367.362 319.768C367.362 311.241 367.362 302.714 367.362 293.928Z" fill="#4D0161"/>
<path d="M376.248 334.303C382.097 334.573 387.375 335.863 392.972 337.543C395.995 338.449 399.03 339.22 402.098 339.956C402.906 342.378 402.906 342.378 402.906 345.608C401.415 347.539 399.788 349.079 397.964 350.696C396.372 351.964 396.372 351.964 395.635 353.683C392.874 353.219 391.647 352.382 389.785 350.318C389.307 349.795 388.829 349.273 388.336 348.736C387.601 347.912 387.601 347.912 386.85 347.072C385.877 346 384.903 344.928 383.928 343.858C383.458 343.337 382.987 342.816 382.503 342.279C381.147 340.82 379.744 339.431 378.311 338.047C376.248 335.918 376.248 335.918 376.248 334.303Z" fill="#F3939E"/>
<path d="M251.812 207.306C253.568 208.402 254.906 209.616 256.388 211.059C262.96 216.867 269.944 217.756 278.502 218.024C277.056 221.128 277.056 221.128 275.523 222.263C270.64 223.846 266.863 222.699 262.418 220.573C260.302 219.402 258.483 218.028 256.691 216.409C256.307 217.058 255.924 217.708 255.529 218.377C254.267 220.446 254.267 220.446 253.459 221.254C251.086 221.405 251.086 221.405 248.612 221.254C248.079 220.721 247.546 220.188 246.997 219.639C246.197 220.172 245.397 220.705 244.573 221.254C243.197 213.598 243.197 213.598 244.526 210.731C246.521 208.302 248.552 206.098 251.812 207.306Z" fill="#FE7C21"/>
<path d="M238.919 160.692C242.453 161.809 245.778 163.187 249.168 164.679C256.279 167.676 263.617 168.64 271.231 169.574C271.231 171.706 271.231 173.838 271.231 176.034C260.685 176.588 251.972 174.97 243.765 167.959C238.919 162.504 238.919 162.504 238.919 160.692Z" fill="#BF664F"/>
<path d="M196.912 192.184C199.124 194.395 199.746 197.013 200.749 199.906C203.901 208.581 209.069 217.939 217.07 223.074C221.137 224.556 225.562 224.407 229.616 222.96C236.142 219.411 241.134 213.672 246.189 208.334C246.189 209.133 246.189 209.933 246.189 210.756C245.656 211.289 245.123 211.822 244.573 212.371C244.4 214.172 244.4 214.172 244.538 216.268C244.571 217.08 244.603 217.892 244.637 218.728C244.68 219.611 244.724 220.493 244.769 221.402C244.807 222.311 244.845 223.219 244.885 224.156C245.009 227.075 245.144 229.993 245.28 232.912C245.408 235.805 245.534 238.698 245.658 241.591C245.737 243.392 245.817 245.193 245.901 246.994C246.145 252.415 246.238 257.817 246.189 263.244C246.735 263.235 247.281 263.227 247.843 263.219C252.483 263.157 256.936 263.458 261.537 264.051C261.537 264.318 261.537 264.584 261.537 264.859C258.862 264.882 256.186 264.896 253.51 264.909C252.746 264.916 251.982 264.923 251.195 264.93C250.106 264.933 250.106 264.933 248.994 264.937C248.322 264.942 247.649 264.946 246.956 264.95C245.381 264.859 245.381 264.859 244.573 264.051C244.455 262.835 244.389 261.615 244.346 260.394C244.316 259.614 244.287 258.835 244.256 258.032C244.228 257.181 244.199 256.329 244.169 255.453C244.137 254.579 244.104 253.705 244.07 252.804C243.965 249.992 243.865 247.18 243.765 244.368C243.666 241.585 243.565 238.802 243.461 236.019C243.396 234.285 243.334 232.552 243.275 230.818C243.077 225.455 242.691 220.133 242.15 214.794C241.72 215.248 241.29 215.703 240.847 216.171C235.824 221.442 230.624 226.056 223.065 226.452C217.091 226.348 213.676 223.48 209.582 219.38C202.859 211.762 198.085 202.35 196.912 192.184Z" fill="#763942"/>
<path d="M402.098 340.763C404.497 341.163 404.497 341.163 406.945 341.571C407.356 344.783 407.757 347.996 408.156 351.21C408.272 352.112 408.388 353.014 408.507 353.943C409.132 359.016 409.498 363.915 409.368 369.026C408.035 369.026 406.702 369.026 405.329 369.026C405.862 368.493 406.395 367.96 406.945 367.411C405.663 365.114 404.362 362.83 403.057 360.547C402.692 359.892 402.327 359.237 401.951 358.563C401.416 357.634 401.416 357.634 400.87 356.686C400.544 356.111 400.219 355.536 399.883 354.943C399.548 354.527 399.212 354.112 398.866 353.683C398.067 353.683 397.267 353.683 396.443 353.683C396.443 351.261 396.443 351.261 397.68 349.958C398.205 349.505 398.73 349.052 399.27 348.586C401.781 346.237 401.781 346.237 402.451 342.832C402.335 342.15 402.218 341.467 402.098 340.763Z" fill="#D6838D"/>
<path d="M138.749 75.0971C142.145 76.3174 145.105 78.0215 148.14 79.9421C148.674 80.2772 149.209 80.6123 149.759 80.9576C153.654 83.4228 157.496 85.9633 161.327 88.5249C162.06 89.0148 162.06 89.0148 162.808 89.5146C165.279 91.1681 167.747 92.8265 170.21 94.4912C171.131 95.11 172.051 95.7287 172.971 96.3475C173.79 96.9008 174.609 97.4541 175.452 98.0242C177.499 99.4191 177.499 99.4191 179.948 100.129C180.84 99.1505 180.84 99.1505 181.75 98.1517C182.546 97.2801 183.342 96.4084 184.138 95.5368C184.528 95.1085 184.918 94.6802 185.32 94.2389C187.774 91.5561 190.283 88.9533 192.873 86.402C193.673 86.8018 193.673 86.8018 194.489 87.2095C193.955 87.7425 193.422 88.2754 192.873 88.8245C193.13 91.4835 194.121 92.7533 196.104 94.477C195.838 95.01 195.571 95.5429 195.296 96.092C193.697 94.7596 192.097 93.4273 190.45 92.0545C189.134 93.3474 187.822 94.6433 186.511 95.9406C185.78 96.6619 185.049 97.3833 184.296 98.1265C182.292 100.094 182.292 100.094 180.756 102.552C176.325 101.503 173.237 99.1528 169.664 96.4642C167.854 95.066 167.854 95.066 165.407 95.2845C163.979 97.344 162.716 99.3758 161.469 101.543C160.683 102.866 159.895 104.189 159.106 105.511C158.689 106.209 158.273 106.908 157.845 107.628C155.569 111.396 153.201 115.103 150.816 118.803C150.364 119.516 149.911 120.228 149.445 120.963C149.022 121.618 148.598 122.273 148.162 122.948C147.787 123.532 147.412 124.116 147.026 124.717C146.694 125.131 146.362 125.544 146.02 125.969C145.486 125.969 144.953 125.969 144.404 125.969C145.472 123.095 146.747 120.603 148.396 118.021C148.864 117.285 149.333 116.549 149.815 115.791C150.312 115.019 150.809 114.248 151.321 113.453C151.826 112.664 152.331 111.875 152.852 111.062C156.639 105.172 160.532 99.3704 164.599 93.6695C158.03 88.7174 151.213 84.1752 144.332 79.6688C143.611 79.1938 142.89 78.7187 142.148 78.2293C141.494 77.801 140.839 77.3728 140.165 76.9315C139.698 76.5926 139.231 76.2538 138.749 75.9046C138.749 75.6381 138.749 75.3717 138.749 75.0971Z" fill="#262626"/>
<path d="M167.023 157.462C167.823 157.861 167.823 157.861 168.638 158.269C159.318 163.62 149.979 168.939 140.617 174.217C139.294 174.968 139.294 174.968 137.943 175.735C137.123 176.196 136.303 176.657 135.458 177.132C134.364 177.75 134.364 177.75 133.247 178.38C131.479 179.264 131.479 179.264 129.863 179.264C135.995 191.255 142.126 203.247 148.443 215.601C147.643 215.868 146.844 216.134 146.02 216.409C143.599 211.611 141.184 206.81 138.772 202.008C137.95 200.373 137.127 198.739 136.303 197.106C135.121 194.762 133.943 192.417 132.766 190.071C132.395 189.337 132.024 188.604 131.642 187.848C131.302 187.169 130.963 186.49 130.613 185.791C130.311 185.192 130.01 184.593 129.699 183.976C129.055 182.494 129.055 182.494 129.055 180.879C128.648 181.103 128.24 181.328 127.82 181.559C125.98 182.567 124.135 183.565 122.29 184.563C121.328 185.093 121.328 185.093 120.346 185.634C119.425 186.13 119.425 186.13 118.484 186.636C117.917 186.944 117.351 187.253 116.767 187.571C116.29 187.761 115.813 187.951 115.322 188.147C114.789 187.88 114.256 187.614 113.707 187.339C119.421 182.598 125.884 179.179 132.539 175.933C137.859 173.325 142.994 170.44 148.14 167.505C163.378 158.834 163.378 158.834 167.023 157.462Z" fill="#262626"/>
<path d="M293.042 281.009C292.776 282.341 292.509 283.673 292.235 285.046C291.701 285.046 291.168 285.046 290.619 285.046C290.352 285.845 290.086 286.645 289.811 287.468C288.214 289.592 286.506 291.068 284.156 292.313C280.882 292.717 277.743 292.604 274.463 292.313C275.369 290.865 276.278 289.419 277.189 287.973C277.695 287.168 278.201 286.362 278.722 285.532C280.117 283.431 280.117 283.431 281.733 281.816C285.529 281.072 289.182 280.93 293.042 281.009Z" fill="#F5F4F5"/>
<path d="M263.961 391.635C263.961 394.497 263.468 394.948 261.638 397.036C261.207 397.538 260.776 398.041 260.332 398.559C259.114 399.71 259.114 399.71 257.498 399.71C257.29 400.173 257.082 400.635 256.867 401.111C255.791 403.111 254.549 404.664 253.055 406.372C252.318 407.228 252.318 407.228 251.566 408.101C250.228 409.4 250.228 409.4 248.612 409.4C248.397 409.876 248.182 410.351 247.961 410.84C246.975 412.671 245.934 413.933 244.501 415.431C244.005 415.954 243.509 416.477 242.998 417.016C242.203 417.843 242.203 417.843 241.393 418.687C240.289 419.849 239.185 421.012 238.082 422.175C237.538 422.748 236.993 423.321 236.432 423.911C232.901 427.64 229.453 431.445 225.993 435.24C225.374 435.907 224.754 436.575 224.116 437.262C219.274 442.525 214.935 448.1 210.645 453.813C210.645 445.915 222.864 436.282 228.014 430.873C229.4 429.401 230.736 427.893 232.052 426.358C235.237 422.657 238.602 419.125 241.941 415.564C245.203 412.082 248.417 408.563 251.598 405.006C253.948 402.398 256.327 399.816 258.71 397.237C259.352 396.543 259.352 396.543 260.006 395.835C263.034 392.562 263.034 392.562 263.961 391.635Z" fill="#653B44"/>
<path d="M272.039 33.9148C272.839 34.4478 273.639 34.9807 274.463 35.5298C274.463 36.0628 274.463 36.5957 274.463 37.1448C273.789 37.2822 273.115 37.4196 272.421 37.5612C267.352 38.6523 262.724 39.8711 258.07 42.1759C256.691 42.7973 256.691 42.7973 255.075 42.7973C254.808 41.1984 254.542 39.5996 254.267 37.9523C266.278 32.3442 266.278 32.3442 272.039 33.9148Z" fill="#DDD5D5"/>
<path d="M262.345 90.4395C264.847 92.5288 265.738 94.8479 266.921 97.8458C267.31 98.8325 267.7 99.8193 268.101 100.836C268.3 101.35 268.499 101.864 268.704 102.394C269.308 103.952 269.925 105.504 270.543 107.056C272.396 111.797 273.885 116.041 274.463 121.124C271.786 122.908 270.953 122.921 267.849 122.84C267.121 122.826 266.393 122.811 265.643 122.796C265.088 122.777 264.533 122.759 263.961 122.739C266.743 120.885 268.758 120.688 272.039 120.317C270.373 114.238 268.223 108.379 265.98 102.495C265.784 101.978 265.587 101.46 265.384 100.927C264.954 99.8063 264.518 98.6882 264.078 97.5721C262.345 93.123 262.345 93.123 262.345 90.4395Z" fill="#2C383D"/>
<path d="M248.612 212.371C251.124 212.532 252.896 212.816 255.024 214.188C255.883 215.601 255.883 215.601 255.731 217.671C255.075 219.639 255.075 219.639 253.459 221.254C251.086 221.557 251.086 221.557 248.612 221.254C247.047 219.891 247.047 219.891 246.189 218.024C246.383 215.302 246.664 214.319 248.612 212.371Z" fill="#6B3942"/>
<path d="M248.562 75.7532C250.228 76.7121 250.228 76.7121 251.036 79.1346C250.362 79.1835 249.688 79.2324 248.994 79.2829C243.736 79.6742 238.5 80.1286 233.264 80.7496C234.307 78.3917 234.778 77.5873 237 76.1065C241.046 74.6087 244.346 74.5875 248.562 75.7532Z" fill="#25353A"/>
<path d="M244.573 233.366C244.84 233.366 245.106 233.366 245.381 233.366C245.648 243.226 245.914 253.085 246.189 263.244C248.855 263.244 251.521 263.244 254.267 263.244C256.713 263.425 259.103 263.737 261.537 264.051C261.537 264.318 261.537 264.584 261.537 264.859C258.862 264.882 256.186 264.896 253.51 264.909C252.746 264.916 251.982 264.923 251.195 264.93C250.106 264.933 250.106 264.933 248.994 264.937C247.985 264.944 247.985 264.944 246.956 264.95C245.381 264.859 245.381 264.859 244.573 264.051C244.376 261.591 244.228 259.147 244.119 256.683C244.085 255.957 244.051 255.232 244.017 254.484C243.268 237.28 243.268 237.28 244.573 233.366Z" fill="#83404A"/>
<path d="M427.948 445.738C428.481 446.004 429.014 446.271 429.564 446.545C427.964 447.345 427.964 447.345 426.332 448.16C426.599 449.226 426.865 450.292 427.14 451.39C426.074 451.657 425.007 451.923 423.909 452.198C423.909 451.665 423.909 451.132 423.909 450.583C421.243 451.116 418.577 451.649 415.831 452.198C417.697 452.731 419.563 453.264 421.485 453.813C421.219 454.346 420.952 454.879 420.678 455.428C420.179 455.271 419.68 455.115 419.166 454.954C415.671 453.88 412.266 452.922 408.661 452.299C405.868 451.725 405.378 451.441 403.259 449.27C402.876 448.638 402.493 448.005 402.098 447.353C402.631 447.086 403.164 446.82 403.713 446.545C404.047 447.078 404.38 447.611 404.723 448.16C405.19 448.693 405.656 449.226 406.137 449.775C407.203 449.775 408.269 449.775 409.368 449.775C409.635 449.242 409.901 448.709 410.176 448.16C410.676 448.443 411.176 448.726 411.691 449.018C415.793 450.248 420.105 449.993 424.016 448.16C425.335 447.366 426.642 446.553 427.948 445.738Z" fill="#C2745D"/>
<path d="M415.831 443.315C415.831 443.582 415.831 443.848 415.831 444.123C413.165 444.123 410.499 444.123 407.752 444.123C407.752 444.656 407.752 445.189 407.752 445.738C409.352 445.738 410.951 445.738 412.599 445.738C411.792 447.353 410.984 448.968 410.176 450.583C406.527 450.878 406.527 450.878 404.673 449.472C403.713 448.16 403.713 448.16 403.713 446.545C402.647 446.012 401.581 445.479 400.482 444.93C400.482 444.664 400.482 444.397 400.482 444.123C405.631 443.346 410.628 443.229 415.831 443.315Z" fill="#D09B8B"/>
<path d="M394.827 329.458C396.843 331.473 396.733 332.424 396.948 335.212C397.008 335.947 397.069 336.681 397.131 337.439C397.171 338.003 397.21 338.567 397.251 339.148C396.072 338.899 394.894 338.646 393.717 338.391C393.061 338.251 392.405 338.11 391.729 337.965C389.981 337.533 389.981 337.533 388.365 336.726C388.365 336.193 388.365 335.66 388.365 335.111C388.898 335.111 389.431 335.111 389.981 335.111C390.247 334.311 390.514 333.512 390.788 332.688C392.1 331.569 393.444 330.487 394.827 329.458Z" fill="#EF535F"/>
<path d="M145.212 225.291C150.186 226.439 153.497 229.373 157.329 232.559C158.518 233.485 158.518 233.485 159.73 234.429C162.358 236.624 164.249 239.127 166.164 241.946C166.496 242.408 166.828 242.87 167.17 243.346C168.105 244.703 168.105 244.703 169.446 247.094C169.18 247.893 168.913 248.693 168.638 249.516C168.247 248.892 167.855 248.267 167.452 247.624C161.881 238.97 155.807 233.183 147.282 227.54C146.599 227.065 145.916 226.589 145.212 226.099C145.212 225.832 145.212 225.566 145.212 225.291Z" fill="#7B3F48"/>
<path d="M279.663 77.3177C280.278 77.3136 280.894 77.3094 281.528 77.3051C283.522 77.54 284.849 78.1416 286.58 79.1346C286.58 79.934 286.58 80.7334 286.58 81.5571C282.315 81.5571 278.049 81.5571 273.655 81.5571C273.655 80.7577 273.655 79.9582 273.655 79.1346C276.167 77.4605 276.798 77.2984 279.663 77.3177Z" fill="#1F3238"/>
<path d="M279.309 94.477C281.834 94.7798 281.834 94.7798 284.156 95.2845C284.712 97.1518 284.712 97.1518 284.964 99.322C284.055 100.836 284.055 100.836 282.541 101.744C278.969 101.404 278.969 101.404 277.694 100.129C277.542 98.1612 277.542 98.1612 277.694 96.092C278.227 95.559 278.76 95.0261 279.309 94.477Z" fill="#25353A"/>
<path d="M241.342 94.477C243.866 94.7798 243.866 94.7798 246.189 95.2845C246.744 97.1518 246.744 97.1518 246.997 99.322C246.088 100.836 246.088 100.836 244.573 101.744C241.002 101.404 241.002 101.404 239.726 100.129C239.575 98.1612 239.575 98.1612 239.726 96.092C240.26 95.559 240.793 95.0261 241.342 94.477Z" fill="#24353A"/>
<path d="M380.287 324.613C383.219 325.146 386.151 325.679 389.173 326.228C389.439 327.561 389.706 328.893 389.98 330.266C383.056 330.381 383.056 330.381 380.287 329.458C380.287 327.859 380.287 326.261 380.287 324.613Z" fill="#FDEFF0"/>
<path d="M288.195 287.469C288.195 289.891 288.195 289.891 286.828 291.559C286.197 292.187 285.567 292.815 284.917 293.462C284.221 294.157 283.525 294.852 282.807 295.569C282.07 296.293 281.332 297.018 280.572 297.764C279.862 298.476 279.152 299.188 278.421 299.922C274.106 304.2 269.671 308.101 264.769 311.693C264.236 311.427 263.702 311.16 263.153 310.886C264.331 309.826 265.509 308.766 266.687 307.706C267.428 307.039 268.168 306.372 268.931 305.684C270.367 304.394 271.808 303.109 273.254 301.83C278.436 297.232 283.34 292.405 288.195 287.469Z" fill="#634A52"/>
<path d="M230.84 427.165C231.374 427.698 231.907 428.231 232.456 428.78C231.997 429.23 231.538 429.68 231.064 430.143C223.574 437.543 217.095 445.512 210.645 453.813C210.645 445.889 222.92 436.193 228.119 430.821C229.396 429.456 229.396 429.456 230.84 427.165Z" fill="#7E3F49"/>
<path d="M251.844 125.162C252.377 125.162 252.91 125.162 253.459 125.162C254.009 126.661 254.009 126.661 254.57 128.19C256.115 131.369 257.662 132.363 260.932 133.641C262.203 134.067 263.481 134.478 264.769 134.852C264.769 135.385 264.769 135.918 264.769 136.467C260.085 136.263 256.835 136.008 253.459 132.429C251.799 129.979 251.681 128.088 251.844 125.162Z" fill="#303A3E"/>
<path d="M249.016 90.7424C250.228 92.0545 250.228 92.0545 250.228 93.6695C249.228 93.4697 249.228 93.4697 248.208 93.2658C244.035 92.6698 239.755 92.3143 235.687 93.6695C236.495 91.247 236.495 91.247 238.161 90.2881C241.92 89.2488 245.471 88.7934 249.016 90.7424Z" fill="#2C393D"/>
<path d="M262.345 90.4395C264.254 92.1654 265.277 93.6668 266.242 96.0447C266.49 96.6489 266.737 97.2532 266.992 97.8757C267.241 98.5029 267.491 99.13 267.748 99.7762C268.006 100.406 268.265 101.037 268.532 101.686C270.423 106.359 270.423 106.359 270.423 108.204C269.624 108.204 268.824 108.204 268 108.204C267.051 105.7 266.111 103.193 265.173 100.685C264.903 99.9732 264.633 99.2617 264.355 98.5287C264.1 97.8443 263.845 97.1599 263.582 96.4547C263.345 95.8246 263.108 95.1946 262.864 94.5454C262.345 92.862 262.345 92.862 262.345 90.4395Z" fill="#353D40"/>
<path d="M283.273 88.5217C285.42 88.9061 286.691 89.6775 288.195 91.247C287.929 91.78 287.662 92.3129 287.388 92.862C286.588 92.5955 285.788 92.3291 284.964 92.0545C281.13 91.8105 277.389 91.8986 273.655 92.862C276.61 89.0499 278.645 88.275 283.273 88.5217Z" fill="#2A383C"/>
<path d="M248.612 236.596C249.146 236.863 249.679 237.129 250.228 237.404C250.045 237.887 249.861 238.37 249.673 238.867C249.589 239.45 249.506 240.033 249.42 240.634C250.514 242.065 250.514 242.065 251.844 243.056C252.643 242.79 253.443 242.523 254.267 242.249C254.049 240.281 254.049 240.281 253.459 238.211C252.66 237.678 251.86 237.145 251.036 236.596C253.435 236.996 253.435 236.996 255.883 237.404C256.388 239.675 256.388 239.675 256.691 242.249C255.891 243.448 255.891 243.448 255.075 244.671C252.55 244.993 250.919 245.05 248.663 243.813C247.306 241.341 248.058 239.266 248.612 236.596Z" fill="#7D3F49"/>
<path d="M201.052 111.586C202.567 112.242 202.567 112.242 203.375 113.857C202.042 113.857 200.709 113.857 199.336 113.857C198.341 115.844 198.539 116.864 198.78 119.055C198.844 119.687 198.907 120.319 198.973 120.97C199.588 123.972 200.868 125.106 203.375 126.777C200.431 126.613 199.481 126.123 197.417 123.951C195.767 120.397 195.724 117.592 196.912 113.857C198.884 111.395 198.884 111.395 201.052 111.586Z" fill="#C06C55"/>
<path d="M251.036 213.986C252.102 214.519 253.168 215.052 254.267 215.601C254.001 216.934 253.734 218.266 253.459 219.639C251.995 220.144 251.995 220.144 250.228 220.446C249.428 219.913 248.629 219.38 247.805 218.831C248.735 216.838 249.459 215.563 251.036 213.986Z" fill="#FC7A25"/>
<path d="M506.306 347.223C507.506 348.023 507.506 348.023 508.73 348.838C509.051 350.472 509.051 350.472 509.033 352.371C509.039 352.993 509.045 353.616 509.051 354.257C508.73 356.106 508.73 356.106 506.306 359.336C506.306 355.338 506.306 351.341 506.306 347.223Z" fill="#F5F6F6"/>
<path d="M273.655 302.003C274.188 302.27 274.721 302.536 275.27 302.811C273.863 304.147 272.449 305.475 271.029 306.798C270.633 307.176 270.236 307.555 269.827 307.945C267.705 309.91 266.089 311.365 263.153 311.693C266.484 308.26 270.03 305.123 273.655 302.003Z" fill="#6B3D46"/>
<path d="M273.655 117.894C273.921 118.96 274.188 120.026 274.463 121.124C271.786 122.908 270.953 122.921 267.849 122.84C267.121 122.826 266.393 122.811 265.643 122.796C265.088 122.777 264.533 122.759 263.961 122.739C266.384 121.124 266.384 121.124 269.313 120.721C270.212 120.587 271.112 120.454 272.039 120.317C272.306 119.784 272.572 119.251 272.847 118.702C273.114 118.435 273.38 118.169 273.655 117.894Z" fill="#534C4B"/>
<path d="M343.127 313.308C345.126 313.708 345.126 313.708 347.166 314.116C347.433 315.448 347.699 316.781 347.974 318.153C347.441 318.153 346.908 318.153 346.358 318.153C345.825 317.354 345.292 316.554 344.743 315.731C344.476 317.33 344.21 318.929 343.935 320.576C343.668 320.576 343.402 320.576 343.127 320.576C343.127 318.178 343.127 315.779 343.127 313.308Z" fill="#974C57"/>
<path d="M193.681 87.2095C195.012 89.6053 195.654 91.7769 196.104 94.477C194.771 93.4111 193.438 92.3452 192.065 91.247C192.772 88.118 192.772 88.118 193.681 87.2095Z" fill="#A29E9F"/>
<path d="M398.059 340.763C399.391 340.763 400.724 340.763 402.098 340.763C402.364 341.829 402.631 342.895 402.905 343.993C400.506 343.593 400.506 343.593 398.059 343.186C398.059 342.386 398.059 341.587 398.059 340.763Z" fill="#FDF1F2"/>
<path d="M248.612 212.371C249.679 212.371 250.745 212.371 251.844 212.371C250.737 214.924 250.237 215.595 247.805 217.216C247.3 215.702 247.3 215.702 246.997 213.986C247.53 213.453 248.063 212.92 248.612 212.371Z" fill="#AA3941"/>
<path d="M79.7785 470.77C80.5782 471.17 80.5782 471.17 81.3941 471.578C81.3941 472.377 81.3941 473.176 81.3941 474C80.861 474 80.3278 474 79.7785 474C79.7785 472.934 79.7785 471.868 79.7785 470.77Z" fill="#192F36"/>
<path d="M110.476 430.395C111.275 430.662 112.075 430.928 112.899 431.203C112.632 431.736 112.366 432.269 112.091 432.818C111.558 432.018 111.025 431.219 110.476 430.395Z" fill="#F0525F"/>
</g>
<defs>
<clipPath id="clip0_29_93">
<rect width="496" height="474" fill="white" transform="translate(20)"/>
</clipPath>
</defs>
</svg>
