<svg width="397" height="195" viewBox="0 0 397 195" fill="none" xmlns="http://www.w3.org/2000/svg">
<path fill-rule="evenodd" clip-rule="evenodd" d="M171.454 0.335159C205.144 1.65809 241.489 5.92333 264.203 21.3205C285.612 35.8328 274.32 58.7996 284.971 77.2847C296.114 96.6231 332.319 110.985 327.574 131.298C322.766 151.88 290.931 166.216 261.76 176.655C234.601 186.373 202.74 185.501 171.454 187.162C136.607 189.012 99.7916 197.217 69.0956 186.881C37.1315 176.119 20.2346 153.925 9.1926 132.528C-1.79617 111.234 -3.55132 88.4621 7.30382 67.1422C18.2363 45.6704 39.2393 26.0816 69.7032 13.6831C99.3682 1.60981 135.979 -1.05779 171.454 0.335159Z" fill="#FDB26B"/>
<path fill-rule="evenodd" clip-rule="evenodd" d="M195.704 0.340396C228.264 1.684 263.39 6.01588 285.343 21.6537C306.034 36.3927 295.12 59.7184 305.414 78.4922C316.184 98.1329 351.174 112.719 346.588 133.35C341.942 154.253 311.175 168.813 282.981 179.415C256.733 189.285 225.941 188.4 195.704 190.086C162.026 191.965 126.445 200.298 96.7783 189.801C65.8862 178.87 49.556 156.33 38.8843 134.599C28.2641 112.972 26.5678 89.8443 37.0589 68.1913C47.6247 46.384 67.9233 26.4891 97.3656 13.8969C126.036 1.63496 161.419 -1.07432 195.704 0.340396Z" fill="#9046A4"/>
<path fill-rule="evenodd" clip-rule="evenodd" d="M170.613 0.340396C198.243 1.684 228.05 6.01588 246.679 21.6537C264.237 36.3927 254.976 59.7184 263.711 78.4922C272.85 98.1329 302.542 112.719 298.65 133.35C294.708 154.253 268.599 168.813 244.675 179.415C222.401 189.285 196.271 188.4 170.613 190.086C142.034 191.965 111.841 200.298 86.6668 189.801C60.4524 178.87 46.5948 156.33 37.5391 134.599C28.5269 112.972 27.0875 89.8443 35.99 68.1913C44.956 46.384 62.181 26.4891 87.1651 13.8969C111.494 1.63496 141.52 -1.07432 170.613 0.340396Z" fill="white"/>
<path d="M70.9043 117V74.0312H82.2568C84.6331 74.0312 86.513 74.5602 87.8965 75.6182C89.2962 76.6761 90.2972 78.1816 90.8994 80.1348C91.5016 82.0879 91.8027 84.4154 91.8027 87.1172C91.8027 89.7214 91.5505 91.9919 91.0459 93.9287C90.5413 95.8493 89.638 97.3385 88.3359 98.3965C87.0501 99.4544 85.2191 99.9834 82.8428 99.9834H79.3516V117H70.9043ZM79.3516 92.2686H79.8398C81.4349 92.2686 82.4115 91.821 82.7695 90.9258C83.1276 90.0306 83.3066 88.7122 83.3066 86.9707C83.3066 85.3431 83.1276 84.0898 82.7695 83.2109C82.4277 82.3158 81.6058 81.8682 80.3037 81.8682H79.3516V92.2686ZM107.645 117.391C105.04 117.391 102.965 116.902 101.419 115.926C99.8727 114.949 98.766 113.541 98.0986 111.702C97.4313 109.863 97.0977 107.649 97.0977 105.062V90.3398C97.0977 86.9382 98.0742 84.3665 100.027 82.625C101.98 80.8672 104.666 79.9883 108.084 79.9883C115.115 79.9883 118.631 83.4388 118.631 90.3398V93.001C118.631 96.2236 118.598 98.3883 118.533 99.4951H105.838V106.575C105.838 107.226 105.879 107.869 105.96 108.504C106.041 109.122 106.22 109.635 106.497 110.042C106.79 110.449 107.254 110.652 107.889 110.652C108.8 110.652 109.37 110.262 109.598 109.48C109.826 108.683 109.939 107.649 109.939 106.38V102.864H118.631V104.939C118.631 107.674 118.289 109.969 117.605 111.824C116.938 113.663 115.799 115.055 114.188 115.999C112.592 116.927 110.411 117.391 107.645 117.391ZM105.789 95.1494H109.939V90.2178C109.939 88.8994 109.777 87.9554 109.451 87.3857C109.126 86.7998 108.637 86.5068 107.986 86.5068C107.286 86.5068 106.741 86.7835 106.351 87.3369C105.976 87.8903 105.789 88.8506 105.789 90.2178V95.1494ZM132.007 117.391C130.314 117.391 128.971 117.081 127.979 116.463C126.986 115.844 126.245 114.99 125.757 113.899C125.269 112.809 124.943 111.531 124.78 110.066C124.634 108.602 124.561 107.031 124.561 105.354V89.4365C124.561 86.6208 125.057 84.3421 126.05 82.6006C127.059 80.859 128.76 79.9883 131.152 79.9883C132.926 79.9883 134.285 80.3708 135.229 81.1357C136.19 81.8844 136.93 82.9342 137.451 84.2852V74.0312H146.338V117H137.451V113.118C136.963 114.437 136.312 115.478 135.498 116.243C134.701 117.008 133.537 117.391 132.007 117.391ZM135.352 110.555C136.182 110.555 136.735 110.221 137.012 109.554C137.305 108.886 137.451 107.69 137.451 105.965V90.5596C137.451 89.6969 137.321 88.8506 137.061 88.0205C136.816 87.1742 136.263 86.751 135.4 86.751C134.456 86.751 133.862 87.1497 133.618 87.9473C133.374 88.7448 133.252 89.6156 133.252 90.5596V105.965C133.252 109.025 133.952 110.555 135.352 110.555ZM152.658 78.1328V70.8574H161.398V78.1328H152.658ZM152.658 117V80.3789H161.398V117H152.658ZM175.067 117.391C173.375 117.391 172.032 117.081 171.039 116.463C170.046 115.844 169.306 114.99 168.817 113.899C168.329 112.809 168.004 111.531 167.841 110.066C167.694 108.602 167.621 107.031 167.621 105.354V89.4365C167.621 86.6208 168.118 84.3421 169.11 82.6006C170.119 80.859 171.82 79.9883 174.213 79.9883C175.987 79.9883 177.346 80.3708 178.29 81.1357C179.25 81.8844 179.991 82.9342 180.512 84.2852V74.0312H189.398V117H180.512V113.118C180.023 114.437 179.372 115.478 178.559 116.243C177.761 117.008 176.597 117.391 175.067 117.391ZM178.412 110.555C179.242 110.555 179.796 110.221 180.072 109.554C180.365 108.886 180.512 107.69 180.512 105.965V90.5596C180.512 89.6969 180.382 88.8506 180.121 88.0205C179.877 87.1742 179.324 86.751 178.461 86.751C177.517 86.751 176.923 87.1497 176.679 87.9473C176.435 88.7448 176.312 89.6156 176.312 90.5596V105.965C176.312 109.025 177.012 110.555 178.412 110.555ZM206.412 117.391C199.12 117.391 195.475 113.606 195.475 106.038V91.3408C195.475 87.8903 196.443 85.1396 198.38 83.0889C200.317 81.0218 202.994 79.9883 206.412 79.9883C209.846 79.9883 212.532 81.0218 214.469 83.0889C216.406 85.1396 217.374 87.8903 217.374 91.3408V106.038C217.374 113.606 213.72 117.391 206.412 117.391ZM206.412 110.652C207.145 110.652 207.665 110.392 207.975 109.871C208.3 109.334 208.463 108.659 208.463 107.845V89.9492C208.463 87.8171 207.779 86.751 206.412 86.751C205.045 86.751 204.361 87.8171 204.361 89.9492V107.845C204.361 108.659 204.516 109.334 204.825 109.871C205.151 110.392 205.68 110.652 206.412 110.652ZM233.655 117.391C226.429 117.391 222.815 113.729 222.815 106.404V103.499H231.604V107.796C231.604 108.626 231.767 109.277 232.093 109.749C232.418 110.221 232.939 110.457 233.655 110.457C234.925 110.457 235.56 109.505 235.56 107.601C235.56 106.006 235.226 104.817 234.559 104.036C233.891 103.239 233.077 102.474 232.117 101.741L227.454 98.1523C225.989 97.013 224.874 95.8086 224.109 94.5391C223.344 93.2695 222.962 91.5036 222.962 89.2412C222.962 87.1416 223.458 85.4082 224.451 84.041C225.46 82.6738 226.787 81.6566 228.431 80.9893C230.091 80.3219 231.881 79.9883 233.802 79.9883C240.898 79.9883 244.446 83.5283 244.446 90.6084V91.292H235.413V89.9004C235.413 89.168 235.283 88.46 235.022 87.7764C234.778 87.0928 234.29 86.751 233.558 86.751C232.321 86.751 231.702 87.402 231.702 88.7041C231.702 90.0225 232.223 91.056 233.265 91.8047L238.685 95.7598C240.377 96.9805 241.793 98.429 242.933 100.105C244.088 101.782 244.666 104.012 244.666 106.795C244.666 110.245 243.681 112.874 241.712 114.681C239.759 116.487 237.073 117.391 233.655 117.391Z" fill="black"/>
</svg>
