<svg width="521" height="164" viewBox="0 0 521 164" fill="none" xmlns="http://www.w3.org/2000/svg">
<path d="M185.359 145.7V148H176.512V145.7H185.359ZM176.995 126.672V148H174.3V126.672H176.995ZM187.674 140.837V139.328C187.674 138.098 187.83 137.019 188.143 136.091C188.455 135.153 188.89 134.372 189.446 133.747C190.003 133.122 190.652 132.653 191.395 132.341C192.137 132.019 192.933 131.857 193.782 131.857C194.651 131.857 195.457 132.019 196.199 132.341C196.941 132.653 197.591 133.122 198.147 133.747C198.714 134.372 199.153 135.153 199.466 136.091C199.778 137.019 199.935 138.098 199.935 139.328V140.837C199.935 142.067 199.778 143.151 199.466 144.089C199.153 145.017 198.719 145.793 198.162 146.418C197.605 147.043 196.956 147.512 196.214 147.824C195.472 148.137 194.671 148.293 193.812 148.293C192.952 148.293 192.151 148.137 191.409 147.824C190.667 147.512 190.013 147.043 189.446 146.418C188.89 145.793 188.455 145.017 188.143 144.089C187.83 143.151 187.674 142.067 187.674 140.837ZM190.267 139.328V140.837C190.267 141.706 190.354 142.468 190.53 143.122C190.706 143.776 190.955 144.323 191.277 144.763C191.6 145.202 191.976 145.534 192.405 145.759C192.835 145.974 193.304 146.081 193.812 146.081C194.397 146.081 194.91 145.974 195.35 145.759C195.799 145.534 196.17 145.202 196.463 144.763C196.756 144.323 196.976 143.776 197.122 143.122C197.269 142.468 197.342 141.706 197.342 140.837V139.328C197.342 138.459 197.254 137.702 197.078 137.058C196.902 136.403 196.653 135.856 196.331 135.417C196.009 134.968 195.628 134.636 195.188 134.421C194.759 134.196 194.29 134.084 193.782 134.084C193.284 134.084 192.82 134.196 192.391 134.421C191.961 134.636 191.585 134.968 191.263 135.417C190.95 135.856 190.706 136.403 190.53 137.058C190.354 137.702 190.267 138.459 190.267 139.328ZM211.858 132.15H214.188V148.132C214.188 149.528 213.943 150.681 213.455 151.589C212.977 152.497 212.308 153.166 211.448 153.596C210.589 154.035 209.598 154.255 208.475 154.255C208.074 154.255 207.571 154.182 206.966 154.035C206.36 153.889 205.755 153.664 205.149 153.361C204.544 153.068 204.046 152.697 203.655 152.248L204.725 150.446C205.281 151.013 205.872 151.418 206.497 151.662C207.122 151.906 207.718 152.028 208.284 152.028C208.958 152.028 209.544 151.906 210.042 151.662C210.54 151.418 210.926 151.018 211.199 150.461C211.473 149.914 211.609 149.182 211.609 148.264V135.637L211.858 132.15ZM202.747 140.837V139.357C202.747 138.049 202.869 136.926 203.113 135.988C203.357 135.041 203.709 134.265 204.168 133.659C204.637 133.044 205.198 132.59 205.853 132.297C206.507 132.004 207.239 131.857 208.05 131.857C208.87 131.857 209.578 132.023 210.174 132.355C210.77 132.688 211.263 133.171 211.653 133.806C212.054 134.431 212.366 135.192 212.591 136.091C212.825 136.979 212.986 137.985 213.074 139.108V141.086C212.986 142.199 212.825 143.2 212.591 144.089C212.366 144.978 212.049 145.734 211.639 146.359C211.238 146.984 210.74 147.463 210.145 147.795C209.549 148.127 208.841 148.293 208.021 148.293C207.22 148.293 206.497 148.142 205.853 147.839C205.208 147.526 204.651 147.062 204.183 146.447C203.724 145.822 203.367 145.046 203.113 144.118C202.869 143.181 202.747 142.087 202.747 140.837ZM205.34 139.357V140.837C205.34 141.716 205.403 142.482 205.53 143.137C205.657 143.781 205.853 144.318 206.116 144.748C206.39 145.168 206.736 145.48 207.156 145.686C207.586 145.891 208.099 145.993 208.694 145.993C209.417 145.993 210.008 145.817 210.467 145.466C210.926 145.114 211.292 144.65 211.565 144.074C211.849 143.488 212.073 142.858 212.239 142.185V138.024C212.142 137.526 212 137.048 211.814 136.589C211.639 136.12 211.409 135.705 211.126 135.344C210.843 134.973 210.501 134.68 210.101 134.465C209.71 134.25 209.251 134.143 208.724 134.143C208.128 134.143 207.615 134.25 207.186 134.465C206.756 134.68 206.404 135.002 206.131 135.432C205.857 135.861 205.657 136.403 205.53 137.058C205.403 137.712 205.34 138.479 205.34 139.357ZM220.867 132.15V148H218.274V132.15H220.867ZM218.128 129.836L220.97 125.529H224.236L220.311 129.836H218.128ZM232.82 143.942C232.82 143.542 232.723 143.19 232.527 142.888C232.332 142.585 232.01 142.292 231.561 142.009C231.121 141.726 230.525 141.423 229.773 141.101C229.041 140.798 228.382 140.5 227.796 140.207C227.22 139.904 226.731 139.577 226.331 139.226C225.931 138.874 225.623 138.469 225.408 138.01C225.203 137.541 225.101 136.989 225.101 136.354C225.101 135.72 225.218 135.134 225.452 134.597C225.696 134.05 226.038 133.571 226.478 133.161C226.917 132.751 227.444 132.434 228.06 132.209C228.675 131.975 229.363 131.857 230.125 131.857C231.209 131.857 232.132 132.067 232.894 132.487C233.655 132.907 234.236 133.483 234.637 134.216C235.047 134.938 235.252 135.754 235.252 136.662H232.674C232.674 136.223 232.576 135.808 232.381 135.417C232.186 135.026 231.897 134.709 231.517 134.465C231.136 134.211 230.672 134.084 230.125 134.084C229.549 134.084 229.08 134.187 228.719 134.392C228.357 134.597 228.094 134.865 227.928 135.197C227.771 135.52 227.693 135.876 227.693 136.267C227.693 136.56 227.732 136.813 227.811 137.028C227.898 137.233 228.045 137.429 228.25 137.614C228.455 137.79 228.733 137.976 229.085 138.171C229.446 138.356 229.905 138.571 230.462 138.815C231.536 139.235 232.439 139.66 233.172 140.09C233.904 140.52 234.461 141.022 234.842 141.599C235.223 142.175 235.413 142.888 235.413 143.737C235.413 144.431 235.286 145.061 235.032 145.627C234.788 146.184 234.437 146.662 233.978 147.062C233.519 147.463 232.967 147.771 232.322 147.985C231.688 148.19 230.975 148.293 230.184 148.293C228.992 148.293 227.981 148.059 227.151 147.59C226.331 147.111 225.706 146.491 225.276 145.729C224.856 144.958 224.646 144.133 224.646 143.254H227.239C227.269 143.996 227.435 144.572 227.737 144.982C228.05 145.393 228.426 145.676 228.865 145.832C229.305 145.988 229.744 146.066 230.184 146.066C230.76 146.066 231.243 145.983 231.634 145.817C232.024 145.642 232.317 145.393 232.513 145.07C232.718 144.748 232.82 144.372 232.82 143.942ZM244.598 132.15V134.23H237.2V132.15H244.598ZM239.617 128.298H242.21V144.074C242.21 144.611 242.273 145.017 242.4 145.29C242.537 145.563 242.708 145.744 242.913 145.832C243.118 145.92 243.338 145.964 243.572 145.964C243.748 145.964 243.943 145.944 244.158 145.905C244.373 145.856 244.52 145.817 244.598 145.788L244.583 148C244.407 148.068 244.173 148.132 243.88 148.19C243.587 148.259 243.216 148.293 242.767 148.293C242.21 148.293 241.692 148.161 241.214 147.897C240.735 147.634 240.35 147.194 240.057 146.579C239.764 145.954 239.617 145.114 239.617 144.06V128.298ZM250.472 132.15V148H247.894V132.15H250.472ZM247.747 127.946C247.747 127.507 247.869 127.136 248.113 126.833C248.357 126.53 248.724 126.379 249.212 126.379C249.7 126.379 250.066 126.53 250.311 126.833C250.564 127.136 250.691 127.507 250.691 127.946C250.691 128.366 250.564 128.728 250.311 129.03C250.066 129.323 249.7 129.47 249.212 129.47C248.724 129.47 248.357 129.323 248.113 129.03C247.869 128.728 247.747 128.366 247.747 127.946ZM260.066 146.081C260.584 146.081 261.053 145.979 261.473 145.773C261.902 145.559 262.254 145.227 262.527 144.777C262.801 144.318 262.957 143.723 262.996 142.99H265.428C265.389 144.045 265.12 144.973 264.622 145.773C264.134 146.564 263.489 147.185 262.688 147.634C261.897 148.073 261.023 148.293 260.066 148.293C259.041 148.293 258.147 148.127 257.386 147.795C256.634 147.463 256.009 146.984 255.511 146.359C255.022 145.725 254.656 144.958 254.412 144.06C254.168 143.151 254.046 142.121 254.046 140.969V139.182C254.046 138.029 254.168 137.004 254.412 136.105C254.656 135.197 255.022 134.431 255.511 133.806C256.009 133.171 256.634 132.688 257.386 132.355C258.147 132.023 259.041 131.857 260.066 131.857C261.141 131.857 262.068 132.087 262.85 132.546C263.641 132.995 264.256 133.649 264.695 134.509C265.145 135.358 265.389 136.389 265.428 137.6H262.996C262.957 136.818 262.815 136.169 262.571 135.651C262.327 135.124 261.995 134.733 261.575 134.479C261.155 134.216 260.652 134.084 260.066 134.084C259.383 134.084 258.816 134.206 258.367 134.45C257.928 134.685 257.581 135.026 257.327 135.476C257.073 135.925 256.893 136.462 256.785 137.087C256.688 137.712 256.639 138.41 256.639 139.182V140.969C256.639 141.74 256.688 142.443 256.785 143.078C256.893 143.703 257.068 144.24 257.312 144.689C257.566 145.139 257.918 145.485 258.367 145.729C258.816 145.964 259.383 146.081 260.066 146.081ZM276.194 145.29V136.691C276.194 136.066 276.097 135.563 275.901 135.183C275.716 134.802 275.433 134.523 275.052 134.348C274.681 134.172 274.212 134.084 273.646 134.084C273.099 134.084 272.625 134.196 272.225 134.421C271.834 134.646 271.531 134.943 271.316 135.314C271.111 135.686 271.009 136.096 271.009 136.545H268.416C268.416 135.979 268.538 135.417 268.782 134.86C269.036 134.304 269.397 133.801 269.866 133.352C270.335 132.893 270.896 132.531 271.551 132.268C272.215 131.994 272.957 131.857 273.777 131.857C274.754 131.857 275.618 132.019 276.37 132.341C277.122 132.653 277.713 133.166 278.143 133.879C278.572 134.592 278.787 135.539 278.787 136.721V144.543C278.787 145.07 278.826 145.632 278.904 146.228C278.992 146.823 279.114 147.336 279.271 147.766V148H276.59C276.463 147.688 276.365 147.272 276.297 146.755C276.229 146.228 276.194 145.739 276.194 145.29ZM276.604 138.391L276.634 140.295H274.832C274.217 140.295 273.655 140.363 273.147 140.5C272.649 140.637 272.22 140.837 271.858 141.101C271.497 141.354 271.219 141.672 271.023 142.053C270.838 142.434 270.745 142.868 270.745 143.356C270.745 143.991 270.833 144.499 271.009 144.88C271.185 145.251 271.448 145.52 271.8 145.686C272.151 145.852 272.596 145.935 273.133 145.935C273.787 145.935 274.363 145.783 274.861 145.48C275.359 145.178 275.745 144.812 276.019 144.382C276.302 143.952 276.434 143.552 276.414 143.181L276.985 144.396C276.946 144.777 276.819 145.192 276.604 145.642C276.399 146.081 276.111 146.506 275.74 146.916C275.369 147.316 274.93 147.648 274.422 147.912C273.924 148.166 273.362 148.293 272.737 148.293C271.819 148.293 271.014 148.117 270.32 147.766C269.637 147.414 269.104 146.896 268.724 146.213C268.343 145.529 268.152 144.685 268.152 143.679C268.152 142.917 268.284 142.214 268.548 141.569C268.812 140.925 269.202 140.368 269.72 139.899C270.237 139.421 270.887 139.05 271.668 138.786C272.459 138.522 273.372 138.391 274.407 138.391H276.604Z" fill="#FC9739"/>
<path d="M74.6868 0.00407445C75.2274 0.00703039 75.2274 0.00703039 75.7788 0.010046C76.1552 0.0151697 76.5315 0.0202933 76.9193 0.0255722C77.2992 0.0283311 77.6791 0.0310899 78.0706 0.0339324C79.0098 0.0411468 79.9489 0.0512125 80.8881 0.0637904C80.8881 0.265583 80.8881 0.467375 80.8881 0.675282C81.297 0.675282 81.7059 0.675282 82.1272 0.675282C82.1272 0.97797 82.1272 1.28066 82.1272 1.59252C83.3538 1.74386 83.3538 1.74386 84.6053 1.89826C84.7075 2.40274 84.8097 2.90723 84.915 3.42699C85.835 3.42699 86.755 3.42699 87.7029 3.42699C87.8051 3.72968 87.9073 4.03237 88.0127 4.34423C88.6378 4.39399 89.263 4.44376 89.8882 4.49352C90.4908 4.64998 90.4908 4.64998 91.1103 5.56721C91.7272 5.77848 92.3467 5.98273 92.9689 6.1787C93.0711 6.3805 93.1733 6.58229 93.2786 6.79019C93.8657 6.93244 93.8657 6.93244 94.537 6.98129C94.9395 7.01912 95.342 7.05696 95.7567 7.09594C95.7567 7.49953 95.7567 7.90311 95.7567 8.31892C96.9834 8.47027 96.9834 8.47027 98.2348 8.62467C98.3371 8.92736 98.4393 9.23005 98.5446 9.54191C99.1698 9.59167 99.7949 9.64143 100.42 9.6912C101.023 9.84765 101.023 9.84765 101.642 10.7649C102.747 10.9899 102.747 10.9899 103.811 11.0706C103.811 11.4742 103.811 11.8778 103.811 12.2936C104.096 12.2777 104.096 12.2777 104.388 12.2614C104.638 12.2531 104.888 12.2448 105.146 12.2363C105.518 12.2203 105.518 12.2203 105.898 12.204C106.764 12.3148 106.949 12.5926 107.528 13.2109C107.898 13.3117 108.269 13.4126 108.651 13.5166C108.996 13.6175 109.341 13.7184 109.696 13.8223C109.798 14.125 109.901 14.4277 110.006 14.7396C110.721 14.8405 111.437 14.9414 112.174 15.0453C112.276 15.348 112.379 15.6507 112.484 15.9626C113.711 16.1139 113.711 16.1139 114.962 16.2683C115.064 16.571 115.166 16.8737 115.272 17.1855C116.36 17.5615 116.36 17.5615 117.44 17.797C117.44 18.0997 117.44 18.4024 117.44 18.7143C117.958 18.7048 117.958 18.7048 118.486 18.6952C119.608 18.7143 119.608 18.7143 120.228 19.02C120.228 19.3227 120.228 19.6254 120.228 19.9373C121.046 19.9373 121.864 19.9373 122.706 19.9373C122.808 20.3408 122.911 20.7444 123.016 21.1602C123.191 21.1973 123.366 21.2343 123.547 21.2725C123.774 21.3237 124.001 21.375 124.236 21.4278C124.462 21.4774 124.688 21.5271 124.922 21.5783C125.494 21.7717 125.494 21.7717 125.804 22.3832C126.523 22.5078 127.246 22.6108 127.972 22.689C128.074 23.0926 128.177 23.4961 128.282 23.912C128.672 23.8867 129.061 23.8615 129.463 23.8355C130.155 23.8331 130.155 23.8331 130.76 23.912C131.244 24.4852 131.244 24.4852 131.689 25.1349C132.407 25.3549 133.13 25.5602 133.858 25.7464C133.96 25.9482 134.062 26.15 134.167 26.3579C134.694 26.4241 134.694 26.4241 135.232 26.4917C135.596 26.5484 135.96 26.6052 136.336 26.6637C136.54 26.9664 136.745 27.269 136.955 27.5809C137.319 27.6818 137.684 27.7827 138.059 27.8866C138.41 27.9875 138.762 28.0884 139.124 28.1924C139.226 28.4951 139.328 28.7978 139.433 29.1096C140.149 29.2105 140.864 29.3114 141.602 29.4154C141.602 29.7181 141.602 30.0208 141.602 30.3326C142.317 30.3326 143.033 30.3326 143.77 30.3326C143.872 30.7362 143.974 31.1398 144.08 31.5556C145.102 31.6565 146.124 31.7574 147.177 31.8613C147.28 32.2649 147.382 32.6685 147.487 33.0843C148.714 33.2357 148.714 33.2357 149.965 33.3901C150.067 33.6928 150.17 33.9954 150.275 34.3073C151.195 34.3073 152.115 34.3073 153.063 34.3073C153.547 35.3714 153.763 36.2158 153.781 37.38C153.787 37.6837 153.793 37.9874 153.799 38.3003C153.802 38.6298 153.806 38.9593 153.809 39.2988C153.815 39.6477 153.821 39.9967 153.827 40.3562C153.846 41.513 153.86 42.6697 153.873 43.8265C153.882 44.4367 153.891 45.0469 153.9 45.6571C154.021 53.9999 154.038 62.343 154.034 70.6865C154.033 71.8906 154.033 73.0947 154.034 74.2989C154.034 74.5024 154.034 74.706 154.034 74.9158C154.034 75.3299 154.034 75.744 154.034 76.1581C154.035 79.9677 154.034 83.7773 154.032 87.587C154.031 90.8491 154.031 94.1112 154.033 97.3732C154.034 101.202 154.035 105.031 154.034 108.859C154.033 110.872 154.033 112.885 154.034 114.899C154.035 116.775 154.035 118.651 154.033 120.527C154.032 121.215 154.033 121.904 154.033 122.592C154.034 123.528 154.033 124.463 154.031 125.398C154.032 125.674 154.033 125.949 154.034 126.232C154.028 128.101 154.028 128.101 153.682 128.783C153.166 128.885 152.65 128.987 152.134 129.088C152.031 129.29 151.929 129.492 151.824 129.7C151.003 129.881 150.185 129.927 149.346 130.006C149.346 130.308 149.346 130.611 149.346 130.923C149.174 130.979 149.002 131.034 148.825 131.091C148.601 131.168 148.377 131.245 148.145 131.324C147.923 131.399 147.7 131.473 147.47 131.55C146.762 131.829 146.762 131.829 146.248 132.757C145.578 132.847 145.578 132.847 144.815 132.815C144.562 132.806 144.309 132.798 144.048 132.79C143.757 132.774 143.757 132.774 143.46 132.757C143.358 133.06 143.256 133.363 143.15 133.675C142.805 133.7 142.46 133.725 142.105 133.751C141.734 133.827 141.364 133.902 140.982 133.98C140.886 134.182 140.79 134.384 140.692 134.592C140.583 134.794 140.474 134.995 140.363 135.203C139.528 135.415 138.75 135.454 137.884 135.509C137.782 135.812 137.68 136.115 137.575 136.426C136.859 136.426 136.144 136.426 135.406 136.426C135.304 136.83 135.202 137.234 135.097 137.649C134.758 137.675 134.419 137.7 134.071 137.726C132.747 137.992 132.748 138.181 131.999 139.178C131.012 139.255 131.012 139.255 130.14 139.178C130.14 139.582 130.14 139.985 130.14 140.401C129.795 140.433 129.45 140.464 129.095 140.497C128.539 140.601 128.539 140.601 127.972 140.707C127.768 141.009 127.563 141.312 127.353 141.624C126.633 141.75 125.943 141.758 125.213 141.776C124.999 141.827 124.785 141.877 124.565 141.93C124.348 142.332 124.142 142.74 123.945 143.153C122.822 143.382 122.822 143.382 121.777 143.459C121.777 143.66 121.777 143.862 121.777 144.07C121.152 144.199 120.526 144.329 119.901 144.458C119.184 144.658 119.184 144.658 118.679 145.599C117.711 145.809 117.711 145.809 116.821 145.904C116.718 146.207 116.616 146.51 116.511 146.822C115.591 146.923 114.671 147.023 113.723 147.127C113.723 147.43 113.723 147.733 113.723 148.045C112.905 148.045 112.087 148.045 111.245 148.045C111.143 148.448 111.04 148.852 110.935 149.268C110.59 149.35 110.245 149.432 109.89 149.516C108.699 149.775 108.699 149.775 108.147 150.796C107.024 151.007 107.024 151.007 105.979 151.102C105.877 151.405 105.774 151.708 105.669 152.019C104.647 152.12 103.625 152.221 102.572 152.325C102.572 152.527 102.572 152.729 102.572 152.937C102.22 153.019 101.869 153.101 101.507 153.185C101.143 153.305 100.778 153.425 100.403 153.548C100.301 153.851 100.199 154.153 100.093 154.465C99.1734 154.566 98.2534 154.667 97.3055 154.771C97.2033 155.175 97.1011 155.578 96.9958 155.994C96.7019 156.026 96.408 156.057 96.1052 156.09C95.047 156.204 95.047 156.204 94.5177 157.217C93.7973 157.429 93.0746 157.633 92.3493 157.829C92.2471 158.03 92.1449 158.232 92.0396 158.44C91.2191 158.622 90.4003 158.667 89.5615 158.746C89.4593 159.048 89.357 159.351 89.2517 159.663C88.5299 159.87 87.8071 160.074 87.0834 160.275C86.8789 160.577 86.6745 160.88 86.4638 161.192C85.8249 161.328 85.2189 161.345 84.5665 161.373C83.8588 161.455 83.8588 161.455 83.3662 162.415C83.0595 162.415 82.7529 162.415 82.4369 162.415C82.4369 162.617 82.4369 162.818 82.4369 163.026C81.065 163.041 79.693 163.052 78.321 163.06C77.855 163.063 77.3891 163.067 76.9231 163.072C76.2503 163.08 75.5775 163.083 74.9046 163.086C74.2987 163.091 74.2987 163.091 73.6806 163.096C72.4743 163.023 71.4878 162.832 70.3562 162.415C70.0495 161.961 70.0495 161.961 69.7366 161.497C69.3853 161.453 69.0339 161.409 68.6718 161.364C67.5683 161.192 67.5683 161.192 67.1037 160.599C66.9503 160.391 66.797 160.183 66.639 159.969C65.5267 159.575 65.5267 159.575 64.4707 159.357C64.4707 159.155 64.4707 158.954 64.4707 158.746C63.6529 158.645 62.8351 158.544 61.9926 158.44C61.9926 158.137 61.9926 157.835 61.9926 157.523C61.3674 157.473 60.7422 157.423 60.1171 157.374C59.5145 157.217 59.5145 157.217 58.8949 156.3C57.7898 156.075 57.7898 156.075 56.7266 155.994C56.6244 155.59 56.5222 155.187 56.4168 154.771C56.0718 154.74 55.7268 154.708 55.3714 154.676C55.0008 154.606 54.6303 154.537 54.2485 154.465C53.9418 154.011 53.9418 154.011 53.629 153.548C52.5238 153.323 52.5238 153.323 51.4606 153.242C51.4606 152.94 51.4606 152.637 51.4606 152.325C50.3362 152.224 49.2118 152.123 48.0532 152.019C48.0532 151.616 48.0532 151.212 48.0532 150.796C47.3377 150.796 46.6221 150.796 45.8849 150.796C45.6805 150.393 45.476 149.989 45.2654 149.573C44.5498 149.573 43.8343 149.573 43.097 149.573C43.0395 149.378 42.982 149.182 42.9228 148.981C42.4953 148.222 42.4953 148.222 41.3546 148.121C41.0096 148.096 40.6646 148.071 40.3092 148.045C40.3092 147.742 40.3092 147.439 40.3092 147.127C39.9642 147.134 39.6192 147.14 39.2637 147.147C38.1408 147.127 38.1408 147.127 37.5213 146.822C37.368 146.368 37.368 146.368 37.2115 145.904C36.496 145.804 35.7804 145.703 35.0432 145.599C34.941 145.195 34.8387 144.792 34.7334 144.376C34.2926 144.385 34.2926 144.385 33.8429 144.395C32.8749 144.376 32.8749 144.376 32.2553 144.07C32.2553 143.767 32.2553 143.465 32.2553 143.153C31.7378 143.172 31.7378 143.172 31.2099 143.191C30.087 143.153 30.087 143.153 29.4675 142.541C29.4675 142.239 29.4675 141.936 29.4675 141.624C28.7519 141.523 28.0364 141.422 27.2991 141.318C27.1458 140.864 27.1458 140.864 26.9894 140.401C25.9671 140.401 24.9449 140.401 23.8917 140.401C23.7895 139.997 23.6873 139.594 23.582 139.178C22.8664 139.178 22.1509 139.178 21.4136 139.178C21.3114 138.774 21.2092 138.371 21.1039 137.955C20.2861 137.854 19.4683 137.753 18.6258 137.649C18.4724 137.195 18.4724 137.195 18.316 136.732C17.6004 136.631 16.8849 136.53 16.1477 136.426C16.1477 136.124 16.1477 135.821 16.1477 135.509C15.2277 135.408 14.3077 135.307 13.3598 135.203C13.3598 134.8 13.3598 134.396 13.3598 133.98C12.542 133.88 11.7242 133.779 10.8817 133.675C10.7284 133.221 10.7284 133.221 10.5719 132.757C9.85637 132.757 9.14082 132.757 8.40358 132.757C8.25025 132.152 8.25025 132.152 8.09382 131.534C7.0716 131.434 6.04938 131.333 4.99619 131.229C4.89397 130.825 4.79175 130.422 4.68643 130.006C3.86865 129.905 3.05088 129.804 2.20832 129.7C2.05499 129.246 2.05499 129.246 1.89856 128.783C1.52481 128.792 1.52481 128.792 1.14351 128.802C0.349745 128.783 0.349745 128.783 0.0399824 128.477C0.0099019 127.981 0.00166006 127.484 0.00186701 126.988C0.00125026 126.663 0.000635441 126.339 0 126.005C0.00090229 125.644 0.00180235 125.283 0.00273198 124.912C0.00246731 124.532 0.00220114 124.152 0.00192846 123.761C0.00150462 122.702 0.00248342 121.643 0.0040318 120.583C0.00536408 119.443 0.00491495 118.303 0.00467934 117.163C0.00451657 115.186 0.00549263 113.208 0.00723171 111.231C0.00974452 108.373 0.0105571 105.514 0.0109468 102.655C0.0116255 98.0178 0.0136867 93.3803 0.016614 88.7428C0.0194555 84.2367 0.021649 79.7307 0.0229666 75.2246C0.023048 74.947 0.0231285 74.6695 0.0232124 74.3835C0.0236166 72.9912 0.0240089 71.5989 0.024394 70.2065C0.0276075 58.6478 0.0330654 47.089 0.0399824 35.5303C0.346648 35.5303 0.653313 35.5303 0.969271 35.5303C1.07149 35.1267 1.17371 34.7231 1.27903 34.3073C2.09681 34.3073 2.91458 34.3073 3.75714 34.3073C3.85936 33.9037 3.96158 33.5001 4.0669 33.0843C4.9869 33.0843 5.90689 33.0843 6.85477 33.0843C6.95699 32.6807 7.05921 32.2772 7.16453 31.8613C7.56064 31.8361 7.95675 31.8109 8.36486 31.7849C9.03963 31.7211 9.03963 31.7211 9.64263 31.5556C10.1351 30.9684 10.1351 30.9684 10.2622 30.3326C10.8755 30.3326 11.4888 30.3326 12.1207 30.3326C12.1207 30.0299 12.1207 29.7272 12.1207 29.4154C12.4657 29.3902 12.8107 29.3649 13.1662 29.3389C13.5367 29.2633 13.9073 29.1876 14.2891 29.1096C14.3849 28.9078 14.4807 28.706 14.5795 28.4981C14.7424 28.1954 14.7424 28.1954 14.9086 27.8866C15.7428 27.6753 16.5211 27.636 17.3867 27.5809C17.54 27.1269 17.54 27.1269 17.6965 26.6637C18.5142 26.5628 19.332 26.4619 20.1746 26.3579C20.1746 26.0552 20.1746 25.7525 20.1746 25.4407C20.5707 25.4155 20.9668 25.3902 21.3749 25.3642C22.0497 25.3004 22.0497 25.3004 22.6527 25.1349C23.1452 24.5477 23.1452 24.5477 23.2722 23.912C23.9878 23.912 24.7033 23.912 25.4405 23.912C25.4405 23.5084 25.4405 23.1048 25.4405 22.689C25.8303 22.6574 26.22 22.6259 26.6215 22.5934C27.7284 22.4633 28.0806 22.2578 28.8479 21.466C29.8353 21.4087 29.8353 21.4087 30.7065 21.466C30.764 21.1728 30.764 21.1728 30.8227 20.8736C30.8866 20.6655 30.9505 20.4574 31.0163 20.243C31.8554 19.8289 32.568 19.9174 33.4944 19.9373C33.4944 19.6346 33.4944 19.3319 33.4944 19.02C34.3335 18.6059 35.0461 18.6944 35.9725 18.7143C36.0747 18.3107 36.1769 17.9071 36.2822 17.4913C37.3556 17.3399 37.3556 17.3399 38.4506 17.1855C38.5528 16.8829 38.655 16.5802 38.7603 16.2683C39.5781 16.1674 40.3959 16.0665 41.2385 15.9626C41.3407 15.6599 41.4429 15.3572 41.5482 15.0453C41.8868 15.0201 42.2254 14.9949 42.5743 14.9689C43.7342 14.874 43.7342 14.874 44.1425 14.109C44.6458 13.5166 44.6458 13.5166 45.3198 13.4366C46.0281 13.4398 46.7275 13.464 47.4337 13.5166C47.4337 13.2139 47.4337 12.9112 47.4337 12.5994C48.2728 12.1853 48.9854 12.2737 49.9118 12.2936C49.9118 11.89 49.9118 11.4864 49.9118 11.0706C50.2057 11.0391 50.4996 11.0076 50.8024 10.9751C51.8606 10.8611 51.8606 10.8611 52.3899 9.84765C53.1127 9.74574 53.8355 9.64382 54.5583 9.54191C54.8649 9.08787 54.8649 9.08787 55.1778 8.62467C55.8481 8.46821 55.8481 8.46821 56.6104 8.41447C56.8636 8.39437 57.1168 8.37427 57.3776 8.35356C57.6687 8.33641 57.6687 8.33641 57.9656 8.31892C58.0679 7.91534 58.1701 7.51175 58.2754 7.09594C58.7833 7.04865 58.7833 7.04865 59.3015 7.0004C60.5073 6.7785 60.5934 6.67595 61.373 5.87296C62.3604 5.66276 62.3604 5.66276 63.2316 5.56721C63.2316 5.26452 63.2316 4.96184 63.2316 4.64998C63.4069 4.61293 63.5822 4.57588 63.7628 4.53771C63.99 4.48647 64.2172 4.43524 64.4513 4.38245C64.7909 4.30796 64.7909 4.30796 65.1374 4.23196C65.7738 4.09058 65.7738 4.09058 66.0195 3.42699C66.7301 3.33091 67.4313 3.31104 68.1479 3.28606C68.3655 3.23167 68.5831 3.17728 68.8074 3.12125C69.024 2.71876 69.2308 2.31093 69.4269 1.89826C70.5498 1.66896 70.5498 1.66896 71.5952 1.59252C71.6974 1.28983 71.7997 0.987142 71.905 0.675282C72.9871 -0.0367731 73.4105 -0.0082162 74.6868 0.00407445Z" fill="#FC9739"/>
<path d="M74.6868 0.00407445C75.2274 0.00703039 75.2274 0.00703039 75.7788 0.010046C76.1552 0.0151697 76.5315 0.0202933 76.9193 0.0255722C77.2992 0.0283311 77.6791 0.0310899 78.0706 0.0339324C79.0098 0.0411468 79.9489 0.0512125 80.8881 0.0637904C80.8881 0.265583 80.8881 0.467375 80.8881 0.675282C81.297 0.675282 81.7059 0.675282 82.1272 0.675282C82.1272 0.97797 82.1272 1.28066 82.1272 1.59252C83.3538 1.74386 83.3538 1.74386 84.6053 1.89826C84.7075 2.40274 84.8097 2.90723 84.915 3.42699C85.835 3.42699 86.755 3.42699 87.7029 3.42699C87.8051 3.72968 87.9073 4.03237 88.0127 4.34423C88.6378 4.39399 89.263 4.44376 89.8882 4.49352C90.4908 4.64998 90.4908 4.64998 91.1103 5.56721C91.7272 5.77848 92.3467 5.98273 92.9689 6.1787C93.0711 6.3805 93.1733 6.58229 93.2786 6.79019C93.8657 6.93244 93.8657 6.93244 94.537 6.98129C94.9395 7.01912 95.342 7.05696 95.7567 7.09594C95.7567 7.49953 95.7567 7.90311 95.7567 8.31892C96.9834 8.47027 96.9834 8.47027 98.2348 8.62467C98.3371 8.92736 98.4393 9.23005 98.5446 9.54191C99.1698 9.59167 99.7949 9.64143 100.42 9.6912C101.023 9.84765 101.023 9.84765 101.642 10.7649C102.747 10.9899 102.747 10.9899 103.811 11.0706C103.811 11.4742 103.811 11.8778 103.811 12.2936C104.096 12.2777 104.096 12.2777 104.388 12.2614C104.638 12.2531 104.888 12.2448 105.146 12.2363C105.518 12.2203 105.518 12.2203 105.898 12.204C106.764 12.3148 106.949 12.5926 107.528 13.2109C107.898 13.3117 108.269 13.4126 108.651 13.5166C108.996 13.6175 109.341 13.7184 109.696 13.8223C109.798 14.125 109.901 14.4277 110.006 14.7396C110.721 14.8405 111.437 14.9414 112.174 15.0453C112.276 15.348 112.379 15.6507 112.484 15.9626C113.711 16.1139 113.711 16.1139 114.962 16.2683C115.064 16.571 115.166 16.8737 115.272 17.1855C116.36 17.5615 116.36 17.5615 117.44 17.797C117.44 18.0997 117.44 18.4024 117.44 18.7143C117.958 18.7048 117.958 18.7048 118.486 18.6952C119.608 18.7143 119.608 18.7143 120.228 19.02C120.228 19.3227 120.228 19.6254 120.228 19.9373C121.046 19.9373 121.864 19.9373 122.706 19.9373C122.808 20.3408 122.911 20.7444 123.016 21.1602C123.191 21.1973 123.366 21.2343 123.547 21.2725C123.774 21.3237 124.001 21.375 124.236 21.4278C124.462 21.4774 124.688 21.5271 124.922 21.5783C125.494 21.7717 125.494 21.7717 125.804 22.3832C126.523 22.5078 127.246 22.6108 127.972 22.689C128.074 23.0926 128.177 23.4961 128.282 23.912C128.672 23.8867 129.061 23.8615 129.463 23.8355C130.155 23.8331 130.155 23.8331 130.76 23.912C131.244 24.4852 131.244 24.4852 131.689 25.1349C132.407 25.3549 133.13 25.5602 133.858 25.7464C133.96 25.9482 134.062 26.15 134.167 26.3579C134.694 26.4241 134.694 26.4241 135.232 26.4917C135.596 26.5484 135.96 26.6052 136.336 26.6637C136.54 26.9664 136.745 27.269 136.955 27.5809C137.319 27.6818 137.684 27.7827 138.059 27.8866C138.41 27.9875 138.762 28.0884 139.124 28.1924C139.226 28.4951 139.328 28.7978 139.433 29.1096C140.149 29.2105 140.864 29.3114 141.602 29.4154C141.602 29.7181 141.602 30.0208 141.602 30.3326C142.317 30.3326 143.033 30.3326 143.77 30.3326C143.872 30.7362 143.974 31.1398 144.08 31.5556C145.102 31.6565 146.124 31.7574 147.177 31.8613C147.28 32.2649 147.382 32.6685 147.487 33.0843C148.714 33.2357 148.714 33.2357 149.965 33.3901C150.067 33.6928 150.17 33.9954 150.275 34.3073C151.195 34.3073 152.115 34.3073 153.063 34.3073C153.547 35.3714 153.763 36.2158 153.781 37.38C153.787 37.6837 153.793 37.9874 153.799 38.3003C153.802 38.6298 153.806 38.9593 153.809 39.2988C153.815 39.6477 153.821 39.9967 153.827 40.3562C153.846 41.513 153.86 42.6697 153.873 43.8265C153.882 44.4367 153.891 45.0469 153.9 45.6571C154.021 53.9999 154.038 62.343 154.034 70.6865C154.033 71.8906 154.033 73.0947 154.034 74.2989C154.034 74.5024 154.034 74.706 154.034 74.9158C154.034 75.3299 154.034 75.744 154.034 76.1581C154.035 79.9677 154.034 83.7773 154.032 87.587C154.031 90.8491 154.031 94.1112 154.033 97.3732C154.034 101.202 154.035 105.031 154.034 108.859C154.033 110.872 154.033 112.885 154.034 114.899C154.035 116.775 154.035 118.651 154.033 120.527C154.032 121.215 154.033 121.904 154.033 122.592C154.034 123.528 154.033 124.463 154.031 125.398C154.032 125.674 154.033 125.949 154.034 126.232C154.028 128.101 154.028 128.101 153.682 128.783C153.166 128.885 152.65 128.987 152.134 129.088C152.031 129.29 151.929 129.492 151.824 129.7C151.003 129.881 150.185 129.927 149.346 130.006C149.346 130.308 149.346 130.611 149.346 130.923C149.174 130.979 149.002 131.034 148.825 131.091C148.601 131.168 148.377 131.245 148.145 131.324C147.923 131.399 147.7 131.473 147.47 131.55C146.762 131.829 146.762 131.829 146.248 132.757C145.578 132.847 145.578 132.847 144.815 132.815C144.562 132.806 144.309 132.798 144.048 132.79C143.757 132.774 143.757 132.774 143.46 132.757C143.358 133.06 143.256 133.363 143.15 133.675C142.805 133.7 142.46 133.725 142.105 133.751C141.734 133.827 141.364 133.902 140.982 133.98C140.886 134.182 140.79 134.384 140.692 134.592C140.583 134.794 140.474 134.995 140.363 135.203C139.528 135.415 138.75 135.454 137.884 135.509C137.782 135.812 137.68 136.115 137.575 136.426C136.859 136.426 136.144 136.426 135.406 136.426C135.304 136.83 135.202 137.234 135.097 137.649C134.758 137.675 134.419 137.7 134.071 137.726C132.747 137.992 132.748 138.181 131.999 139.178C131.012 139.255 131.012 139.255 130.14 139.178C130.14 139.582 130.14 139.985 130.14 140.401C129.795 140.433 129.45 140.464 129.095 140.497C128.539 140.601 128.539 140.601 127.972 140.707C127.768 141.009 127.563 141.312 127.353 141.624C126.633 141.75 125.943 141.758 125.213 141.776C124.999 141.827 124.785 141.877 124.565 141.93C124.348 142.332 124.142 142.74 123.945 143.153C122.822 143.382 122.822 143.382 121.777 143.459C121.777 143.66 121.777 143.862 121.777 144.07C121.152 144.199 120.526 144.329 119.901 144.458C119.184 144.658 119.184 144.658 118.679 145.599C117.711 145.809 117.711 145.809 116.821 145.904C116.718 146.207 116.616 146.51 116.511 146.822C115.591 146.923 114.671 147.023 113.723 147.127C113.723 147.43 113.723 147.733 113.723 148.045C112.905 148.045 112.087 148.045 111.245 148.045C111.143 148.448 111.04 148.852 110.935 149.268C110.59 149.35 110.245 149.432 109.89 149.516C108.699 149.775 108.699 149.775 108.147 150.796C107.024 151.007 107.024 151.007 105.979 151.102C105.877 151.405 105.774 151.708 105.669 152.019C104.647 152.12 103.625 152.221 102.572 152.325C102.572 152.527 102.572 152.729 102.572 152.937C102.22 153.019 101.869 153.101 101.507 153.185C101.143 153.305 100.778 153.425 100.403 153.548C100.301 153.851 100.199 154.153 100.093 154.465C99.1734 154.566 98.2534 154.667 97.3055 154.771C97.2033 155.175 97.1011 155.578 96.9958 155.994C96.7019 156.026 96.408 156.057 96.1052 156.09C95.047 156.204 95.047 156.204 94.5177 157.217C93.7973 157.429 93.0746 157.633 92.3493 157.829C92.2471 158.03 92.1449 158.232 92.0396 158.44C91.2191 158.622 90.4003 158.667 89.5615 158.746C89.4593 159.048 89.357 159.351 89.2517 159.663C88.5299 159.87 87.8071 160.074 87.0834 160.275C86.8789 160.577 86.6745 160.88 86.4638 161.192C85.8249 161.328 85.2189 161.345 84.5665 161.373C83.8588 161.455 83.8588 161.455 83.3662 162.415C83.0595 162.415 82.7529 162.415 82.4369 162.415C82.4369 162.617 82.4369 162.818 82.4369 163.026C81.065 163.041 79.693 163.052 78.321 163.06C77.855 163.063 77.3891 163.067 76.9231 163.072C76.2503 163.08 75.5775 163.083 74.9046 163.086C74.2987 163.091 74.2987 163.091 73.6806 163.096C72.4743 163.023 71.4878 162.832 70.3562 162.415C70.0495 161.961 70.0495 161.961 69.7366 161.497C69.3853 161.453 69.0339 161.409 68.6718 161.364C67.5683 161.192 67.5683 161.192 67.1037 160.599C66.9503 160.391 66.797 160.183 66.639 159.969C65.5267 159.575 65.5267 159.575 64.4707 159.357C64.4707 159.155 64.4707 158.954 64.4707 158.746C63.6529 158.645 62.8351 158.544 61.9926 158.44C61.9926 158.137 61.9926 157.835 61.9926 157.523C61.3674 157.473 60.7422 157.423 60.1171 157.374C59.5145 157.217 59.5145 157.217 58.8949 156.3C57.7898 156.075 57.7898 156.075 56.7266 155.994C56.6244 155.59 56.5222 155.187 56.4168 154.771C56.0718 154.74 55.7268 154.708 55.3714 154.676C55.0008 154.606 54.6303 154.537 54.2485 154.465C53.9418 154.011 53.9418 154.011 53.629 153.548C52.5238 153.323 52.5238 153.323 51.4606 153.242C51.4606 152.94 51.4606 152.637 51.4606 152.325C50.3362 152.224 49.2118 152.123 48.0532 152.019C48.0532 151.616 48.0532 151.212 48.0532 150.796C47.3377 150.796 46.6221 150.796 45.8849 150.796C45.6805 150.393 45.476 149.989 45.2654 149.573C44.5498 149.573 43.8343 149.573 43.097 149.573C43.0395 149.378 42.982 149.182 42.9228 148.981C42.4953 148.222 42.4953 148.222 41.3546 148.121C41.0096 148.096 40.6646 148.071 40.3092 148.045C40.3092 147.742 40.3092 147.439 40.3092 147.127C39.9642 147.134 39.6192 147.14 39.2637 147.147C38.1408 147.127 38.1408 147.127 37.5213 146.822C37.368 146.368 37.368 146.368 37.2115 145.904C36.496 145.804 35.7804 145.703 35.0432 145.599C34.941 145.195 34.8387 144.792 34.7334 144.376C34.2926 144.385 34.2926 144.385 33.8429 144.395C32.8749 144.376 32.8749 144.376 32.2553 144.07C32.2553 143.767 32.2553 143.465 32.2553 143.153C31.7378 143.172 31.7378 143.172 31.2099 143.191C30.087 143.153 30.087 143.153 29.4675 142.541C29.4675 142.239 29.4675 141.936 29.4675 141.624C28.7519 141.523 28.0364 141.422 27.2991 141.318C27.1458 140.864 27.1458 140.864 26.9894 140.401C25.9671 140.401 24.9449 140.401 23.8917 140.401C23.7895 139.997 23.6873 139.594 23.582 139.178C22.8664 139.178 22.1509 139.178 21.4136 139.178C21.3114 138.774 21.2092 138.371 21.1039 137.955C20.2861 137.854 19.4683 137.753 18.6258 137.649C18.4724 137.195 18.4724 137.195 18.316 136.732C17.6004 136.631 16.8849 136.53 16.1477 136.426C16.1477 136.124 16.1477 135.821 16.1477 135.509C15.2277 135.408 14.3077 135.307 13.3598 135.203C13.3598 134.8 13.3598 134.396 13.3598 133.98C12.542 133.88 11.7242 133.779 10.8817 133.675C10.7284 133.221 10.7284 133.221 10.5719 132.757C9.85637 132.757 9.14082 132.757 8.40358 132.757C8.25025 132.152 8.25025 132.152 8.09382 131.534C7.0716 131.434 6.04938 131.333 4.99619 131.229C4.89397 130.825 4.79175 130.422 4.68643 130.006C3.86865 129.905 3.05088 129.804 2.20832 129.7C2.05499 129.246 2.05499 129.246 1.89856 128.783C1.52481 128.792 1.52481 128.792 1.14351 128.802C0.349745 128.783 0.349745 128.783 0.0399824 128.477C0.0099019 127.981 0.00166006 127.484 0.00186701 126.988C0.00125026 126.663 0.000635441 126.339 0 126.005C0.00090229 125.644 0.00180235 125.283 0.00273198 124.912C0.00246731 124.532 0.00220114 124.152 0.00192846 123.761C0.00150462 122.702 0.00248342 121.643 0.0040318 120.583C0.00536408 119.443 0.00491495 118.303 0.00467934 117.163C0.00451657 115.186 0.00549263 113.208 0.00723171 111.231C0.00974452 108.373 0.0105571 105.514 0.0109468 102.655C0.0116255 98.0178 0.0136867 93.3803 0.016614 88.7428C0.0194555 84.2367 0.021649 79.7307 0.0229666 75.2246C0.023048 74.947 0.0231285 74.6695 0.0232124 74.3835C0.0236166 72.9912 0.0240089 71.5989 0.024394 70.2065C0.0276075 58.6478 0.0330654 47.089 0.0399824 35.5303C0.346648 35.5303 0.653313 35.5303 0.969271 35.5303C1.07149 35.1267 1.17371 34.7231 1.27903 34.3073C2.09681 34.3073 2.91458 34.3073 3.75714 34.3073C3.85936 33.9037 3.96158 33.5001 4.0669 33.0843C4.9869 33.0843 5.90689 33.0843 6.85477 33.0843C6.95699 32.6807 7.05921 32.2772 7.16453 31.8613C7.56064 31.8361 7.95675 31.8109 8.36486 31.7849C9.03963 31.7211 9.03963 31.7211 9.64263 31.5556C10.1351 30.9684 10.1351 30.9684 10.2622 30.3326C10.8755 30.3326 11.4888 30.3326 12.1207 30.3326C12.1207 30.0299 12.1207 29.7272 12.1207 29.4154C12.4657 29.3902 12.8107 29.3649 13.1662 29.3389C13.5367 29.2633 13.9073 29.1876 14.2891 29.1096C14.3849 28.9078 14.4807 28.706 14.5795 28.4981C14.7424 28.1954 14.7424 28.1954 14.9086 27.8866C15.7428 27.6753 16.5211 27.636 17.3867 27.5809C17.54 27.1269 17.54 27.1269 17.6965 26.6637C18.5142 26.5628 19.332 26.4619 20.1746 26.3579C20.1746 26.0552 20.1746 25.7525 20.1746 25.4407C20.5707 25.4155 20.9668 25.3902 21.3749 25.3642C22.0497 25.3004 22.0497 25.3004 22.6527 25.1349C23.1452 24.5477 23.1452 24.5477 23.2722 23.912C23.9878 23.912 24.7033 23.912 25.4405 23.912C25.4405 23.5084 25.4405 23.1048 25.4405 22.689C25.8303 22.6574 26.22 22.6259 26.6215 22.5934C27.7284 22.4633 28.0806 22.2578 28.8479 21.466C29.8353 21.4087 29.8353 21.4087 30.7065 21.466C30.764 21.1728 30.764 21.1728 30.8227 20.8736C30.8866 20.6655 30.9505 20.4574 31.0163 20.243C31.8554 19.8289 32.568 19.9174 33.4944 19.9373C33.4944 19.6346 33.4944 19.3319 33.4944 19.02C34.3335 18.6059 35.0461 18.6944 35.9725 18.7143C36.0747 18.3107 36.1769 17.9071 36.2822 17.4913C37.3556 17.3399 37.3556 17.3399 38.4506 17.1855C38.5528 16.8829 38.655 16.5802 38.7603 16.2683C39.5781 16.1674 40.3959 16.0665 41.2385 15.9626C41.3407 15.6599 41.4429 15.3572 41.5482 15.0453C41.8868 15.0201 42.2254 14.9949 42.5743 14.9689C43.7342 14.874 43.7342 14.874 44.1425 14.109C44.6458 13.5166 44.6458 13.5166 45.3198 13.4366C46.0281 13.4398 46.7275 13.464 47.4337 13.5166C47.4337 13.2139 47.4337 12.9112 47.4337 12.5994C48.2728 12.1853 48.9854 12.2737 49.9118 12.2936C49.9118 11.89 49.9118 11.4864 49.9118 11.0706C50.2057 11.0391 50.4996 11.0076 50.8024 10.9751C51.8606 10.8611 51.8606 10.8611 52.3899 9.84765C53.1127 9.74574 53.8355 9.64382 54.5583 9.54191C54.8649 9.08787 54.8649 9.08787 55.1778 8.62467C55.8481 8.46821 55.8481 8.46821 56.6104 8.41447C56.8636 8.39437 57.1168 8.37427 57.3776 8.35356C57.6687 8.33641 57.6687 8.33641 57.9656 8.31892C58.0679 7.91534 58.1701 7.51175 58.2754 7.09594C58.7833 7.04865 58.7833 7.04865 59.3015 7.0004C60.5073 6.7785 60.5934 6.67595 61.373 5.87296C62.3604 5.66276 62.3604 5.66276 63.2316 5.56721C63.2316 5.26452 63.2316 4.96184 63.2316 4.64998C63.4069 4.61293 63.5822 4.57588 63.7628 4.53771C63.99 4.48647 64.2172 4.43524 64.4513 4.38245C64.7909 4.30796 64.7909 4.30796 65.1374 4.23196C65.7738 4.09058 65.7738 4.09058 66.0195 3.42699C66.7301 3.33091 67.4313 3.31104 68.1479 3.28606C68.3655 3.23167 68.5831 3.17728 68.8074 3.12125C69.024 2.71876 69.2308 2.31093 69.4269 1.89826C70.5498 1.66896 70.5498 1.66896 71.5952 1.59252C71.6974 1.28983 71.7997 0.987142 71.905 0.675282C72.9871 -0.0367731 73.4105 -0.0082162 74.6868 0.00407445ZM73.2408 7.68832C72.7157 7.94203 72.1906 8.19562 71.6654 8.4491C71.3976 8.57981 71.1297 8.71051 70.8538 8.84517C69.5789 9.46254 68.2924 10.0549 67.0069 10.6502C65.3083 11.4403 63.6252 12.2516 61.9538 13.0962C60.1409 14.0024 58.2909 14.7621 56.4072 15.5089C55.0424 16.0553 53.7671 16.6601 52.4964 17.3981C50.9613 18.2416 49.3417 18.9315 47.7456 19.6545C47.1185 19.9397 46.493 20.2281 45.868 20.5177C45.6632 20.6125 45.4584 20.7074 45.2474 20.8051C44.9496 20.9431 44.9496 20.9431 44.6458 21.0838C43.584 21.5756 42.5261 22.0577 41.4417 22.4991C40.0348 23.1148 38.7087 23.8395 37.3664 24.5808C36.8127 24.8835 36.259 25.1861 35.7051 25.4885C35.2986 25.7107 35.2986 25.7107 34.8839 25.9375C31.1668 27.9669 27.3868 29.7984 23.5305 31.5556C20.9736 32.7229 18.4561 33.9237 15.9876 35.2649C14.3016 36.1681 12.5597 36.8689 10.7679 37.5415C9.92331 37.8966 9.92331 37.8966 9.62085 38.583C9.57998 39.2172 9.57998 39.2172 10.0185 39.6508C10.6511 40.1831 11.2616 40.4966 12.0143 40.845C12.4471 41.0472 12.4471 41.0472 12.8886 41.2535C13.1975 41.3953 13.5063 41.5372 13.8244 41.6834C14.1408 41.8308 14.4572 41.9782 14.7832 42.1301C15.7534 42.5818 16.7248 43.0309 17.6965 43.4797C18.5396 43.8703 19.3824 44.2615 20.2248 44.6535C20.7209 44.8843 21.2173 45.1141 21.7143 45.343C22.6306 45.768 23.5157 46.1919 24.383 46.7091C25.3188 47.2592 26.2964 47.6469 27.2991 48.0659C28.0571 48.437 28.8115 48.8123 29.5643 49.1933C31.3479 50.0868 33.1498 50.9122 34.9851 51.6966C37.2366 52.6618 39.3956 53.7536 41.5568 54.9006C43.2918 55.8141 45.0494 56.6196 46.8588 57.3774C48.9718 58.2671 51.0129 59.2858 53.0586 60.3157C53.9102 60.7423 54.767 61.1583 55.6231 61.576C60.1879 63.8349 60.1879 63.8349 61.0633 64.8819C61.1949 66.1287 61.1602 66.5729 60.4438 67.6336C58.4891 68.2422 56.71 67.4409 54.9842 66.5635C54.3339 66.2243 53.6866 65.8803 53.0408 65.5328C52.0047 64.9833 50.9479 64.4766 49.8925 63.9646C47.8586 62.9683 45.8607 61.9146 43.8714 60.8343C42.8998 60.3516 41.9508 59.9774 40.9314 59.6141C39.9008 59.2238 38.9284 58.7287 37.9472 58.2319C37.7321 58.1245 37.5169 58.017 37.2952 57.9063C36.6473 57.5827 36.0001 57.2577 35.353 56.9325C32.5708 55.5421 29.7689 54.2022 26.9509 52.8844C25.315 52.1177 23.6882 51.3368 22.0719 50.5309C19.1683 49.0848 16.2314 47.7079 13.2938 46.3308C12.4778 45.9479 11.6627 45.5631 10.8478 45.178C10.3751 44.9558 9.90243 44.7336 9.42967 44.5116C9.10987 44.3599 9.10987 44.3599 8.7836 44.2052C7.83758 43.763 6.94483 43.4032 5.92548 43.1739C5.66435 45.1865 5.57034 47.1477 5.57221 49.1754C5.57129 49.4917 5.57037 49.8081 5.56942 50.134C5.56675 51.1881 5.56627 52.2421 5.5658 53.2962C5.56437 54.0542 5.56281 54.8122 5.56114 55.5702C5.55709 57.6244 5.55507 59.6785 5.5537 61.7327C5.55284 63.0155 5.55154 64.2983 5.55014 65.5811C5.54637 69.1346 5.54318 72.688 5.54213 76.2415C5.54206 76.4685 5.54199 76.6954 5.54192 76.9292C5.54185 77.1567 5.54178 77.3842 5.54172 77.6185C5.54158 78.0794 5.54144 78.5404 5.5413 79.0013C5.54123 79.2299 5.54116 79.4585 5.54109 79.6941C5.53987 83.4063 5.53445 87.1185 5.52725 90.8307C5.51991 94.6441 5.51604 98.4574 5.51568 102.271C5.5154 104.411 5.51361 106.551 5.508 108.692C5.50274 110.702 5.50221 112.712 5.50494 114.722C5.50518 115.461 5.50382 116.2 5.50077 116.94C5.49686 117.945 5.49863 118.951 5.50188 119.957C5.49938 120.252 5.49689 120.547 5.49432 120.851C5.49636 121.12 5.4984 121.388 5.5005 121.665C5.50032 121.897 5.50013 122.13 5.49994 122.369C5.64889 123.147 5.92798 123.399 6.545 123.891C7.21106 124.281 7.87256 124.646 8.55846 124.999C8.76004 125.104 8.96161 125.209 9.16929 125.317C11.3182 126.424 13.5114 127.436 15.706 128.451C17.0839 129.088 18.4429 129.76 19.8007 130.438C21.0844 131.065 22.3819 131.661 23.6788 132.261C25.5413 133.122 27.3715 134.021 29.1771 134.993C30.6173 135.768 32.0525 136.433 33.5875 137.004C35.573 137.81 37.468 138.829 39.3799 139.79C48.2039 144.208 48.2039 144.208 57.2348 148.189C58.3036 148.669 59.3056 149.218 60.3267 149.787C61.5515 150.448 62.8169 151.021 64.0835 151.599C65.6005 152.293 67.0736 152.985 68.4976 153.854C69.0228 154.079 69.5482 154.303 70.0779 154.518C70.9293 154.885 71.7414 155.321 72.5572 155.759C73.2298 156.071 73.2298 156.071 74.3831 155.994C74.7748 149.339 74.7387 142.683 74.7345 136.019C74.7337 134.371 74.7344 132.722 74.7349 131.074C74.7354 128.304 74.7347 125.533 74.7332 122.763C74.7316 119.594 74.7321 116.425 74.7338 113.256C74.7352 110.506 74.7354 107.755 74.7346 105.005C74.7341 103.376 74.734 101.747 74.7351 100.117C74.7367 96.857 74.7299 93.5971 74.704 90.337C74.6921 88.6296 74.6995 86.9235 74.7203 85.2162C74.7312 84.1091 74.7297 83.0023 74.7254 81.8951C74.7262 81.3796 74.7322 80.864 74.7439 80.3486C74.8687 77.5419 74.8687 77.5419 73.7389 75.0612C72.2556 73.8624 70.7149 73.1917 68.8571 72.7491C68.0931 72.4939 67.7497 72.2351 67.2585 71.6083C67.0934 70.5138 67.1326 69.9758 67.7232 69.0285C68.6638 68.4483 69.2322 68.5364 70.306 68.6939C71.6274 69.0148 72.7254 69.7501 73.8737 70.448C75.3634 71.3003 76.3764 71.461 78.1002 71.3025C78.7698 71.1169 78.7698 71.1169 79.3006 70.7866C79.5058 70.6743 79.7111 70.5619 79.9225 70.4462C80.1389 70.3252 80.3554 70.2042 80.5783 70.0795C81.0675 69.8349 81.558 69.593 82.0497 69.3534C82.9159 68.9266 83.7812 68.4983 84.6452 68.0671C84.9706 67.9051 85.2961 67.7431 85.6314 67.5763C85.9304 67.4269 86.2295 67.2775 86.5377 67.1236C87.0873 66.862 87.6455 66.617 88.2123 66.3939C89.0381 66.0667 89.7781 65.6316 90.5476 65.1936C92.3734 64.1821 93.6951 63.7978 95.7567 63.9646C96.4501 64.2764 96.4501 64.2764 96.9958 64.5761C96.7706 65.8585 96.5079 66.9801 95.4458 67.8169C95.197 67.955 94.9482 68.0932 94.6919 68.2355C94.4141 68.3901 94.1362 68.5446 93.8499 68.7038C92.4258 69.4449 90.9817 70.1343 89.5228 70.8057C88.897 71.0976 88.2715 71.3898 87.646 71.6823C87.3414 71.8245 87.0368 71.9667 86.7229 72.1132C85.4759 72.6984 84.2352 73.2954 82.9984 73.9014C82.8001 73.9973 82.6018 74.0932 82.3974 74.192C81.4037 74.6813 80.4717 75.1487 79.6491 75.8887C79.4657 76.5279 79.4657 76.5279 79.4966 77.2526C79.4941 77.5335 79.4917 77.8143 79.4891 78.1037C79.4927 78.4127 79.4963 78.7217 79.5001 79.0401C79.4985 79.532 79.4985 79.532 79.4968 80.0338C79.4948 81.138 79.5016 82.242 79.5084 83.3463C79.5087 84.1356 79.5085 84.9249 79.5078 85.7143C79.5072 87.4165 79.5111 89.1187 79.518 90.8209C79.5281 93.282 79.5313 95.7431 79.5329 98.2042C79.5356 102.197 79.5439 106.19 79.5556 110.183C79.567 114.062 79.5757 117.941 79.581 121.82C79.5813 122.059 79.5816 122.298 79.582 122.544C79.5836 123.743 79.5852 124.942 79.5867 126.142C79.5996 136.092 79.6214 146.043 79.6491 155.994C80.7955 156.021 81.3837 155.989 82.3268 155.329C83.8104 154.355 85.375 153.624 86.9866 152.879C87.2969 152.734 87.6071 152.589 87.9268 152.44C88.5692 152.14 89.2119 151.84 89.8549 151.542C91.3009 150.87 92.745 150.193 94.1886 149.516C94.4573 149.39 94.726 149.264 95.0028 149.134C96.8339 148.274 98.6502 147.387 100.461 146.485C102.146 145.648 103.852 144.856 105.562 144.069C107.029 143.391 108.482 142.689 109.928 141.968C112.128 140.872 114.35 139.826 116.577 138.785C118.443 137.911 120.294 137.012 122.138 136.092C123.868 135.233 125.617 134.416 127.373 133.61C128.825 132.943 130.26 132.248 131.689 131.534C135.281 129.742 135.281 129.742 136.723 129.127C138.689 128.281 140.591 127.305 142.505 126.351C143.143 126.035 143.783 125.721 144.423 125.408C144.623 125.31 144.823 125.212 145.029 125.111C145.58 124.841 146.131 124.572 146.682 124.303C147.445 123.963 147.445 123.963 147.797 123.585C148.112 121.679 148.15 119.813 148.144 117.885C148.144 117.565 148.144 117.244 148.145 116.914C148.145 115.844 148.144 114.774 148.142 113.704C148.142 112.936 148.142 112.167 148.142 111.399C148.142 109.747 148.141 108.094 148.139 106.442C148.137 104.052 148.136 101.663 148.136 99.2742C148.135 95.3976 148.133 91.5209 148.13 87.6442C148.127 83.8795 148.125 80.1147 148.124 76.3499C148.124 76.1176 148.124 75.8854 148.123 75.6461C148.123 74.481 148.123 73.3159 148.122 72.1507C148.119 62.4918 148.114 52.8329 148.107 43.1739C146.745 43.4126 145.646 43.8829 144.428 44.5116C142.243 45.6146 140.041 46.677 137.826 47.7219C137.519 47.8675 137.212 48.0131 136.895 48.163C136.604 48.3004 136.313 48.4379 136.013 48.5794C135.754 48.7015 135.495 48.8237 135.228 48.9495C134.716 49.1807 134.198 49.3984 133.675 49.6038C132.413 50.1049 131.24 50.782 130.048 51.4261C128.478 52.2662 126.898 53.0142 125.193 53.5561C124.058 53.9418 123.015 54.4611 121.951 55.0025C120.075 55.9439 118.185 56.845 116.274 57.7148C115.173 58.217 114.086 58.7377 113.007 59.2829C112.029 59.7736 111.05 60.1955 110.025 60.5823C108.526 61.1512 107.164 61.8934 105.777 62.6891C105.05 63.0474 105.05 63.0474 104.12 63.0474C103.501 62.1302 103.501 62.1302 103.463 61.404C104.014 60.1317 105.072 59.7158 106.269 59.0727C106.51 58.9386 106.75 58.8045 106.997 58.6663C108.468 57.852 109.958 57.0847 111.477 56.3628C112.514 55.8458 113.494 55.2439 114.484 54.6454C115.264 54.1851 116.056 53.7605 116.859 53.34C118.109 52.6788 119.304 51.9613 120.496 51.2054C122.393 50.0035 124.209 48.9878 126.322 48.1901C127.697 47.6163 128.999 46.9268 130.315 46.2314C132.113 45.2822 133.908 44.3742 135.775 43.5633C138.711 42.2494 141.599 40.7909 144.39 39.1992C143.929 37.9313 143.232 37.6041 142.028 37.0399C141.717 36.8913 141.406 36.7427 141.086 36.5896C140.337 36.265 139.602 35.9729 138.836 35.6975C137.594 35.2461 136.428 34.6931 135.252 34.0971C134.819 33.8809 134.387 33.6647 133.954 33.4486C133.735 33.3383 133.515 33.228 133.289 33.1143C132.19 32.5641 131.088 32.022 129.986 31.4792C129.595 31.2865 129.205 31.0938 128.814 30.9011C128.625 30.8076 128.435 30.7142 128.24 30.6179C127.85 30.4255 127.461 30.2325 127.072 30.039C125.453 29.2352 123.821 28.4622 122.183 27.6956C121.902 27.5636 121.621 27.4316 121.332 27.2956C119.88 26.6138 118.427 25.9345 116.972 25.2591C114.358 24.0432 111.774 22.8055 109.241 21.4348C107.546 20.5309 105.796 19.7772 104.029 19.0219C102.277 18.265 100.596 17.4169 98.9177 16.5122C97.0822 15.5257 95.1991 14.6806 93.2805 13.8658C91.5521 13.1224 89.8872 12.293 88.2256 11.4146C87.7079 11.1436 87.19 10.8729 86.672 10.6025C86.2997 10.408 86.2997 10.408 85.9199 10.2095C83.6595 9.03282 81.4048 7.92677 79.0174 7.02309C78.41 6.79019 78.41 6.79019 77.7905 6.48445C76.0026 6.27354 74.7918 6.91653 73.2408 7.68832Z" fill="#030100"/>
<path d="M468.9 49.8348C506.786 49.8348 506.786 49.8348 513.512 56.003C517.403 60.3094 518.694 65.4799 518.48 71.1345C518.123 76.4974 516.289 80.9162 512.304 84.6273C508.605 87.7692 508.605 87.7692 506.649 87.7692C508.926 92.1572 511.209 96.5375 513.621 100.855C515.273 103.829 516.835 106.849 518.397 109.869C518.501 110.069 518.605 110.269 518.712 110.475C518.994 111.021 519.277 111.567 519.559 112.114C520.046 113.054 520.046 113.054 520.598 113.897C521 114.601 521 114.601 521 115.526C515.955 115.526 510.911 115.526 505.713 115.526C503.351 111.045 501.01 106.561 498.737 102.035C497.573 99.7221 496.374 97.4295 495.128 95.1584C495.01 94.9415 494.892 94.7246 494.771 94.5012C494.669 94.3164 494.568 94.1317 494.463 93.9413C494.088 93.1462 493.827 92.3025 493.546 91.4701C489.943 91.4701 486.339 91.4701 482.627 91.4701C482.627 99.4086 482.627 107.347 482.627 115.526C478.097 115.526 473.567 115.526 468.9 115.526C468.9 93.848 468.9 72.1698 468.9 49.8348ZM482.627 60.9375C482.627 67.3494 482.627 73.7612 482.627 80.3674C485.223 80.3769 485.223 80.3769 487.872 80.3866C488.68 80.3908 488.68 80.3908 489.505 80.3951C496.198 80.5307 496.198 80.5307 501.969 77.5146C504.025 75.2045 504.551 72.6036 504.465 69.573C504.089 66.6241 503.009 64.4333 500.682 62.5374C497.193 60.3974 492.877 60.8287 488.944 60.8797C486.86 60.8988 484.775 60.9179 482.627 60.9375Z" fill="black"/>
<path d="M172.303 49.8348C176.892 49.8348 181.482 49.8348 186.211 49.8348C186.22 51.8402 186.22 51.8402 186.23 53.8862C186.251 58.3133 186.275 62.7405 186.302 67.1676C186.317 69.8506 186.332 72.5336 186.344 75.2167C186.355 77.557 186.367 79.8973 186.382 82.2376C186.39 83.4751 186.397 84.7127 186.401 85.9502C186.406 87.1186 186.413 88.2869 186.422 89.4552C186.426 90.0812 186.427 90.7073 186.428 91.3333C186.467 95.5866 186.583 100.173 189.609 103.5C192.676 106.039 196.575 106.365 200.401 106.101C203.198 105.807 205.588 104.749 207.389 102.578C209.614 99.2147 209.697 95.5904 209.702 91.6772C209.705 91.219 209.709 90.7608 209.712 90.3026C209.721 89.0678 209.725 87.833 209.73 86.5981C209.735 85.3043 209.743 84.0104 209.751 82.7166C209.766 80.2705 209.778 77.8245 209.788 75.3785C209.8 72.592 209.816 69.8056 209.832 67.0192C209.864 61.2911 209.892 55.5629 209.918 49.8348C214.612 49.8348 219.306 49.8348 224.142 49.8348C224.163 55.8881 224.181 61.9413 224.191 67.9946C224.196 70.8058 224.203 73.6169 224.214 76.428C224.223 78.8803 224.229 81.3326 224.231 83.7849C224.232 85.0814 224.235 86.3779 224.242 87.6745C224.249 88.899 224.251 90.1235 224.249 91.348C224.25 91.7934 224.251 92.2389 224.255 92.6843C224.302 98.6706 223.221 104.386 219.401 109.171C219.239 109.386 219.078 109.601 218.912 109.823C215.453 114.143 209.622 116.766 204.23 117.55C202.212 117.756 200.19 117.776 198.163 117.785C197.951 117.787 197.739 117.789 197.521 117.791C190.003 117.835 183.414 115.711 177.992 110.427C177.79 110.233 177.588 110.04 177.38 109.842C173.135 105.447 172.097 99.301 172.159 93.4593C172.159 92.9791 172.159 92.499 172.159 92.0188C172.158 90.7328 172.166 89.447 172.174 88.161C172.182 86.8106 172.183 85.4602 172.185 84.1098C172.188 81.5604 172.199 79.011 172.212 76.4617C172.226 73.556 172.233 70.6503 172.239 67.7446C172.252 61.7746 172.275 55.8047 172.303 49.8348Z" fill="black"/>
<path d="M322.768 49.2183C323.353 49.4257 323.353 49.4257 323.95 49.6372C329.54 51.8379 333.446 55.6271 336.062 60.9595C337.193 63.6573 337.328 65.9236 337.328 68.8928C332.628 68.8928 327.927 68.8928 323.084 68.8928C322.771 67.1649 322.771 67.1649 322.451 65.4021C321.449 62.8329 320.022 61.3492 317.506 60.2058C314 59.0474 309.401 59.1323 306.01 60.5889C305.334 60.9543 305.334 60.9543 304.678 61.4789C304.093 61.9115 304.093 61.9115 303.46 61.9115C302.421 63.8342 301.6 65.7227 301.877 67.9408C302.805 70.7828 304.747 72.114 307.314 73.4346C309.652 74.6106 312.068 75.4468 314.552 76.2545C322.736 78.9261 331.409 82.1019 335.746 90.1539C336.261 91.4032 336.676 92.6529 337.012 93.9619C337.103 94.3147 337.103 94.3147 337.196 94.6746C337.721 98.1396 337.704 102.121 336.379 105.386C336.223 105.783 336.223 105.783 336.063 106.188C334.011 110.808 329.98 113.857 325.398 115.674C316.834 118.882 306.535 118.338 298.183 114.766C292.666 112.176 288.532 108.309 286.367 102.53C285.461 99.985 285.417 98.0423 285.417 95.2312C290.118 95.2312 294.818 95.2312 299.661 95.2312C299.975 97.2732 299.975 97.2732 300.294 99.3565C301.111 101.616 302.412 103.092 304.409 104.434C306.417 105.352 308.533 105.927 310.74 106.02C311.033 106.033 311.326 106.046 311.628 106.059C314.969 106.131 318.045 105.721 320.869 103.799C322.585 102.004 322.908 100.239 322.871 97.8343C322.671 95.8602 321.998 94.3875 320.528 93.0434C317.038 90.6068 312.665 89.3107 308.668 87.9642C301.307 85.4777 293.302 82.2745 289.305 75.1167C286.993 70.3886 286.753 65.675 288.266 60.6422C290.237 55.805 294.219 52.3692 298.89 50.2496C306.062 47.2296 315.373 46.5893 322.768 49.2183Z" fill="black"/>
<path d="M425.102 49.8348C429.34 49.8348 433.579 49.8348 437.946 49.8348C440.498 56.5497 443.029 63.2715 445.528 70.0066C445.967 71.19 446.407 72.3732 446.846 73.5564C447.49 75.2897 448.134 77.0231 448.778 78.7565C449.991 82.0237 451.205 85.2905 452.42 88.5571C452.558 88.9271 452.558 88.9271 452.698 89.3045C453.153 90.5295 453.609 91.7544 454.065 92.9794C454.493 94.1309 454.921 95.2825 455.349 96.434C455.513 96.8738 455.676 97.3136 455.84 97.7533C456.236 98.8181 456.632 99.8829 457.027 100.948C457.755 102.91 458.486 104.871 459.224 106.83C459.57 107.75 459.915 108.671 460.261 109.592C460.425 110.03 460.59 110.468 460.756 110.905C460.984 111.508 461.211 112.111 461.437 112.715C461.566 113.058 461.695 113.401 461.828 113.754C462.104 114.601 462.104 114.601 462.104 115.526C457.26 115.526 452.416 115.526 447.426 115.526C446.719 113.452 446.013 111.379 445.285 109.242C445.061 108.588 444.838 107.933 444.608 107.259C444.432 106.742 444.256 106.225 444.081 105.708C443.988 105.438 443.896 105.168 443.801 104.89C443.714 104.633 443.627 104.376 443.537 104.112C443.461 103.889 443.385 103.666 443.307 103.436C443.144 102.881 443.144 102.881 443.144 102.264C435.475 102.366 427.805 102.468 419.903 102.573C418.49 106.847 417.078 111.122 415.622 115.526C410.778 115.526 405.934 115.526 400.943 115.526C401.192 114.019 401.542 112.755 402.078 111.349C402.164 111.121 402.249 110.893 402.337 110.658C402.524 110.16 402.712 109.662 402.9 109.165C403.314 108.07 403.724 106.974 404.135 105.879C404.356 105.288 404.577 104.698 404.799 104.108C405.978 100.967 407.14 97.8206 408.301 94.6731C408.669 93.675 409.038 92.6769 409.406 91.6789C409.906 90.3261 410.405 88.9732 410.905 87.6203C411.627 85.664 412.349 83.7077 413.072 81.7516C413.189 81.4341 413.306 81.1167 413.427 80.7896C414.019 79.1878 414.61 77.5861 415.202 75.9846C416.331 72.9304 417.459 69.8759 418.584 66.82C419.203 65.1357 419.824 63.4517 420.444 61.7678C420.821 60.7458 421.197 59.7237 421.573 58.7012C421.99 57.5648 422.409 56.4291 422.827 55.2934C422.951 54.9549 423.075 54.6164 423.203 54.2676C423.319 53.9536 423.435 53.6396 423.555 53.3161C423.655 53.0444 423.755 52.7727 423.858 52.4927C424.225 51.5856 424.667 50.7111 425.102 49.8348ZM431.218 67.4141C430.22 70.419 429.223 73.4242 428.228 76.4298C427.765 77.8253 427.303 79.2207 426.839 80.6158C426.392 81.9614 425.946 83.3072 425.501 84.6532C425.33 85.1676 425.16 85.6818 424.989 86.1959C424.75 86.9142 424.512 87.6328 424.275 88.3515C424.167 88.6726 424.167 88.6726 424.058 89.0002C423.695 90.0582 423.695 90.0582 423.573 91.1617C428.82 91.1617 434.068 91.1617 439.475 91.1617C438.347 87.6394 437.217 84.1179 436.079 80.5988C435.896 80.0305 435.712 79.4622 435.528 78.8938C434.985 77.2108 434.439 75.5286 433.889 73.8475C433.714 73.3107 433.539 72.7735 433.366 72.2361C433.123 71.4842 432.877 70.7333 432.63 69.9826C432.558 69.7573 432.486 69.532 432.411 69.2999C432.096 68.1357 432.096 68.1357 431.218 67.4141Z" fill="black"/>
<path d="M369.978 49.8352C370.286 49.8362 370.286 49.8362 370.601 49.8372C376.854 49.8697 382.292 51.1872 387.42 54.8811C387.613 55.0159 387.805 55.1507 388.003 55.2895C392.267 58.5858 395.122 64.2493 396.103 69.4196C396.205 70.7467 396.308 72.0737 396.413 73.4409C391.808 73.4409 387.203 73.4409 382.459 73.4409C382.152 71.8077 381.845 70.1744 381.529 68.4916C380.406 65.8107 379.144 64.0692 376.567 62.6144C374.397 61.7746 372.369 61.5333 370.055 61.551C369.77 61.5449 369.484 61.5387 369.19 61.5323C366.146 61.5345 363.376 62.5665 361.142 64.6697C357.361 68.6436 356.686 74.3469 356.647 79.6021C356.645 79.9277 356.642 80.2533 356.64 80.5887C356.635 81.2779 356.632 81.9671 356.63 82.6564C356.626 83.3495 356.62 84.0426 356.61 84.7356C356.529 90.8345 356.508 97.9991 360.737 102.911C361.335 103.467 361.929 103.927 362.613 104.374C362.803 104.5 362.994 104.625 363.191 104.755C366.57 106.688 370.802 106.47 374.491 105.709C377.055 104.977 378.935 103.711 380.461 101.513C381.683 99.3141 381.908 97.3485 382.459 94.7847C387.064 94.7847 391.669 94.7847 396.413 94.7847C396.049 99.1379 396.049 99.1379 395.425 101.145C395.356 101.369 395.288 101.593 395.217 101.823C393.374 107.59 389.251 112.136 383.922 114.956C379.456 117.182 374.78 117.805 369.842 117.791C369.622 117.791 369.403 117.791 369.176 117.791C365.9 117.781 362.92 117.59 359.822 116.438C359.499 116.329 359.177 116.221 358.844 116.109C352.689 113.833 348.141 108.903 345.325 103.098C344.531 101.368 343.946 99.5967 343.445 97.762C343.385 97.5438 343.324 97.3256 343.262 97.1009C342.17 92.7775 342.029 88.3152 342.05 83.8808C342.05 83.6318 342.051 83.3827 342.051 83.1262C342.089 73.2415 344.043 64.1167 351.023 56.6984C356.311 51.6326 362.773 49.8035 369.978 49.8352Z" fill="black"/>
<path d="M235.583 49.8348C249.785 49.8348 263.988 49.8348 278.622 49.8348C278.622 53.4987 278.622 57.1626 278.622 60.9375C268.915 60.9375 259.208 60.9375 249.206 60.9375C249.206 66.5352 249.206 72.1328 249.206 77.9001C257.892 77.9001 266.577 77.9001 275.525 77.9001C275.525 81.564 275.525 85.2279 275.525 89.0028C266.84 89.0028 258.155 89.0028 249.206 89.0028C249.206 97.7555 249.206 106.508 249.206 115.526C244.711 115.526 240.215 115.526 235.583 115.526C235.583 93.848 235.583 72.1698 235.583 49.8348Z" fill="black"/>
</svg>
