<svg width="230" height="72" viewBox="0 0 230 72" fill="none" xmlns="http://www.w3.org/2000/svg">
<path d="M32.9711 0.0017987C33.2098 0.00310363 33.2098 0.00310363 33.4532 0.00443491C33.6194 0.00669678 33.7855 0.00895866 33.9567 0.0112891C34.1244 0.012507 34.2921 0.0137249 34.4649 0.0149798C34.8796 0.0181646 35.2942 0.0226082 35.7088 0.0281608C35.7088 0.117244 35.7088 0.206327 35.7088 0.298109C35.8893 0.298109 36.0698 0.298109 36.2558 0.298109C36.2558 0.431733 36.2558 0.565358 36.2558 0.703031C36.7973 0.769844 36.7973 0.769844 37.3497 0.838005C37.3949 1.06071 37.44 1.28342 37.4865 1.51288C37.8926 1.51288 38.2988 1.51288 38.7172 1.51288C38.7623 1.6465 38.8075 1.78012 38.854 1.9178C39.1299 1.93977 39.4059 1.96174 39.6819 1.9837C39.9479 2.05277 39.9479 2.05277 40.2214 2.45769C40.4938 2.55096 40.7673 2.64113 41.0419 2.72764C41.087 2.81673 41.1322 2.90581 41.1787 2.99759C41.4378 3.06039 41.4378 3.06039 41.7342 3.08195C41.9119 3.09865 42.0896 3.11536 42.2726 3.13257C42.2726 3.31073 42.2726 3.4889 42.2726 3.67246C42.8142 3.73927 42.8142 3.73927 43.3666 3.80744C43.4118 3.94106 43.4569 4.07468 43.5034 4.21236C43.7794 4.23433 44.0554 4.2563 44.3313 4.27826C44.5974 4.34733 44.5974 4.34733 44.8708 4.75225C45.3587 4.8516 45.3587 4.8516 45.8281 4.88723C45.8281 5.06539 45.8281 5.24356 45.8281 5.42712C45.9542 5.42008 45.9542 5.42008 46.0829 5.41289C46.1934 5.40924 46.3039 5.40558 46.4178 5.40182C46.582 5.39477 46.582 5.39477 46.7495 5.38758C47.132 5.43648 47.2134 5.55912 47.4691 5.83205C47.6326 5.87659 47.7962 5.92113 47.9648 5.96702C48.1171 6.01156 48.2694 6.0561 48.4263 6.102C48.4714 6.23562 48.5165 6.36924 48.563 6.50692C48.8789 6.55146 49.1948 6.596 49.5203 6.64189C49.5654 6.77552 49.6105 6.90914 49.657 7.04681C50.1985 7.11363 50.1985 7.11363 50.751 7.18179C50.7961 7.31541 50.8412 7.44904 50.8877 7.58671C51.368 7.75269 51.368 7.75269 51.845 7.85666C51.845 7.99028 51.845 8.12391 51.845 8.26158C52.0734 8.25741 52.0734 8.25741 52.3065 8.25315C52.8022 8.26158 52.8022 8.26158 53.0757 8.39655C53.0757 8.53018 53.0757 8.6638 53.0757 8.80148C53.4367 8.80148 53.7977 8.80148 54.1697 8.80148C54.2148 8.97964 54.2599 9.15781 54.3064 9.34137C54.3838 9.35773 54.4612 9.37408 54.5409 9.39093C54.6412 9.41355 54.7415 9.43617 54.8449 9.45948C54.9448 9.4814 55.0448 9.50332 55.1478 9.52591C55.4004 9.61132 55.4004 9.61132 55.5372 9.88127C55.8546 9.93624 56.174 9.98174 56.4944 10.0162C56.5395 10.1944 56.5846 10.3726 56.6311 10.5561C56.8032 10.545 56.9752 10.5339 57.1525 10.5224C57.458 10.5213 57.458 10.5213 57.7251 10.5561C57.9388 10.8092 57.9388 10.8092 58.1354 11.096C58.4523 11.1931 58.7714 11.2838 59.0926 11.366C59.1377 11.4551 59.1828 11.5442 59.2293 11.6359C59.462 11.6652 59.462 11.6652 59.6994 11.695C59.8602 11.72 60.0209 11.7451 60.1866 11.7709C60.2768 11.9045 60.3671 12.0382 60.4601 12.1758C60.6208 12.2204 60.7816 12.2649 60.9472 12.3108C61.1024 12.3553 61.2575 12.3999 61.4173 12.4458C61.4624 12.5794 61.5076 12.713 61.5541 12.8507C61.8699 12.8952 62.1858 12.9398 62.5113 12.9857C62.5113 13.1193 62.5113 13.2529 62.5113 13.3906C62.8272 13.3906 63.1431 13.3906 63.4685 13.3906C63.5136 13.5688 63.5588 13.7469 63.6053 13.9305C64.0565 13.975 64.5078 14.0196 64.9727 14.0655C65.0179 14.2436 65.063 14.4218 65.1095 14.6054C65.651 14.6722 65.651 14.6722 66.2035 14.7403C66.2486 14.874 66.2937 15.0076 66.3402 15.1453C66.7464 15.1453 67.1525 15.1453 67.5709 15.1453C67.7845 15.615 67.8799 15.9878 67.8877 16.5017C67.8904 16.6358 67.8931 16.7699 67.8958 16.908C67.8973 17.0535 67.8988 17.1989 67.9004 17.3488C67.903 17.5028 67.9056 17.6569 67.9083 17.8156C67.9165 18.3263 67.9227 18.8369 67.9288 19.3476C67.9326 19.617 67.9365 19.8864 67.9404 20.1557C67.9937 23.8387 68.0015 27.5219 67.9996 31.2052C67.9993 31.7367 67.9994 32.2683 67.9995 32.7999C67.9995 32.8898 67.9995 32.9796 67.9995 33.0722C67.9996 33.255 67.9996 33.4378 67.9997 33.6207C68.0001 35.3024 67.9996 36.9842 67.9989 38.666C67.9983 40.1061 67.9984 41.5462 67.999 42.9863C67.9997 44.6765 68 46.3667 67.9996 48.0569C67.9994 48.9456 67.9994 49.8343 67.9998 50.723C68.0002 51.5512 68 52.3794 67.9992 53.2076C67.999 53.5116 67.999 53.8155 67.9993 54.1195C67.9997 54.5324 67.9992 54.9453 67.9986 55.3583C67.9989 55.4797 67.9992 55.6011 67.9995 55.7262C67.9968 56.5515 67.9968 56.5515 67.8444 56.8523C67.6165 56.8973 67.3886 56.9422 67.1607 56.9872C67.1156 57.0763 67.0704 57.1654 67.024 57.2572C66.6618 57.3373 66.3003 57.3573 65.93 57.3922C65.93 57.5258 65.93 57.6594 65.93 57.7971C65.8542 57.8216 65.7784 57.8461 65.7003 57.8714C65.6012 57.9053 65.5021 57.9393 65.4001 57.9742C65.3017 58.0071 65.2034 58.04 65.102 58.0739C64.7895 58.1971 64.7895 58.1971 64.5625 58.6069C64.2666 58.6465 64.2666 58.6465 63.93 58.6322C63.8183 58.6286 63.7065 58.6249 63.5914 58.6212C63.4629 58.6141 63.4629 58.6141 63.3318 58.6069C63.2866 58.7405 63.2415 58.8742 63.195 59.0118C63.0427 59.023 62.8904 59.0341 62.7335 59.0456C62.5699 59.079 62.4063 59.1124 62.2378 59.1468C62.1955 59.2359 62.1532 59.325 62.1096 59.4168C62.0616 59.5059 62.0137 59.5949 61.9643 59.6867C61.596 59.78 61.2524 59.7974 60.8703 59.8217C60.8252 59.9553 60.7801 60.0889 60.7336 60.2266C60.4177 60.2266 60.1018 60.2266 59.7763 60.2266C59.7312 60.4048 59.6861 60.5829 59.6396 60.7665C59.4901 60.7776 59.3406 60.7888 59.1866 60.8003C58.6022 60.9176 58.6029 61.0013 58.2721 61.4414C57.8362 61.4751 57.8362 61.4751 57.4516 61.4414C57.4516 61.6195 57.4516 61.7977 57.4516 61.9813C57.2993 61.9952 57.147 62.0091 56.9901 62.0235C56.7447 62.0694 56.7447 62.0694 56.4944 62.1163C56.4041 62.2499 56.3139 62.3835 56.2209 62.5212C55.9032 62.5767 55.5987 62.5804 55.2765 62.5881C55.182 62.6106 55.0875 62.633 54.9902 62.6561C54.8946 62.8339 54.8034 63.0139 54.7167 63.196C54.221 63.2973 54.221 63.2973 53.7594 63.331C53.7594 63.4201 53.7594 63.5092 53.7594 63.601C53.4835 63.6581 53.2075 63.7152 52.9315 63.7723C52.6148 63.8605 52.6148 63.8605 52.392 64.2758C51.9646 64.3686 51.9646 64.3686 51.5715 64.4108C51.5264 64.5444 51.4812 64.6781 51.4347 64.8157C51.0286 64.8603 50.6225 64.9048 50.204 64.9507C50.204 65.0843 50.204 65.218 50.204 65.3556C49.843 65.3556 49.482 65.3556 49.11 65.3556C49.0649 65.5338 49.0198 65.712 48.9733 65.8955C48.821 65.9317 48.6687 65.9679 48.5118 66.0052C47.9862 66.1193 47.9862 66.1193 47.7425 66.5704C47.2468 66.6632 47.2468 66.6632 46.7853 66.7054C46.7402 66.839 46.6951 66.9726 46.6486 67.1103C46.1973 67.1548 45.746 67.1994 45.2811 67.2453C45.2811 67.3344 45.2811 67.4234 45.2811 67.5152C45.126 67.5514 44.9708 67.5876 44.811 67.6249C44.6503 67.6778 44.4895 67.7307 44.3239 67.7852C44.2787 67.9188 44.2336 68.0524 44.1871 68.1901C43.781 68.2346 43.3748 68.2792 42.9564 68.3251C42.9113 68.5032 42.8661 68.6814 42.8196 68.865C42.6899 68.8789 42.5602 68.8928 42.4265 68.9071C41.9593 68.9575 41.9593 68.9575 41.7257 69.4048C41.4077 69.4985 41.0886 69.5886 40.7684 69.6748C40.7233 69.7639 40.6782 69.853 40.6317 69.9447C40.2695 70.0249 39.908 70.0449 39.5377 70.0797C39.4926 70.2133 39.4474 70.347 39.4009 70.4846C39.0823 70.5761 38.7632 70.6661 38.4437 70.7546C38.3535 70.8882 38.2632 71.0218 38.1702 71.1595C37.8882 71.2198 37.6206 71.2271 37.3326 71.2397C37.0202 71.2757 37.0202 71.2757 36.8027 71.6994C36.6674 71.6994 36.532 71.6994 36.3925 71.6994C36.3925 71.7885 36.3925 71.8776 36.3925 71.9694C35.7868 71.9761 35.1812 71.9809 34.5755 71.9842C34.3698 71.9855 34.1641 71.9874 33.9584 71.9897C33.6613 71.993 33.3643 71.9945 33.0673 71.9957C32.7998 71.9978 32.7998 71.9978 32.5269 72C31.9944 71.968 31.5589 71.8837 31.0593 71.6994C30.924 71.499 30.924 71.499 30.7859 71.2945C30.6307 71.275 30.4756 71.2555 30.3158 71.2354C29.8286 71.1595 29.8286 71.1595 29.6235 70.898C29.5558 70.8061 29.4881 70.7143 29.4184 70.6196C28.9274 70.4457 28.9274 70.4457 28.4611 70.3497C28.4611 70.2606 28.4611 70.1715 28.4611 70.0797C28.1001 70.0352 27.7391 69.9906 27.3672 69.9447C27.3672 69.8111 27.3672 69.6775 27.3672 69.5398C27.0912 69.5179 26.8152 69.4959 26.5392 69.4739C26.2732 69.4048 26.2732 69.4049 25.9997 68.9999C25.5118 68.9006 25.5118 68.9006 25.0425 68.865C24.9973 68.6868 24.9522 68.5086 24.9057 68.3251C24.7534 68.3111 24.6011 68.2972 24.4442 68.2829C24.2806 68.2523 24.117 68.2216 23.9485 68.1901C23.8131 67.9896 23.8131 67.9896 23.675 67.7852C23.1871 67.6858 23.1871 67.6858 22.7177 67.6502C22.7177 67.5166 22.7177 67.3829 22.7177 67.2453C22.2214 67.2007 21.725 67.1562 21.2135 67.1103C21.2135 66.9321 21.2135 66.754 21.2135 66.5704C20.8976 66.5704 20.5817 66.5704 20.2563 66.5704C20.166 66.3922 20.0758 66.2141 19.9828 66.0305C19.6669 66.0305 19.351 66.0305 19.0256 66.0305C19.0002 65.9442 18.9748 65.8579 18.9486 65.769C18.7599 65.4337 18.7599 65.4337 18.2564 65.3894C18.1041 65.3782 17.9517 65.3671 17.7948 65.3556C17.7948 65.222 17.7948 65.0884 17.7948 64.9507C17.6425 64.9535 17.4902 64.9563 17.3333 64.9591C16.8376 64.9507 16.8376 64.9507 16.5641 64.8157C16.4964 64.6153 16.4964 64.6153 16.4274 64.4108C16.1115 64.3663 15.7956 64.3217 15.4701 64.2758C15.425 64.0977 15.3799 63.9195 15.3334 63.7359C15.1388 63.7401 15.1388 63.7401 14.9402 63.7444C14.5129 63.7359 14.5129 63.7359 14.2394 63.601C14.2394 63.4673 14.2394 63.3337 14.2394 63.196C14.0109 63.2044 14.0109 63.2044 13.7779 63.2129C13.2822 63.196 13.2822 63.196 13.0087 62.9261C13.0087 62.7925 13.0087 62.6588 13.0087 62.5212C12.6928 62.4766 12.3769 62.4321 12.0514 62.3862C11.9837 62.1858 11.9837 62.1858 11.9147 61.9813C11.4634 61.9813 11.0122 61.9813 10.5472 61.9813C10.5021 61.8031 10.457 61.6249 10.4105 61.4414C10.0946 61.4414 9.77869 61.4414 9.45323 61.4414C9.4081 61.2632 9.36298 61.085 9.31648 60.9015C8.95547 60.8569 8.59446 60.8124 8.2225 60.7665C8.15481 60.5661 8.15481 60.5661 8.08576 60.3616C7.76987 60.317 7.45398 60.2725 7.12852 60.2266C7.12852 60.093 7.12852 59.9594 7.12852 59.8217C6.72238 59.7771 6.31624 59.7326 5.8978 59.6867C5.8978 59.5086 5.8978 59.3304 5.8978 59.1468C5.53678 59.1023 5.17577 59.0577 4.80381 59.0118C4.73612 58.8114 4.73612 58.8114 4.66707 58.6069C4.35118 58.6069 4.03529 58.6069 3.70983 58.6069C3.64214 58.3397 3.64214 58.3397 3.57309 58.067C3.12182 58.0225 2.67055 57.9779 2.20561 57.9321C2.16048 57.7539 2.11536 57.5757 2.06886 57.3922C1.70785 57.3476 1.34684 57.3031 0.974883 57.2572C0.907193 57.0567 0.907193 57.0567 0.838136 56.8523C0.673141 56.8564 0.673141 56.8564 0.504814 56.8607C0.154398 56.8523 0.154398 56.8523 0.0176506 56.7173C0.00437128 56.4985 0.00073285 56.2791 0.000824208 56.0599C0.000551937 55.9167 0.000280521 55.7735 0 55.6259C0.000398324 55.4667 0.000795662 55.3074 0.00120606 55.1433C0.00108922 54.9756 0.000971714 54.808 0.000851334 54.6352C0.000664227 54.1677 0.00109633 53.7002 0.00177987 53.2326C0.00236802 52.7293 0.00216975 52.2259 0.00206574 51.7225C0.00199388 50.8497 0.00242477 49.9769 0.0031925 49.104C0.0043018 47.842 0.00466053 46.5801 0.00483257 45.3181C0.00513218 43.2708 0.0060421 41.2236 0.00733441 39.1763C0.00858878 37.187 0.00955715 35.1978 0.0101388 33.2086C0.0101747 33.086 0.0102103 32.9635 0.0102473 32.8373C0.0104258 32.2226 0.010599 31.608 0.010769 30.9933C0.0121876 25.8906 0.014597 20.7879 0.0176506 15.6852C0.153031 15.6852 0.288411 15.6852 0.427893 15.6852C0.47302 15.507 0.518147 15.3288 0.564641 15.1453C0.925654 15.1453 1.28667 15.1453 1.65862 15.1453C1.70375 14.9671 1.74887 14.7889 1.79537 14.6054C2.20151 14.6054 2.60765 14.6054 3.0261 14.6054C3.07122 14.4272 3.11635 14.249 3.16284 14.0655C3.33771 14.0543 3.51258 14.0432 3.69274 14.0317C3.99062 14.0036 3.99062 14.0036 4.25682 13.9305C4.47425 13.6713 4.47425 13.6713 4.53032 13.3906C4.80108 13.3906 5.07184 13.3906 5.35081 13.3906C5.35081 13.257 5.35081 13.1233 5.35081 12.9857C5.50311 12.9745 5.65541 12.9634 5.81233 12.9519C5.97591 12.9185 6.1395 12.8851 6.30804 12.8507C6.35034 12.7616 6.39265 12.6725 6.43624 12.5808C6.50816 12.4471 6.50816 12.4471 6.58153 12.3108C6.94979 12.2175 7.2934 12.2002 7.67551 12.1758C7.7432 11.9754 7.7432 11.9754 7.81226 11.7709C8.17327 11.7264 8.53429 11.6818 8.90624 11.6359C8.90624 11.5023 8.90624 11.3687 8.90624 11.231C9.08111 11.2199 9.25597 11.2087 9.43614 11.1973C9.73402 11.1691 9.73402 11.1691 10.0002 11.096C10.2176 10.8368 10.2176 10.8368 10.2737 10.5561C10.5896 10.5561 10.9055 10.5561 11.231 10.5561C11.231 10.378 11.231 10.1998 11.231 10.0162C11.403 10.0023 11.575 9.98841 11.7523 9.97407C12.2409 9.91663 12.3964 9.8259 12.7352 9.47635C13.1711 9.45104 13.1711 9.45104 13.5557 9.47635C13.581 9.3469 13.581 9.3469 13.6069 9.21484C13.6351 9.12297 13.6633 9.0311 13.6924 8.93645C14.0628 8.75364 14.3774 8.7927 14.7864 8.80148C14.7864 8.66785 14.7864 8.53423 14.7864 8.39655C15.1568 8.21375 15.4714 8.25281 15.8804 8.26158C15.9255 8.08342 15.9706 7.90525 16.0171 7.72168C16.4909 7.65487 16.4909 7.65487 16.9743 7.58671C17.0195 7.45309 17.0646 7.31946 17.1111 7.18179C17.4721 7.13725 17.8331 7.09271 18.2051 7.04681C18.2502 6.91319 18.2953 6.77957 18.3418 6.64189C18.4913 6.63076 18.6408 6.61962 18.7948 6.60815C19.3068 6.56624 19.3068 6.56624 19.4871 6.22853C19.7093 5.96702 19.7093 5.96702 20.0068 5.9317C20.3195 5.93314 20.6283 5.9438 20.94 5.96702C20.94 5.8334 20.94 5.69977 20.94 5.5621C21.3104 5.37929 21.625 5.41835 22.034 5.42712C22.034 5.24896 22.034 5.07079 22.034 4.88723C22.1637 4.87331 22.2935 4.85939 22.4272 4.84505C22.8943 4.79472 22.8943 4.79472 23.128 4.34733C23.4471 4.30234 23.7661 4.25735 24.0852 4.21236C24.2206 4.01192 24.2206 4.01192 24.3587 3.80744C24.6546 3.73837 24.6546 3.73837 24.9912 3.71464C25.1029 3.70577 25.2147 3.69689 25.3298 3.68775C25.4583 3.68018 25.4583 3.68018 25.5894 3.67246C25.6346 3.4943 25.6797 3.31613 25.7262 3.13257C25.9504 3.11169 25.9504 3.11169 26.1792 3.09039C26.7115 2.99243 26.7495 2.94716 27.0937 2.59267C27.5295 2.49987 27.5295 2.49987 27.9142 2.45769C27.9142 2.32407 27.9142 2.19045 27.9142 2.05277C27.9915 2.03642 28.0689 2.02006 28.1487 2.00321C28.249 1.98059 28.3493 1.95797 28.4526 1.93467C28.6025 1.90179 28.6025 1.90179 28.7555 1.86824C29.0364 1.80582 29.0364 1.80582 29.1449 1.51288C29.4586 1.47046 29.7681 1.46169 30.0845 1.45066C30.1806 1.42665 30.2766 1.40264 30.3756 1.3779C30.4713 1.20022 30.5626 1.02018 30.6491 0.838005C31.1448 0.736775 31.1448 0.736775 31.6063 0.703031C31.6515 0.569407 31.6966 0.435783 31.7431 0.298109C32.2208 -0.0162338 32.4077 -0.00362711 32.9711 0.0017987Z" fill="#FC9739"/>
<path d="M32.9711 0.0017987C33.2098 0.00310363 33.2098 0.00310363 33.4532 0.00443491C33.6194 0.00669678 33.7855 0.00895866 33.9567 0.0112891C34.1244 0.012507 34.2921 0.0137249 34.4649 0.0149798C34.8796 0.0181646 35.2942 0.0226082 35.7088 0.0281608C35.7088 0.117244 35.7088 0.206327 35.7088 0.298109C35.8893 0.298109 36.0698 0.298109 36.2558 0.298109C36.2558 0.431733 36.2558 0.565358 36.2558 0.703031C36.7973 0.769844 36.7973 0.769844 37.3497 0.838005C37.3949 1.06071 37.44 1.28342 37.4865 1.51288C37.8926 1.51288 38.2988 1.51288 38.7172 1.51288C38.7623 1.6465 38.8075 1.78012 38.854 1.9178C39.1299 1.93977 39.4059 1.96174 39.6819 1.9837C39.9479 2.05277 39.9479 2.05277 40.2214 2.45769C40.4938 2.55096 40.7673 2.64113 41.0419 2.72764C41.087 2.81673 41.1322 2.90581 41.1787 2.99759C41.4378 3.06039 41.4378 3.06039 41.7342 3.08195C41.9119 3.09865 42.0896 3.11536 42.2726 3.13257C42.2726 3.31073 42.2726 3.4889 42.2726 3.67246C42.8142 3.73927 42.8142 3.73927 43.3666 3.80744C43.4118 3.94106 43.4569 4.07468 43.5034 4.21236C43.7794 4.23433 44.0554 4.2563 44.3313 4.27826C44.5974 4.34733 44.5974 4.34733 44.8708 4.75225C45.3587 4.8516 45.3587 4.8516 45.8281 4.88723C45.8281 5.06539 45.8281 5.24356 45.8281 5.42712C45.9542 5.42008 45.9542 5.42008 46.0829 5.41289C46.1934 5.40924 46.3039 5.40558 46.4178 5.40182C46.582 5.39477 46.582 5.39477 46.7495 5.38758C47.132 5.43648 47.2134 5.55912 47.4691 5.83205C47.6326 5.87659 47.7962 5.92113 47.9648 5.96702C48.1171 6.01156 48.2694 6.0561 48.4263 6.102C48.4714 6.23562 48.5165 6.36924 48.563 6.50692C48.8789 6.55146 49.1948 6.596 49.5203 6.64189C49.5654 6.77552 49.6105 6.90914 49.657 7.04681C50.1985 7.11363 50.1985 7.11363 50.751 7.18179C50.7961 7.31541 50.8412 7.44904 50.8877 7.58671C51.368 7.75269 51.368 7.75269 51.845 7.85666C51.845 7.99028 51.845 8.12391 51.845 8.26158C52.0734 8.25741 52.0734 8.25741 52.3065 8.25315C52.8022 8.26158 52.8022 8.26158 53.0757 8.39655C53.0757 8.53018 53.0757 8.6638 53.0757 8.80148C53.4367 8.80148 53.7977 8.80148 54.1697 8.80148C54.2148 8.97964 54.2599 9.15781 54.3064 9.34137C54.3838 9.35773 54.4612 9.37408 54.5409 9.39093C54.6412 9.41355 54.7415 9.43617 54.8449 9.45948C54.9448 9.4814 55.0448 9.50332 55.1478 9.52591C55.4004 9.61132 55.4004 9.61132 55.5372 9.88127C55.8546 9.93624 56.174 9.98174 56.4944 10.0162C56.5395 10.1944 56.5846 10.3726 56.6311 10.5561C56.8032 10.545 56.9752 10.5339 57.1525 10.5224C57.458 10.5213 57.458 10.5213 57.7251 10.5561C57.9388 10.8092 57.9388 10.8092 58.1354 11.096C58.4523 11.1931 58.7714 11.2838 59.0926 11.366C59.1377 11.4551 59.1828 11.5442 59.2293 11.6359C59.462 11.6652 59.462 11.6652 59.6994 11.695C59.8602 11.72 60.0209 11.7451 60.1866 11.7709C60.2768 11.9045 60.3671 12.0382 60.4601 12.1758C60.6208 12.2204 60.7816 12.2649 60.9472 12.3108C61.1024 12.3553 61.2575 12.3999 61.4173 12.4458C61.4624 12.5794 61.5076 12.713 61.5541 12.8507C61.8699 12.8952 62.1858 12.9398 62.5113 12.9857C62.5113 13.1193 62.5113 13.2529 62.5113 13.3906C62.8272 13.3906 63.1431 13.3906 63.4685 13.3906C63.5136 13.5688 63.5588 13.7469 63.6053 13.9305C64.0565 13.975 64.5078 14.0196 64.9727 14.0655C65.0179 14.2436 65.063 14.4218 65.1095 14.6054C65.651 14.6722 65.651 14.6722 66.2035 14.7403C66.2486 14.874 66.2937 15.0076 66.3402 15.1453C66.7464 15.1453 67.1525 15.1453 67.5709 15.1453C67.7845 15.615 67.8799 15.9878 67.8877 16.5017C67.8904 16.6358 67.8931 16.7699 67.8958 16.908C67.8973 17.0535 67.8988 17.1989 67.9004 17.3488C67.903 17.5028 67.9056 17.6569 67.9083 17.8156C67.9165 18.3263 67.9227 18.8369 67.9288 19.3476C67.9326 19.617 67.9365 19.8864 67.9404 20.1557C67.9937 23.8387 68.0015 27.5219 67.9996 31.2052C67.9993 31.7367 67.9994 32.2683 67.9995 32.7999C67.9995 32.8898 67.9995 32.9796 67.9995 33.0722C67.9996 33.255 67.9996 33.4378 67.9997 33.6207C68.0001 35.3024 67.9996 36.9842 67.9989 38.666C67.9983 40.1061 67.9984 41.5462 67.999 42.9863C67.9997 44.6765 68 46.3667 67.9996 48.0569C67.9994 48.9456 67.9994 49.8343 67.9998 50.723C68.0002 51.5512 68 52.3794 67.9992 53.2076C67.999 53.5116 67.999 53.8155 67.9993 54.1195C67.9997 54.5324 67.9992 54.9453 67.9986 55.3583C67.9989 55.4797 67.9992 55.6011 67.9995 55.7262C67.9968 56.5515 67.9968 56.5515 67.8444 56.8523C67.6165 56.8973 67.3886 56.9422 67.1607 56.9872C67.1156 57.0763 67.0704 57.1654 67.024 57.2572C66.6618 57.3373 66.3003 57.3573 65.93 57.3922C65.93 57.5258 65.93 57.6594 65.93 57.7971C65.8542 57.8216 65.7784 57.8461 65.7003 57.8714C65.6012 57.9053 65.5021 57.9393 65.4001 57.9742C65.3017 58.0071 65.2034 58.04 65.102 58.0739C64.7895 58.1971 64.7895 58.1971 64.5625 58.6069C64.2666 58.6465 64.2666 58.6465 63.93 58.6322C63.8183 58.6286 63.7065 58.6249 63.5914 58.6212C63.4629 58.6141 63.4629 58.6141 63.3318 58.6069C63.2866 58.7405 63.2415 58.8742 63.195 59.0118C63.0427 59.023 62.8904 59.0341 62.7335 59.0456C62.5699 59.079 62.4063 59.1124 62.2378 59.1468C62.1955 59.2359 62.1532 59.325 62.1096 59.4168C62.0616 59.5059 62.0137 59.5949 61.9643 59.6867C61.596 59.78 61.2524 59.7974 60.8703 59.8217C60.8252 59.9553 60.7801 60.0889 60.7336 60.2266C60.4177 60.2266 60.1018 60.2266 59.7763 60.2266C59.7312 60.4048 59.6861 60.5829 59.6396 60.7665C59.4901 60.7776 59.3406 60.7888 59.1866 60.8003C58.6022 60.9176 58.6029 61.0013 58.2721 61.4414C57.8362 61.4751 57.8362 61.4751 57.4516 61.4414C57.4516 61.6195 57.4516 61.7977 57.4516 61.9813C57.2993 61.9952 57.147 62.0091 56.9901 62.0235C56.7447 62.0694 56.7447 62.0694 56.4944 62.1163C56.4041 62.2499 56.3139 62.3835 56.2209 62.5212C55.9032 62.5767 55.5987 62.5804 55.2765 62.5881C55.182 62.6106 55.0875 62.633 54.9902 62.6561C54.8946 62.8339 54.8034 63.0139 54.7167 63.196C54.221 63.2973 54.221 63.2973 53.7594 63.331C53.7594 63.4201 53.7594 63.5092 53.7594 63.601C53.4835 63.6581 53.2075 63.7152 52.9315 63.7723C52.6148 63.8605 52.6148 63.8605 52.392 64.2758C51.9646 64.3686 51.9646 64.3686 51.5715 64.4108C51.5264 64.5444 51.4812 64.6781 51.4347 64.8157C51.0286 64.8603 50.6225 64.9048 50.204 64.9507C50.204 65.0843 50.204 65.218 50.204 65.3556C49.843 65.3556 49.482 65.3556 49.11 65.3556C49.0649 65.5338 49.0198 65.712 48.9733 65.8955C48.821 65.9317 48.6687 65.9679 48.5118 66.0052C47.9862 66.1193 47.9862 66.1193 47.7425 66.5704C47.2468 66.6632 47.2468 66.6632 46.7853 66.7054C46.7402 66.839 46.6951 66.9726 46.6486 67.1103C46.1973 67.1548 45.746 67.1994 45.2811 67.2453C45.2811 67.3344 45.2811 67.4234 45.2811 67.5152C45.126 67.5514 44.9708 67.5876 44.811 67.6249C44.6503 67.6778 44.4895 67.7307 44.3239 67.7852C44.2787 67.9188 44.2336 68.0524 44.1871 68.1901C43.781 68.2346 43.3748 68.2792 42.9564 68.3251C42.9113 68.5032 42.8661 68.6814 42.8196 68.865C42.6899 68.8789 42.5602 68.8928 42.4265 68.9071C41.9593 68.9575 41.9593 68.9575 41.7257 69.4048C41.4077 69.4985 41.0886 69.5886 40.7684 69.6748C40.7233 69.7639 40.6782 69.853 40.6317 69.9447C40.2695 70.0249 39.908 70.0449 39.5377 70.0797C39.4926 70.2133 39.4474 70.347 39.4009 70.4846C39.0823 70.5761 38.7632 70.6661 38.4437 70.7546C38.3535 70.8882 38.2632 71.0218 38.1702 71.1595C37.8882 71.2198 37.6206 71.2271 37.3326 71.2397C37.0202 71.2757 37.0202 71.2757 36.8027 71.6994C36.6674 71.6994 36.532 71.6994 36.3925 71.6994C36.3925 71.7885 36.3925 71.8776 36.3925 71.9694C35.7868 71.9761 35.1812 71.9809 34.5755 71.9842C34.3698 71.9855 34.1641 71.9874 33.9584 71.9897C33.6613 71.993 33.3643 71.9945 33.0673 71.9957C32.7998 71.9978 32.7998 71.9978 32.5269 72C31.9944 71.968 31.5589 71.8837 31.0593 71.6994C30.924 71.499 30.924 71.499 30.7859 71.2945C30.6307 71.275 30.4756 71.2555 30.3158 71.2354C29.8286 71.1595 29.8286 71.1595 29.6235 70.898C29.5558 70.8061 29.4881 70.7143 29.4184 70.6196C28.9274 70.4457 28.9274 70.4457 28.4611 70.3497C28.4611 70.2606 28.4611 70.1715 28.4611 70.0797C28.1001 70.0352 27.7391 69.9906 27.3672 69.9447C27.3672 69.8111 27.3672 69.6775 27.3672 69.5398C27.0912 69.5179 26.8152 69.4959 26.5392 69.4739C26.2732 69.4048 26.2732 69.4049 25.9997 68.9999C25.5118 68.9006 25.5118 68.9006 25.0425 68.865C24.9973 68.6868 24.9522 68.5086 24.9057 68.3251C24.7534 68.3111 24.6011 68.2972 24.4442 68.2829C24.2806 68.2523 24.117 68.2216 23.9485 68.1901C23.8131 67.9896 23.8131 67.9896 23.675 67.7852C23.1871 67.6858 23.1871 67.6858 22.7177 67.6502C22.7177 67.5166 22.7177 67.3829 22.7177 67.2453C22.2214 67.2007 21.725 67.1562 21.2135 67.1103C21.2135 66.9321 21.2135 66.754 21.2135 66.5704C20.8976 66.5704 20.5817 66.5704 20.2563 66.5704C20.166 66.3922 20.0758 66.2141 19.9828 66.0305C19.6669 66.0305 19.351 66.0305 19.0256 66.0305C19.0002 65.9442 18.9748 65.8579 18.9486 65.769C18.7599 65.4337 18.7599 65.4337 18.2564 65.3894C18.1041 65.3782 17.9517 65.3671 17.7948 65.3556C17.7948 65.222 17.7948 65.0884 17.7948 64.9507C17.6425 64.9535 17.4902 64.9563 17.3333 64.9591C16.8376 64.9507 16.8376 64.9507 16.5641 64.8157C16.4964 64.6153 16.4964 64.6153 16.4274 64.4108C16.1115 64.3663 15.7956 64.3217 15.4701 64.2758C15.425 64.0977 15.3799 63.9195 15.3334 63.7359C15.1388 63.7401 15.1388 63.7401 14.9402 63.7444C14.5129 63.7359 14.5129 63.7359 14.2394 63.601C14.2394 63.4673 14.2394 63.3337 14.2394 63.196C14.0109 63.2044 14.0109 63.2044 13.7779 63.2129C13.2822 63.196 13.2822 63.196 13.0087 62.9261C13.0087 62.7925 13.0087 62.6588 13.0087 62.5212C12.6928 62.4766 12.3769 62.4321 12.0514 62.3862C11.9837 62.1858 11.9837 62.1858 11.9147 61.9813C11.4634 61.9813 11.0122 61.9813 10.5472 61.9813C10.5021 61.8031 10.457 61.6249 10.4105 61.4414C10.0946 61.4414 9.77869 61.4414 9.45323 61.4414C9.4081 61.2632 9.36298 61.085 9.31648 60.9015C8.95547 60.8569 8.59446 60.8124 8.2225 60.7665C8.15481 60.5661 8.15481 60.5661 8.08576 60.3616C7.76987 60.317 7.45398 60.2725 7.12852 60.2266C7.12852 60.093 7.12852 59.9594 7.12852 59.8217C6.72238 59.7771 6.31624 59.7326 5.8978 59.6867C5.8978 59.5086 5.8978 59.3304 5.8978 59.1468C5.53678 59.1023 5.17577 59.0577 4.80381 59.0118C4.73612 58.8114 4.73612 58.8114 4.66707 58.6069C4.35118 58.6069 4.03529 58.6069 3.70983 58.6069C3.64214 58.3397 3.64214 58.3397 3.57309 58.067C3.12182 58.0225 2.67055 57.9779 2.20561 57.9321C2.16048 57.7539 2.11536 57.5757 2.06886 57.3922C1.70785 57.3476 1.34684 57.3031 0.974883 57.2572C0.907193 57.0567 0.907193 57.0567 0.838136 56.8523C0.673141 56.8564 0.673141 56.8564 0.504814 56.8607C0.154398 56.8523 0.154398 56.8523 0.0176506 56.7173C0.00437128 56.4985 0.00073285 56.2791 0.000824208 56.0599C0.000551937 55.9167 0.000280521 55.7735 0 55.6259C0.000398324 55.4667 0.000795662 55.3074 0.00120606 55.1433C0.00108922 54.9756 0.000971714 54.808 0.000851334 54.6352C0.000664227 54.1677 0.00109633 53.7002 0.00177987 53.2326C0.00236802 52.7293 0.00216975 52.2259 0.00206574 51.7225C0.00199388 50.8497 0.00242477 49.9769 0.0031925 49.104C0.0043018 47.842 0.00466053 46.5801 0.00483257 45.3181C0.00513218 43.2708 0.0060421 41.2236 0.00733441 39.1763C0.00858878 37.187 0.00955715 35.1978 0.0101388 33.2086C0.0101747 33.086 0.0102103 32.9635 0.0102473 32.8373C0.0104258 32.2226 0.010599 31.608 0.010769 30.9933C0.0121876 25.8906 0.014597 20.7879 0.0176506 15.6852C0.153031 15.6852 0.288411 15.6852 0.427893 15.6852C0.47302 15.507 0.518147 15.3288 0.564641 15.1453C0.925654 15.1453 1.28667 15.1453 1.65862 15.1453C1.70375 14.9671 1.74887 14.7889 1.79537 14.6054C2.20151 14.6054 2.60765 14.6054 3.0261 14.6054C3.07122 14.4272 3.11635 14.249 3.16284 14.0655C3.33771 14.0543 3.51258 14.0432 3.69274 14.0317C3.99062 14.0036 3.99062 14.0036 4.25682 13.9305C4.47425 13.6713 4.47425 13.6713 4.53032 13.3906C4.80108 13.3906 5.07184 13.3906 5.35081 13.3906C5.35081 13.257 5.35081 13.1233 5.35081 12.9857C5.50311 12.9745 5.65541 12.9634 5.81233 12.9519C5.97591 12.9185 6.1395 12.8851 6.30804 12.8507C6.35034 12.7616 6.39265 12.6725 6.43624 12.5808C6.50816 12.4471 6.50816 12.4471 6.58153 12.3108C6.94979 12.2175 7.2934 12.2002 7.67551 12.1758C7.7432 11.9754 7.7432 11.9754 7.81226 11.7709C8.17327 11.7264 8.53429 11.6818 8.90624 11.6359C8.90624 11.5023 8.90624 11.3687 8.90624 11.231C9.08111 11.2199 9.25597 11.2087 9.43614 11.1973C9.73402 11.1691 9.73402 11.1691 10.0002 11.096C10.2176 10.8368 10.2176 10.8368 10.2737 10.5561C10.5896 10.5561 10.9055 10.5561 11.231 10.5561C11.231 10.378 11.231 10.1998 11.231 10.0162C11.403 10.0023 11.575 9.98841 11.7523 9.97407C12.2409 9.91663 12.3964 9.8259 12.7352 9.47635C13.1711 9.45104 13.1711 9.45104 13.5557 9.47635C13.581 9.3469 13.581 9.3469 13.6069 9.21484C13.6351 9.12297 13.6633 9.0311 13.6924 8.93645C14.0628 8.75364 14.3774 8.7927 14.7864 8.80148C14.7864 8.66785 14.7864 8.53423 14.7864 8.39655C15.1568 8.21375 15.4714 8.25281 15.8804 8.26158C15.9255 8.08342 15.9706 7.90525 16.0171 7.72168C16.4909 7.65487 16.4909 7.65487 16.9743 7.58671C17.0195 7.45309 17.0646 7.31946 17.1111 7.18179C17.4721 7.13725 17.8331 7.09271 18.2051 7.04681C18.2502 6.91319 18.2953 6.77957 18.3418 6.64189C18.4913 6.63076 18.6408 6.61962 18.7948 6.60815C19.3068 6.56624 19.3068 6.56624 19.4871 6.22853C19.7093 5.96702 19.7093 5.96702 20.0068 5.9317C20.3195 5.93314 20.6283 5.9438 20.94 5.96702C20.94 5.8334 20.94 5.69977 20.94 5.5621C21.3104 5.37929 21.625 5.41835 22.034 5.42712C22.034 5.24896 22.034 5.07079 22.034 4.88723C22.1637 4.87331 22.2935 4.85939 22.4272 4.84505C22.8943 4.79472 22.8943 4.79472 23.128 4.34733C23.4471 4.30234 23.7661 4.25735 24.0852 4.21236C24.2206 4.01192 24.2206 4.01192 24.3587 3.80744C24.6546 3.73837 24.6546 3.73837 24.9912 3.71464C25.1029 3.70577 25.2147 3.69689 25.3298 3.68775C25.4583 3.68018 25.4583 3.68018 25.5894 3.67246C25.6346 3.4943 25.6797 3.31613 25.7262 3.13257C25.9504 3.11169 25.9504 3.11169 26.1792 3.09039C26.7115 2.99243 26.7495 2.94716 27.0937 2.59267C27.5295 2.49987 27.5295 2.49987 27.9142 2.45769C27.9142 2.32407 27.9142 2.19045 27.9142 2.05277C27.9915 2.03642 28.0689 2.02006 28.1487 2.00321C28.249 1.98059 28.3493 1.95797 28.4526 1.93467C28.6025 1.90179 28.6025 1.90179 28.7555 1.86824C29.0364 1.80582 29.0364 1.80582 29.1449 1.51288C29.4586 1.47046 29.7681 1.46169 30.0845 1.45066C30.1806 1.42665 30.2766 1.40264 30.3756 1.3779C30.4713 1.20022 30.5626 1.02018 30.6491 0.838005C31.1448 0.736775 31.1448 0.736775 31.6063 0.703031C31.6515 0.569407 31.6966 0.435783 31.7431 0.298109C32.2208 -0.0162338 32.4077 -0.00362711 32.9711 0.0017987ZM32.3328 3.39408C32.101 3.50608 31.8692 3.61803 31.6373 3.72993C31.5191 3.78763 31.4008 3.84533 31.279 3.90478C30.7162 4.17732 30.1483 4.43883 29.5808 4.70164C28.8309 5.05042 28.0879 5.40856 27.3501 5.78143C26.5497 6.1815 25.733 6.51687 24.9014 6.84653C24.2989 7.08775 23.736 7.35474 23.175 7.68056C22.4973 8.05291 21.7823 8.35748 21.0777 8.67665C20.8009 8.80257 20.5247 8.92988 20.2488 9.05772C20.1584 9.09958 20.068 9.14145 19.9748 9.18459C19.8434 9.24549 19.8434 9.24549 19.7093 9.30763C19.2406 9.52476 18.7735 9.73756 18.2948 9.93241C17.6737 10.2042 17.0883 10.5241 16.4957 10.8514C16.2513 10.985 16.0068 11.1186 15.7623 11.2521C15.5829 11.3502 15.5829 11.3502 15.3998 11.4503C13.7588 12.3463 12.0901 13.1547 10.3878 13.9305C9.25899 14.4458 8.14761 14.9759 7.05788 15.568C6.31356 15.9667 5.5446 16.2761 4.7536 16.573C4.38073 16.7298 4.38073 16.7298 4.24721 17.0328C4.22917 17.3128 4.22917 17.3128 4.42275 17.5042C4.70203 17.7392 4.97152 17.8776 5.3038 18.0314C5.49487 18.1206 5.49487 18.1206 5.6898 18.2117C5.82613 18.2743 5.96246 18.337 6.10292 18.4015C6.24259 18.4666 6.38227 18.5317 6.52618 18.5987C6.95449 18.7981 7.38332 18.9964 7.81226 19.1945C8.18445 19.3669 8.55653 19.5396 8.92841 19.7127C9.1474 19.8146 9.36658 19.916 9.58597 20.017C9.99047 20.2047 10.3812 20.3918 10.7641 20.6201C11.1772 20.863 11.6088 21.0341 12.0514 21.2191C12.386 21.383 12.7191 21.5486 13.0514 21.7168C13.8388 22.1113 14.6343 22.4756 15.4445 22.8219C16.4384 23.248 17.3915 23.73 18.3456 24.2364C19.1116 24.6396 19.8874 24.9952 20.6862 25.3297C21.619 25.7225 22.5201 26.1723 23.4232 26.6269C23.7991 26.8152 24.1774 26.9989 24.5553 27.1833C26.5705 28.1805 26.5705 28.1805 26.9569 28.6427C27.015 29.1931 26.9997 29.3892 26.6834 29.8574C25.8205 30.1261 25.0351 29.7724 24.2732 29.385C23.9862 29.2353 23.7004 29.0834 23.4153 28.93C22.9579 28.6875 22.4914 28.4638 22.0255 28.2377C21.1276 27.7979 20.2456 27.3328 19.3674 26.8558C18.9385 26.6428 18.5195 26.4776 18.0695 26.3172C17.6146 26.1449 17.1853 25.9263 16.7521 25.707C16.6572 25.6595 16.5622 25.6121 16.4643 25.5632C16.1783 25.4204 15.8926 25.2769 15.6069 25.1333C14.3787 24.5196 13.1417 23.928 11.8977 23.3463C11.1755 23.0078 10.4574 22.6631 9.74382 22.3073C8.46203 21.6689 7.16551 21.0611 5.86868 20.4531C5.50846 20.2841 5.14862 20.1142 4.78886 19.9442C4.58019 19.8461 4.37151 19.748 4.16281 19.65C4.02163 19.5831 4.02163 19.5831 3.8776 19.5148C3.45997 19.3196 3.06586 19.1607 2.61585 19.0595C2.50058 19.948 2.45908 20.8137 2.4599 21.7089C2.4595 21.8486 2.45909 21.9882 2.45867 22.1321C2.45749 22.5974 2.45728 23.0628 2.45707 23.5281C2.45644 23.8627 2.45575 24.1973 2.45501 24.532C2.45323 25.4388 2.45233 26.3456 2.45173 27.2524C2.45135 27.8187 2.45077 28.385 2.45016 28.9513C2.44849 30.5201 2.44708 32.0888 2.44662 33.6575C2.44659 33.7577 2.44656 33.8579 2.44653 33.9611C2.4465 34.0615 2.44647 34.1619 2.44644 34.2654C2.44638 34.4689 2.44632 34.6723 2.44625 34.8758C2.44622 34.9767 2.44619 35.0777 2.44616 35.1816C2.44562 36.8204 2.44323 38.4592 2.44005 40.098C2.43681 41.7815 2.43511 43.4649 2.43495 45.1483C2.43482 46.0932 2.43403 47.038 2.43155 47.9829C2.42923 48.8703 2.429 49.7577 2.4302 50.6451C2.43031 50.9714 2.42971 51.2977 2.42836 51.624C2.42664 52.068 2.42742 52.512 2.42885 52.956C2.42775 53.0863 2.42665 53.2166 2.42551 53.3509C2.42642 53.4694 2.42732 53.588 2.42825 53.7101C2.42816 53.8126 2.42808 53.9151 2.428 54.0208C2.49375 54.3643 2.61696 54.4754 2.88935 54.6927C3.18338 54.8651 3.47541 55.0261 3.77821 55.182C3.86719 55.2283 3.95618 55.2747 4.04786 55.3224C4.99651 55.8109 5.96473 56.2579 6.93355 56.7057C7.54185 56.9872 8.1418 57.2835 8.74118 57.583C9.30791 57.8596 9.88067 58.1229 10.4532 58.3876C11.2754 58.768 12.0834 59.1646 12.8805 59.5939C13.5163 59.9361 14.1499 60.2297 14.8275 60.4818C15.704 60.8374 16.5406 61.2873 17.3846 61.7113C21.28 63.662 21.28 63.662 25.2668 65.4194C25.7386 65.6312 26.181 65.8735 26.6317 66.125C27.1725 66.4168 27.7311 66.6694 28.2902 66.9247C28.9599 67.2309 29.6102 67.5365 30.2389 67.9201C30.4707 68.0194 30.7027 68.1186 30.9365 68.2133C31.3124 68.3751 31.6709 68.5678 32.031 68.7611C32.3279 68.8988 32.3279 68.8988 32.8371 68.865C33.01 65.9268 32.9941 62.9886 32.9922 60.0467C32.9918 59.3191 32.9922 58.5914 32.9924 57.8638C32.9926 56.6407 32.9923 55.4177 32.9916 54.1946C32.9909 52.7957 32.9911 51.3968 32.9919 49.9979C32.9925 48.7838 32.9926 47.5696 32.9922 46.3554C32.992 45.6362 32.992 44.9169 32.9924 44.1976C32.9932 42.7584 32.9902 41.3193 32.9787 39.8801C32.9735 39.1263 32.9767 38.3731 32.9859 37.6194C32.9907 37.1307 32.9901 36.6421 32.9882 36.1533C32.9885 35.9257 32.9912 35.6981 32.9964 35.4706C33.0514 34.2315 33.0514 34.2315 32.5527 33.1364C31.8979 32.6072 31.2177 32.3111 30.3976 32.1157C30.0603 32.003 29.9087 31.8888 29.6919 31.6121C29.619 31.129 29.6363 30.8914 29.897 30.4733C30.3122 30.2171 30.5632 30.256 31.0372 30.3255C31.6206 30.4672 32.1053 30.7918 32.6122 31.0999C33.2698 31.4762 33.717 31.5471 34.478 31.4771C34.7736 31.3952 34.7736 31.3952 35.0079 31.2494C35.0985 31.1998 35.1891 31.1502 35.2825 31.0991C35.378 31.0457 35.4736 30.9923 35.572 30.9372C35.7879 30.8292 36.0045 30.7224 36.2216 30.6167C36.604 30.4282 36.986 30.2392 37.3674 30.0488C37.511 29.9773 37.6547 29.9058 37.8027 29.8321C37.9347 29.7662 38.0668 29.7002 38.2028 29.6323C38.4454 29.5168 38.6919 29.4087 38.9421 29.3102C39.3067 29.1657 39.6333 28.9736 39.973 28.7803C40.7791 28.3337 41.3625 28.1641 42.2726 28.2377C42.5787 28.3754 42.5787 28.3754 42.8196 28.5077C42.7202 29.0738 42.6043 29.5689 42.1354 29.9384C42.0255 29.9994 41.9157 30.0603 41.8026 30.1232C41.6799 30.1914 41.5572 30.2596 41.4309 30.3299C40.8022 30.6571 40.1647 30.9614 39.5206 31.2578C39.2444 31.3867 38.9682 31.5157 38.6921 31.6448C38.5576 31.7076 38.4232 31.7703 38.2846 31.835C37.7341 32.0934 37.1864 32.3569 36.6404 32.6244C36.5528 32.6668 36.4653 32.7091 36.3751 32.7527C35.9364 32.9687 35.5249 33.1751 35.1618 33.5017C35.0808 33.7839 35.0808 33.7839 35.0945 34.1038C35.0934 34.2278 35.0923 34.3518 35.0912 34.4796C35.0928 34.616 35.0944 34.7524 35.096 34.893C35.0953 35.1101 35.0953 35.1101 35.0946 35.3316C35.0937 35.8191 35.0967 36.3065 35.0997 36.7939C35.0998 37.1424 35.0997 37.4909 35.0994 37.8393C35.0991 38.5908 35.1009 39.3422 35.1039 40.0937C35.1084 41.1802 35.1098 42.2666 35.1105 43.3531C35.1117 45.1158 35.1153 46.8784 35.1205 48.6411C35.1255 50.3535 35.1294 52.066 35.1317 53.7784C35.1319 53.8839 35.132 53.9895 35.1322 54.0982C35.1329 54.6275 35.1336 55.1569 35.1342 55.6863C35.1399 60.0792 35.1496 64.4721 35.1618 68.865C35.6679 68.8769 35.9276 68.8629 36.3439 68.5713C36.9989 68.1413 37.6896 67.8186 38.401 67.4899C38.538 67.4259 38.6749 67.3619 38.8161 67.296C39.0997 67.1635 39.3834 67.0313 39.6672 66.8994C40.3056 66.6027 40.9431 66.3042 41.5804 66.0052C41.699 65.9496 41.8176 65.894 41.9398 65.8367C42.7482 65.4567 43.55 65.0653 44.3492 64.667C45.0934 64.2974 45.8463 63.9479 46.6013 63.6003C47.2491 63.301 47.8904 62.9913 48.5288 62.673C49.4998 62.189 50.4807 61.7274 51.4638 61.2681C52.2878 60.8822 53.1049 60.4849 53.9189 60.0791C54.6827 59.6998 55.4548 59.3392 56.2301 58.9833C56.8709 58.6887 57.5046 58.382 58.1354 58.067C59.721 57.2756 59.721 57.2756 60.3575 57.0041C61.2253 56.6308 62.0652 56.1998 62.91 55.7789C63.1919 55.6391 63.4743 55.5004 63.757 55.3623C63.8452 55.3191 63.9334 55.2759 64.0242 55.2314C64.2675 55.1124 64.5109 54.9935 64.7543 54.8746C65.0909 54.7246 65.0909 54.7246 65.2462 54.5577C65.3855 53.7162 65.402 52.8926 65.3994 52.0414C65.3995 51.8999 65.3997 51.7585 65.3998 51.6127C65.4 51.1404 65.3993 50.6681 65.3985 50.1958C65.3985 49.8566 65.3985 49.5173 65.3986 49.1781C65.3986 48.4486 65.3982 47.7191 65.3974 46.9896C65.3963 45.9349 65.396 44.8802 65.3958 43.8255C65.3955 42.1141 65.3946 40.4027 65.3933 38.6913C65.392 37.0293 65.3911 35.3673 65.3905 33.7053C65.3905 33.6028 65.3904 33.5003 65.3904 33.3946C65.3902 32.8803 65.39 32.3659 65.3899 31.8516C65.3884 27.5876 65.386 23.3235 65.383 19.0595C64.7819 19.1649 64.2968 19.3725 63.7591 19.65C62.7945 20.1369 61.8221 20.606 60.8447 21.0672C60.7091 21.1315 60.5734 21.1958 60.4337 21.262C60.3051 21.3227 60.1765 21.3833 60.044 21.4458C59.9297 21.4997 59.8154 21.5536 59.6977 21.6092C59.4717 21.7113 59.2429 21.8074 59.012 21.898C58.455 22.1192 57.9369 22.4182 57.411 22.7025C56.7176 23.0734 56.0203 23.4036 55.2674 23.6428C54.7667 23.8131 54.3058 24.0423 53.8364 24.2813C53.0081 24.6969 52.1739 25.0947 51.3302 25.4787C50.8443 25.7004 50.3643 25.9303 49.8878 26.171C49.456 26.3876 49.0239 26.5738 48.5716 26.7446C47.9099 26.9957 47.3083 27.3234 46.6961 27.6747C46.3751 27.8328 46.3751 27.8328 45.9648 27.8328C45.6913 27.4279 45.6913 27.4279 45.6748 27.1073C45.9178 26.5457 46.385 26.3621 46.9135 26.0782C47.0196 26.019 47.1256 25.9598 47.2349 25.8988C47.884 25.5393 48.5419 25.2006 49.2126 24.8818C49.6703 24.6536 50.1029 24.3879 50.54 24.1237C50.8845 23.9205 51.2341 23.733 51.5886 23.5474C52.1402 23.2555 52.6677 22.9388 53.1939 22.6051C54.0313 22.0745 54.833 21.6261 55.7658 21.2739C56.3731 21.0206 56.9476 20.7162 57.5285 20.4093C58.3225 19.9902 59.1148 19.5894 59.9393 19.2314C61.2354 18.6514 62.5099 18.0075 63.742 17.3048C63.5387 16.7451 63.2309 16.6007 62.6993 16.3516C62.5622 16.286 62.425 16.2204 62.2837 16.1528C61.9531 16.0095 61.6287 15.8806 61.2902 15.759C60.7419 15.5597 60.2273 15.3156 59.708 15.0525C59.5171 14.957 59.3262 14.8616 59.1353 14.7662C59.0384 14.7175 58.9414 14.6688 58.8415 14.6186C58.3566 14.3757 57.8699 14.1364 57.3833 13.8968C57.2109 13.8117 57.0385 13.7266 56.8662 13.6416C56.7825 13.6003 56.6988 13.5591 56.6126 13.5165C56.4406 13.4316 56.2688 13.3464 56.0971 13.261C55.3824 12.9061 54.6617 12.5649 53.9389 12.2264C53.8149 12.1682 53.6909 12.1099 53.5631 12.0499C52.9221 11.7489 52.2806 11.449 51.6383 11.1509C50.4845 10.6141 49.3438 10.0677 48.2252 9.46257C47.4772 9.06354 46.7044 8.73084 45.9246 8.39738C45.151 8.06323 44.4089 7.68882 43.6681 7.28948C42.8578 6.85394 42.0265 6.48087 41.1795 6.12117C40.4165 5.79298 39.6815 5.42686 38.948 5.03907C38.7194 4.91946 38.4908 4.79995 38.2621 4.68055C38.0978 4.59469 38.0978 4.59469 37.9301 4.50709C36.9322 3.98762 35.9369 3.49934 34.8829 3.1004C34.6148 2.99759 34.6148 2.99759 34.3413 2.86262C33.552 2.76951 33.0175 3.05336 32.3328 3.39408Z" fill="#030100"/>
<path d="M207 22C223.725 22 223.725 22 226.695 24.723C228.412 26.6241 228.982 28.9067 228.888 31.4029C228.73 33.7705 227.92 35.7212 226.161 37.3594C224.528 38.7465 224.528 38.7465 223.665 38.7465C224.67 40.6836 225.678 42.6173 226.743 44.5233C227.472 45.8362 228.161 47.1694 228.851 48.5027C228.897 48.591 228.943 48.6792 228.99 48.7702C229.115 49.0112 229.239 49.2524 229.364 49.4936C229.579 49.9087 229.579 49.9087 229.822 50.2809C230 50.5916 230 50.5916 230 51C227.773 51 225.546 51 223.251 51C222.209 49.0219 221.175 47.0423 220.172 45.0444C219.658 44.0232 219.129 43.0111 218.578 42.0085C218.526 41.9128 218.474 41.817 218.421 41.7184C218.376 41.6368 218.331 41.5553 218.285 41.4712C218.119 41.1202 218.004 40.7477 217.88 40.3803C216.29 40.3803 214.699 40.3803 213.06 40.3803C213.06 43.8848 213.06 47.3893 213.06 51C211.06 51 209.06 51 207 51C207 41.43 207 31.86 207 22ZM213.06 26.9014C213.06 29.732 213.06 32.5625 213.06 35.4789C214.206 35.4831 214.206 35.4831 215.375 35.4874C215.732 35.4892 215.732 35.4892 216.096 35.4911C219.051 35.551 219.051 35.551 221.599 34.2195C222.506 33.1997 222.739 32.0515 222.701 30.7136C222.534 29.4118 222.058 28.4446 221.031 27.6077C219.49 26.6629 217.585 26.8534 215.849 26.8759C214.928 26.8843 214.008 26.8927 213.06 26.9014Z" fill="black"/>
<path d="M76.0645 22C78.0907 22 80.1168 22 82.2044 22C82.2085 22.8853 82.2085 22.8853 82.2128 23.7885C82.2221 25.7429 82.2329 27.6973 82.2445 29.6517C82.2515 30.8362 82.258 32.0206 82.2632 33.2051C82.2679 34.2382 82.2734 35.2714 82.2801 36.3045C82.2836 36.8508 82.2867 37.3971 82.2886 37.9435C82.2904 38.4593 82.2935 38.975 82.2975 39.4908C82.2993 39.7671 82.2999 40.0435 82.3003 40.3199C82.3176 42.1975 82.3688 44.2223 83.7045 45.691C85.0587 46.8119 86.7796 46.9558 88.4689 46.8394C89.7037 46.7094 90.7585 46.2423 91.5537 45.2839C92.536 43.7992 92.5724 42.1992 92.575 40.4717C92.5763 40.2694 92.5777 40.0671 92.5792 39.8649C92.583 39.3197 92.5852 38.7746 92.587 38.2295C92.5892 37.6583 92.5929 37.0871 92.5965 36.5159C92.603 35.4361 92.6081 34.3563 92.6128 33.2765C92.6181 32.0464 92.625 30.8163 92.632 29.5862C92.6464 27.0575 92.6587 24.5287 92.67 22C94.7423 22 96.8145 22 98.9495 22C98.9589 24.6723 98.9666 27.3445 98.9711 30.0168C98.9733 31.2578 98.9762 32.4988 98.981 33.7398C98.9852 34.8224 98.9879 35.905 98.9888 36.9876C98.9894 37.5599 98.9906 38.1323 98.9937 38.7047C98.9966 39.2452 98.9974 39.7858 98.9968 40.3264C98.9969 40.523 98.9977 40.7197 98.9994 40.9163C99.0201 43.559 98.543 46.0822 96.8563 48.1944C96.7851 48.2894 96.7139 48.3845 96.6405 48.4824C95.1136 50.3893 92.5393 51.5474 90.1592 51.8936C89.2682 51.9846 88.3757 51.9932 87.4808 51.9971C87.3872 51.9979 87.2937 51.9988 87.1973 51.9997C83.8783 52.0192 80.9698 51.0818 78.5763 48.7488C78.4871 48.6635 78.3978 48.5783 78.3059 48.4905C76.4322 46.5506 75.9736 43.8373 76.0011 41.2584C76.0013 41.0465 76.0012 40.8345 76.0009 40.6225C76.0007 40.0548 76.004 39.4872 76.0079 38.9195C76.0114 38.3233 76.0117 37.7271 76.0124 37.131C76.0141 36.0055 76.0187 34.8801 76.0243 33.7547C76.0306 32.4719 76.0336 31.1892 76.0364 29.9065C76.0422 27.271 76.0525 24.6355 76.0645 22Z" fill="black"/>
<path d="M142.489 21.7278C142.747 21.8194 142.747 21.8194 143.011 21.9128C145.478 22.8843 147.203 24.5571 148.358 26.9111C148.857 28.1021 148.917 29.1025 148.917 30.4133C146.841 30.4133 144.766 30.4133 142.628 30.4133C142.49 29.6505 142.49 29.6505 142.349 28.8723C141.906 27.7381 141.276 27.0832 140.166 26.5784C138.618 26.067 136.588 26.1045 135.091 26.7475C134.792 26.9088 134.792 26.9088 134.503 27.1404C134.244 27.3314 134.244 27.3314 133.965 27.3314C133.506 28.1802 133.144 29.0139 133.266 29.9931C133.676 31.2477 134.533 31.8353 135.666 32.4183C136.698 32.9375 137.765 33.3067 138.862 33.6632C142.475 34.8426 146.304 36.2446 148.218 39.7992C148.445 40.3507 148.629 40.9024 148.777 41.4803C148.817 41.636 148.817 41.636 148.858 41.7949C149.09 43.3246 149.082 45.0822 148.497 46.5235C148.428 46.6987 148.428 46.6987 148.358 46.8775C147.452 48.9174 145.672 50.2631 143.65 51.0654C139.869 52.4814 135.322 52.2412 131.635 50.6643C129.2 49.5209 127.375 47.8141 126.419 45.2627C126.019 44.1393 126 43.2816 126 42.0406C128.075 42.0406 130.15 42.0406 132.288 42.0406C132.426 42.9421 132.426 42.9421 132.568 43.8618C132.928 44.8594 133.502 45.5109 134.384 46.1032C135.271 46.5084 136.205 46.7622 137.179 46.8037C137.308 46.8093 137.437 46.8148 137.571 46.8206C139.046 46.8526 140.404 46.6716 141.65 45.823C142.408 45.0304 142.551 44.2516 142.534 43.1898C142.446 42.3183 142.149 41.6682 141.5 41.0748C139.959 39.9992 138.028 39.427 136.264 38.8326C133.014 37.7349 129.481 36.3208 127.716 33.1609C126.695 31.0737 126.59 28.9928 127.258 26.771C128.127 24.6356 129.886 23.1188 131.947 22.1831C135.114 20.8499 139.224 20.5673 142.489 21.7278Z" fill="black"/>
<path d="M187.665 22C189.536 22 191.407 22 193.335 22C194.462 24.9643 195.579 27.9318 196.682 30.905C196.876 31.4274 197.07 31.9498 197.264 32.4721C197.549 33.2373 197.833 34.0025 198.117 34.7677C198.653 36.2101 199.189 37.6522 199.725 39.0943C199.786 39.2576 199.786 39.2576 199.848 39.4243C200.049 39.965 200.25 40.5058 200.451 41.0466C200.64 41.5549 200.829 42.0633 201.018 42.5716C201.09 42.7658 201.162 42.9599 201.235 43.1541C201.409 43.6241 201.584 44.0942 201.759 44.5643C202.08 45.4305 202.403 46.2964 202.728 47.1611C202.881 47.5673 203.034 47.9737 203.186 48.3802C203.259 48.5736 203.332 48.7669 203.405 48.9601C203.506 49.2262 203.605 49.4925 203.705 49.759C203.762 49.9103 203.819 50.0617 203.878 50.2176C204 50.5916 204 50.5916 204 51C201.862 51 199.723 51 197.52 51C197.208 50.0846 196.896 49.1691 196.575 48.2259C196.476 47.937 196.378 47.648 196.276 47.3503C196.198 47.1221 196.121 46.8938 196.043 46.6655C196.003 46.5464 195.962 46.4273 195.92 46.3045C195.881 46.1912 195.843 46.0779 195.803 45.9612C195.77 45.8626 195.736 45.7641 195.702 45.6625C195.63 45.4178 195.63 45.4178 195.63 45.1455C192.244 45.1905 188.858 45.2354 185.37 45.2817C184.746 47.1687 184.123 49.0558 183.48 51C181.342 51 179.203 51 177 51C177.11 50.3348 177.264 49.7766 177.501 49.1561C177.539 49.0555 177.576 48.9548 177.615 48.8511C177.698 48.6312 177.781 48.4114 177.864 48.1918C178.046 47.7086 178.228 47.2248 178.409 46.7411C178.507 46.4805 178.604 46.2199 178.702 45.9594C179.223 44.5729 179.736 43.1837 180.248 41.7943C180.411 41.3536 180.573 40.913 180.736 40.4725C180.957 39.8752 181.177 39.278 181.397 38.6807C181.716 37.8171 182.035 36.9535 182.354 36.09C182.406 35.9498 182.458 35.8097 182.511 35.6653C182.772 34.9582 183.033 34.2511 183.295 33.5441C183.793 32.1958 184.291 30.8473 184.787 29.4983C185.061 28.7547 185.335 28.0113 185.609 27.2679C185.775 26.8168 185.941 26.3655 186.107 25.9142C186.291 25.4125 186.476 24.9111 186.661 24.4098C186.716 24.2603 186.77 24.1109 186.827 23.9569C186.878 23.8183 186.929 23.6797 186.982 23.5368C187.026 23.4169 187.07 23.297 187.116 23.1734C187.278 22.7729 187.473 22.3868 187.665 22ZM190.365 29.7606C189.924 31.0871 189.484 32.4138 189.045 33.7406C188.841 34.3567 188.637 34.9727 188.432 35.5886C188.235 36.1826 188.038 36.7767 187.841 37.3709C187.766 37.598 187.691 37.825 187.615 38.052C187.51 38.369 187.405 38.6863 187.3 39.0036C187.252 39.1453 187.252 39.1453 187.204 39.2899C187.044 39.757 187.044 39.757 186.99 40.2441C189.307 40.2441 191.623 40.2441 194.01 40.2441C193.512 38.6892 193.013 37.1346 192.511 35.581C192.43 35.3302 192.349 35.0793 192.268 34.8284C192.028 34.0854 191.787 33.3427 191.544 32.6006C191.467 32.3636 191.39 32.1265 191.313 31.8893C191.206 31.5573 191.097 31.2258 190.988 30.8944C190.956 30.795 190.925 30.6955 190.892 30.593C190.752 30.0791 190.752 30.0791 190.365 29.7606Z" fill="black"/>
<path d="M163.33 22.0002C163.466 22.0006 163.466 22.0006 163.605 22.0011C166.365 22.0154 168.766 22.5971 171.03 24.2278C171.115 24.2873 171.2 24.3468 171.287 24.4081C173.17 25.8632 174.43 28.3634 174.863 30.6459C174.908 31.2317 174.953 31.8176 175 32.4211C172.967 32.4211 170.934 32.4211 168.84 32.4211C168.704 31.7001 168.569 30.9791 168.429 30.2362C167.934 29.0527 167.376 28.2839 166.239 27.6417C165.281 27.271 164.386 27.1644 163.364 27.1723C163.238 27.1695 163.112 27.1668 162.982 27.164C161.638 27.1649 160.415 27.6205 159.429 28.549C157.76 30.3033 157.462 32.8211 157.445 35.1411C157.444 35.2848 157.443 35.4285 157.442 35.5766C157.44 35.8808 157.438 36.1851 157.437 36.4894C157.436 36.7954 157.433 37.1013 157.429 37.4073C157.393 40.0997 157.383 43.2626 159.25 45.4308C159.514 45.6766 159.777 45.8794 160.079 46.0768C160.163 46.1322 160.247 46.1877 160.334 46.2448C161.826 47.0983 163.694 47.0023 165.322 46.6662C166.454 46.343 167.284 45.784 167.958 44.8136C168.497 43.8431 168.597 42.9753 168.84 41.8435C170.873 41.8435 172.906 41.8435 175 41.8435C174.839 43.7653 174.839 43.7653 174.564 44.6515C174.533 44.7502 174.503 44.849 174.472 44.9508C173.659 47.4967 171.838 49.5033 169.486 50.7485C167.514 51.7309 165.45 52.0059 163.27 51.9999C163.173 51.9999 163.076 51.9998 162.976 51.9998C161.53 51.9955 160.214 51.9114 158.847 51.4025C158.704 51.3546 158.562 51.3067 158.415 51.2574C155.698 50.2526 153.69 48.0761 152.447 45.5135C152.096 44.7497 151.838 43.9678 151.617 43.1579C151.59 43.0616 151.563 42.9653 151.536 42.866C151.054 40.9574 150.992 38.9875 151.001 37.0299C151.001 36.92 151.001 36.81 151.002 36.6968C151.018 32.3331 151.881 28.3049 154.962 25.03C157.297 22.7937 160.149 21.9862 163.33 22.0002Z" fill="black"/>
<path d="M104 22C110.27 22 116.54 22 123 22C123 23.6175 123 25.2349 123 26.9014C118.715 26.9014 114.429 26.9014 110.014 26.9014C110.014 29.3725 110.014 31.8437 110.014 34.3897C113.849 34.3897 117.683 34.3897 121.633 34.3897C121.633 36.0071 121.633 37.6246 121.633 39.2911C117.799 39.2911 113.965 39.2911 110.014 39.2911C110.014 43.155 110.014 47.019 110.014 51C108.03 51 106.045 51 104 51C104 41.43 104 31.86 104 22Z" fill="black"/>
</svg>
